# Blender 4.5.3 LTS
# www.blender.org
mtllib Button2.mtl
o Cube.003
v -0.689881 1.043210 0.343231
v -0.689881 1.055043 0.355065
v -0.701714 1.055043 0.343231
v -0.689881 1.187388 0.355065
v -0.689881 1.199221 0.343231
v -0.701714 1.187388 0.343231
v -0.689881 1.043210 0.210887
v -0.701714 1.055043 0.210887
v -0.689881 1.055043 0.199053
v -0.689881 1.199221 0.210887
v -0.689881 1.187388 0.199053
v -0.701714 1.187388 0.210887
v -0.557536 1.043210 0.343231
v -0.545703 1.055043 0.343231
v -0.557536 1.055043 0.355065
v -0.557536 1.199221 0.343231
v -0.557536 1.187388 0.355065
v -0.545703 1.187388 0.343231
v -0.557536 1.043210 0.210887
v -0.557536 1.055043 0.199053
v -0.545703 1.055043 0.210887
v -0.557536 1.199221 0.210887
v -0.545703 1.187388 0.210887
v -0.557536 1.187388 0.199053
v -0.651367 1.078941 0.311229
v -0.651367 1.079844 0.311235
v -0.648874 1.082865 0.311253
v -0.646259 1.086038 0.311273
v -0.643556 1.089336 0.311293
v -0.640797 1.092733 0.311314
v -0.638016 1.096204 0.311336
v -0.635248 1.099722 0.311357
v -0.632526 1.103262 0.311379
v -0.629882 1.106798 0.311401
v -0.627352 1.110303 0.311423
v -0.624968 1.113751 0.311444
v -0.622765 1.117117 0.311465
v -0.620775 1.120375 0.311485
v -0.619785 1.122096 0.311496
v -0.618882 1.123725 0.311506
v -0.618064 1.125280 0.311515
v -0.617333 1.126781 0.311525
v -0.616688 1.128248 0.311534
v -0.616128 1.129701 0.311543
v -0.615655 1.131159 0.311552
v -0.615268 1.132642 0.311561
v -0.614967 1.134170 0.311570
v -0.614751 1.135762 0.311580
v -0.614622 1.137439 0.311590
v -0.614579 1.139220 0.311601
v -0.614711 1.141579 0.311616
v -0.615097 1.143805 0.311630
v -0.615723 1.145886 0.311643
v -0.616573 1.147806 0.311655
v -0.617633 1.149553 0.311665
v -0.618887 1.151111 0.311675
v -0.620322 1.152468 0.311683
v -0.621922 1.153610 0.311690
v -0.623673 1.154522 0.311696
v -0.625560 1.155190 0.311700
v -0.627568 1.155602 0.311703
v -0.629682 1.155742 0.311704
v -0.631266 1.155681 0.311703
v -0.632857 1.155490 0.311702
v -0.634458 1.155157 0.311700
v -0.636069 1.154671 0.311697
v -0.637692 1.154020 0.311693
v -0.639330 1.153193 0.311688
v -0.640985 1.152177 0.311682
v -0.642657 1.150961 0.311674
v -0.644348 1.149534 0.311665
v -0.646062 1.147884 0.311655
v -0.647798 1.145999 0.311643
v -0.649560 1.143867 0.311630
v -0.649560 1.159743 0.311728
v -0.647795 1.161102 0.311737
v -0.646048 1.162337 0.311744
v -0.644316 1.163450 0.311751
v -0.642594 1.164443 0.311757
v -0.640880 1.165315 0.311763
v -0.639169 1.166068 0.311767
v -0.637458 1.166703 0.311771
v -0.635744 1.167220 0.311774
v -0.634022 1.167621 0.311777
v -0.632290 1.167906 0.311779
v -0.630543 1.168077 0.311780
v -0.628778 1.168133 0.311780
v -0.624915 1.167903 0.311779
v -0.621276 1.167226 0.311774
v -0.617885 1.166125 0.311768
v -0.614761 1.164620 0.311758
v -0.611926 1.162733 0.311747
v -0.609400 1.160486 0.311733
v -0.607205 1.157900 0.311717
v -0.605362 1.154996 0.311699
v -0.603892 1.151797 0.311679
v -0.602816 1.148324 0.311658
v -0.602154 1.144597 0.311635
v -0.601929 1.140640 0.311610
v -0.602093 1.137099 0.311588
v -0.602594 1.133606 0.311567
v -0.603446 1.130116 0.311545
v -0.604664 1.126580 0.311523
v -0.606262 1.122951 0.311501
v -0.608254 1.119181 0.311478
v -0.610655 1.115223 0.311453
v -0.613480 1.111029 0.311427
v -0.616741 1.106551 0.311400
v -0.620455 1.101743 0.311370
v -0.624634 1.096557 0.311338
v -0.629294 1.090945 0.311303
v -0.595604 1.090945 0.311303
v -0.595604 1.078941 0.311229
v -0.649560 1.159476 0.355065
v -0.647798 1.145730 0.355065
v -0.647795 1.160834 0.355065
v -0.644348 1.149266 0.355065
v -0.646062 1.147616 0.355065
v -0.646048 1.162069 0.355065
v -0.644316 1.163183 0.355065
v -0.640985 1.151909 0.355065
v -0.637692 1.153752 0.355065
v -0.639330 1.152925 0.355065
v -0.642594 1.164175 0.355065
v -0.640880 1.165048 0.355065
v -0.636069 1.154403 0.355065
v -0.639169 1.165801 0.355065
v -0.642657 1.150693 0.355065
v -0.637458 1.166436 0.355065
v -0.635744 1.166953 0.355065
v -0.634458 1.154889 0.355065
v -0.632857 1.155222 0.355065
v -0.634022 1.167354 0.355065
v -0.629682 1.155474 0.355065
v -0.628778 1.167866 0.355065
v -0.631266 1.155413 0.355065
v -0.630543 1.167809 0.355065
v -0.632290 1.167639 0.355065
v -0.623673 1.154254 0.355065
v -0.625560 1.154923 0.355065
v -0.627568 1.155334 0.355065
v -0.624915 1.167636 0.355065
v -0.621922 1.153342 0.355065
v -0.621276 1.166959 0.355065
v -0.620775 1.120106 0.355065
v -0.619785 1.121827 0.355065
v -0.618887 1.150843 0.355065
v -0.616688 1.127979 0.355065
v -0.617633 1.149285 0.355065
v -0.615268 1.132373 0.355065
v -0.615655 1.130890 0.355065
v -0.615723 1.145617 0.355065
v -0.614622 1.137171 0.355065
v -0.614751 1.135494 0.355065
v -0.614967 1.133901 0.355065
v -0.615097 1.143537 0.355065
v -0.616128 1.129432 0.355065
v -0.616573 1.147538 0.355065
v -0.602093 1.136830 0.355065
v -0.601929 1.140372 0.355065
v -0.602594 1.133338 0.355065
v -0.602154 1.144329 0.355065
v -0.604664 1.126311 0.355065
v -0.603446 1.129847 0.355065
v -0.602816 1.148056 0.355065
v -0.603892 1.151529 0.355065
v -0.610655 1.114953 0.355065
v -0.608254 1.118912 0.355065
v -0.606262 1.122682 0.355065
v -0.614579 1.138952 0.355065
v -0.605362 1.154728 0.355065
v -0.607205 1.157632 0.355065
v -0.609400 1.160218 0.355065
v -0.611926 1.162465 0.355065
v -0.618882 1.123456 0.355065
v -0.618064 1.125011 0.355065
v -0.617333 1.126512 0.355065
v -0.614711 1.141310 0.355065
v -0.614761 1.164352 0.355065
v -0.617885 1.165857 0.355065
v -0.620322 1.152200 0.355065
v -0.651367 1.079574 0.355065
v -0.651367 1.078670 0.355065
v -0.648874 1.082595 0.355065
v -0.649560 1.143599 0.355065
v -0.646259 1.085767 0.355065
v -0.643556 1.089065 0.355065
v -0.640797 1.092463 0.355065
v -0.638016 1.095934 0.355065
v -0.635248 1.099452 0.355065
v -0.632526 1.102992 0.355065
v -0.629294 1.090675 0.355065
v -0.624634 1.096287 0.355065
v -0.595604 1.078670 0.355065
v -0.595604 1.090675 0.355065
v -0.613480 1.110759 0.355065
v -0.620455 1.101473 0.355065
v -0.616741 1.106282 0.355065
v -0.629882 1.106528 0.355065
v -0.627352 1.110033 0.355065
v -0.624968 1.113482 0.355065
v -0.622765 1.116848 0.355065
vn -0.5774 -0.5774 0.5774
vn -0.5774 0.5774 0.5774
vn -0.5774 -0.5774 -0.5774
vn -0.5774 0.5774 -0.5774
vn 0.5774 -0.5774 0.5774
vn 0.5774 0.5774 0.5774
vn 0.5774 -0.5774 -0.5774
vn 0.5774 0.5774 -0.5774
vn -0.7071 -0.7071 -0.0000
vn -0.7071 -0.0000 0.7071
vn -0.7071 0.7071 -0.0000
vn -0.7071 -0.0000 -0.7071
vn -0.0000 -0.7071 -0.7071
vn -0.0000 0.7071 -0.7071
vn 0.7071 -0.0000 -0.7071
vn 0.7071 -0.7071 -0.0000
vn 0.7071 0.7071 -0.0000
vn 0.7071 -0.0000 0.7071
vn -0.0000 -0.7071 0.7071
vn -0.0000 0.7071 0.7071
vn -0.0000 -1.0000 -0.0000
vn -1.0000 -0.0000 -0.0000
vn -0.0000 -0.0000 1.0000
vn -0.0000 1.0000 -0.0000
vn -0.0000 -0.0000 -1.0000
vn 1.0000 -0.0000 -0.0000
vn -0.0000 -0.0062 1.0000
vn -0.0000 -0.0061 1.0000
vn 0.7071 0.7071 0.0044
vn 0.9411 -0.3381 -0.0021
vn 0.9415 -0.3370 -0.0021
vn 0.7057 0.7085 0.0044
vn 0.7715 -0.6362 -0.0039
vn 0.7725 -0.6350 -0.0039
vn 0.7748 -0.6322 -0.0039
vn 0.7784 -0.6278 -0.0039
vn 0.7832 -0.6218 -0.0038
vn 0.7893 -0.6140 -0.0038
vn 0.7968 -0.6042 -0.0037
vn 0.8059 -0.5921 -0.0037
vn 0.8167 -0.5770 -0.0036
vn 0.8297 -0.5582 -0.0034
vn 0.8451 -0.5345 -0.0033
vn 0.8451 -0.5346 -0.0033
vn 0.8603 -0.5098 -0.0031
vn 0.8602 -0.5099 -0.0031
vn 0.8707 -0.4918 -0.0030
vn 0.8798 -0.4753 -0.0029
vn 0.8921 -0.4517 -0.0028
vn 0.8921 -0.4518 -0.0028
vn 0.9073 -0.4204 -0.0026
vn 0.9073 -0.4205 -0.0026
vn 0.9245 -0.3811 -0.0024
vn 0.9245 -0.3812 -0.0024
vn 0.9425 -0.3341 -0.0021
vn 0.9425 -0.3342 -0.0021
vn 0.9598 -0.2808 -0.0017
vn 0.9597 -0.2809 -0.0017
vn 0.9748 -0.2231 -0.0014
vn 0.9748 -0.2232 -0.0014
vn 0.9865 -0.1637 -0.0010
vn 0.9865 -0.1638 -0.0010
vn 0.9944 -0.1053 -0.0007
vn 0.9944 -0.1055 -0.0007
vn 0.9987 -0.0505 -0.0003
vn 0.9987 -0.0506 -0.0003
vn 0.9999 0.0159 0.0001
vn 0.9999 0.0157 0.0001
vn 0.9935 0.1136 0.0007
vn 0.9936 0.1133 0.0007
vn 0.9732 0.2298 0.0014
vn 0.9733 0.2296 0.0014
vn 0.9379 0.3470 0.0021
vn 0.9379 0.3468 0.0021
vn 0.8865 0.4627 0.0029
vn 0.8866 0.4625 0.0029
vn 0.8187 0.5741 0.0035
vn 0.8189 0.5740 0.0035
vn 0.7347 0.6783 0.0042
vn 0.7349 0.6782 0.0042
vn 0.6354 0.7721 0.0048
vn 0.6356 0.7720 0.0048
vn 0.5226 0.8526 0.0053
vn 0.5227 0.8525 0.0053
vn 0.3990 0.9169 0.0057
vn 0.3991 0.9169 0.0057
vn 0.2680 0.9634 0.0060
vn 0.2681 0.9634 0.0060
vn 0.1338 0.9910 0.0061
vn 0.0138 0.9999 0.0062
vn -0.0789 0.9969 0.0062
vn -0.0790 0.9969 0.0062
vn -0.1615 0.9868 0.0061
vn -0.1616 0.9868 0.0061
vn -0.2464 0.9691 0.0060
vn -0.2465 0.9691 0.0060
vn -0.3308 0.9437 0.0058
vn -0.4119 0.9112 0.0056
vn -0.4120 0.9112 0.0056
vn -0.4875 0.8731 0.0054
vn -0.4876 0.8731 0.0054
vn -0.5561 0.8311 0.0051
vn -0.5562 0.8311 0.0051
vn -0.6168 0.7871 0.0049
vn -0.6169 0.7870 0.0049
vn -0.6696 0.7427 0.0046
vn -0.6697 0.7426 0.0046
vn -0.7150 0.6992 0.0043
vn -0.7150 0.6991 0.0043
vn -0.7534 0.6575 0.0041
vn -0.7535 0.6574 0.0041
vn 0.3385 0.9409 0.0058
vn 0.3373 0.9414 0.0058
vn 0.8972 -0.4416 -0.0027
vn 0.8979 -0.4402 -0.0027
vn 0.5938 -0.8046 -0.0050
vn 0.5592 -0.8290 -0.0051
vn 0.5202 -0.8540 -0.0053
vn 0.4766 -0.8791 -0.0054
vn 0.4767 -0.8791 -0.0054
vn 0.4283 -0.9036 -0.0056
vn 0.4284 -0.9036 -0.0056
vn 0.3755 -0.9268 -0.0057
vn 0.3756 -0.9268 -0.0057
vn 0.3185 -0.9479 -0.0059
vn 0.3186 -0.9479 -0.0059
vn 0.2580 -0.9661 -0.0060
vn 0.1947 -0.9808 -0.0061
vn 0.1299 -0.9915 -0.0061
vn 0.0646 -0.9979 -0.0062
vn -0.0137 -0.9999 -0.0062
vn -0.1214 -0.9926 -0.0061
vn -0.1215 -0.9926 -0.0061
vn -0.2464 -0.9691 -0.0060
vn -0.2465 -0.9691 -0.0060
vn -0.3723 -0.9281 -0.0057
vn -0.3724 -0.9280 -0.0057
vn -0.4952 -0.8688 -0.0054
vn -0.4953 -0.8687 -0.0054
vn -0.6109 -0.7917 -0.0049
vn -0.6110 -0.7916 -0.0049
vn -0.7153 -0.6988 -0.0043
vn -0.7155 -0.6986 -0.0043
vn -0.8053 -0.5929 -0.0037
vn -0.8054 -0.5927 -0.0037
vn -0.8785 -0.4778 -0.0030
vn -0.8786 -0.4776 -0.0030
vn -0.9339 -0.3575 -0.0022
vn -0.9340 -0.3573 -0.0022
vn -0.9718 -0.2358 -0.0015
vn -0.9719 -0.2355 -0.0015
vn -0.9933 -0.1159 -0.0007
vn -0.9933 -0.1157 -0.0007
vn -1.0000 -0.0053 -0.0000
vn -1.0000 -0.0051 -0.0000
vn -0.9956 0.0942 0.0006
vn -0.9955 0.0944 0.0006
vn -0.9818 0.1898 0.0012
vn -0.9818 0.1900 0.0012
vn -0.9595 0.2817 0.0017
vn -0.9595 0.2819 0.0017
vn -0.9312 0.3646 0.0023
vn -0.9311 0.3648 0.0023
vn -0.9002 0.4354 0.0027
vn -0.9002 0.4355 0.0027
vn -0.8699 0.4931 0.0030
vn -0.8699 0.4932 0.0030
vn -0.8425 0.5387 0.0033
vn -0.8424 0.5388 0.0033
vn -0.8190 0.5738 0.0035
vn -0.7999 0.6001 0.0037
vn -0.7851 0.6194 0.0038
vn -0.7740 0.6332 0.0039
vn -0.9052 -0.4249 -0.0026
vn -0.9038 -0.4279 -0.0026
vn -0.7071 -0.7071 -0.0044
vn -0.7085 -0.7057 -0.0044
vn -0.7071 0.7071 0.0044
vn -0.7057 0.7085 0.0044
vt 0.143963 0.731037
vt 0.143963 0.750000
vt 0.125000 0.731037
vt 0.606037 0.000000
vt 0.625000 0.018963
vt 0.606037 0.018963
vt 0.143963 0.518963
vt 0.125000 0.518963
vt 0.143963 0.500000
vt 0.625000 0.249495
vt 0.606037 0.268858
vt 0.606037 0.231037
vt 0.356037 0.731037
vt 0.393858 0.731037
vt 0.389948 0.766955
vt 0.641955 0.735052
vt 0.606037 0.768963
vt 0.606037 0.731142
vt 0.356037 0.518963
vt 0.389948 0.483045
vt 0.393858 0.518963
vt 0.641955 0.514947
vt 0.606037 0.518858
vt 0.606037 0.481037
vt 0.393963 0.000000
vt 0.393963 0.018963
vt 0.393963 0.268963
vt 0.393963 0.231037
vt 0.625000 0.981037
vt 0.606037 0.981037
vt 0.514546 0.861616
vt 0.516944 0.861006
vt 0.519416 0.860535
vt 0.521993 0.860204
vt 0.524709 0.860011
vt 0.527594 0.859957
vt 0.531416 0.860190
vt 0.535027 0.860830
vt 0.538402 0.861853
vt 0.541520 0.863235
vt 0.544356 0.864952
vt 0.546889 0.866981
vt 0.549095 0.869296
vt 0.550953 0.871874
vt 0.552439 0.874692
vt 0.553532 0.877726
vt 0.554209 0.880953
vt 0.554448 0.884347
vt 0.554359 0.886890
vt 0.554059 0.889443
vt 0.553531 0.892011
vt 0.552756 0.894594
vt 0.551716 0.897197
vt 0.550391 0.899823
vt 0.548763 0.902473
vt 0.546814 0.905152
vt 0.544525 0.907862
vt 0.541878 0.910607
vt 0.538854 0.913388
vt 0.535436 0.916210
vt 0.561014 0.916278
vt 0.563195 0.913452
vt 0.565178 0.910655
vt 0.566967 0.907881
vt 0.568561 0.905124
vt 0.569962 0.902378
vt 0.571171 0.899638
vt 0.572190 0.896897
vt 0.573020 0.894150
vt 0.573662 0.891391
vt 0.574118 0.888614
vt 0.574388 0.885814
vt 0.574474 0.882984
vt 0.574090 0.876785
vt 0.572984 0.870944
vt 0.571189 0.865495
vt 0.568741 0.860471
vt 0.565673 0.855905
vt 0.562020 0.851832
vt 0.557816 0.848285
vt 0.553096 0.845298
vt 0.547896 0.842905
vt 0.542251 0.841141
vt 0.536196 0.840040
vt 0.529769 0.839637
vt 0.524021 0.839863
vt 0.518357 0.840631
vt 0.512701 0.841965
vt 0.506977 0.843889
vt 0.501110 0.846424
vt 0.495025 0.849594
vt 0.488645 0.853423
vt 0.481896 0.857935
vt 0.474704 0.863153
vt 0.466994 0.869101
vt 0.458692 0.875803
vt 0.449725 0.883284
vt 0.448934 0.828902
vt 0.429433 0.828770
vt 0.393963 0.981037
vt 0.430903 0.918862
vt 0.432359 0.918866
vt 0.437164 0.914853
vt 0.442212 0.910645
vt 0.447465 0.906296
vt 0.452880 0.901861
vt 0.458418 0.897393
vt 0.464037 0.892948
vt 0.469697 0.888579
vt 0.475357 0.884340
vt 0.480974 0.880286
vt 0.486508 0.876470
vt 0.491915 0.872945
vt 0.497155 0.869767
vt 0.499927 0.868187
vt 0.502550 0.866746
vt 0.505056 0.865443
vt 0.507477 0.864279
vt 0.509844 0.863252
vt 0.512190 0.862365
vt 0.856037 0.518963
vt 0.856037 0.731037
vt 0.693182 0.000000
vt 0.715909 0.000000
vt 0.704545 0.000000
vt 0.681818 0.000000
vt 0.670455 0.000000
vt 0.727273 0.000000
vt 0.659091 0.000000
vt 0.738636 0.000000
vt 0.647727 0.000000
vt 0.636364 0.000000
vt 0.750000 0.000000
vt 0.625000 0.000000
vt 0.613636 0.000000
vt 0.761364 0.000000
vt 0.602273 0.000000
vt 0.590909 0.000000
vt 0.772727 0.000000
vt 0.579545 0.000000
vt 0.568182 0.000000
vt 0.784091 0.000000
vt 0.556818 0.000000
vt 0.545455 0.000000
vt 0.534091 0.000000
vt 0.522727 0.000000
vt 0.511364 0.000000
vt 0.500000 0.000000
vt 0.488636 0.000000
vt 0.477273 0.000000
vt 0.465909 0.000000
vt 0.454545 0.000000
vt 0.443182 0.000000
vt 0.431818 0.000000
vt 0.420455 0.000000
vt 0.795455 0.000000
vt 0.409091 0.000000
vt 0.397727 0.000000
vt 0.386364 0.000000
vt 0.806818 0.000000
vt 0.375000 0.000000
vt 0.363636 0.000000
vt 0.352273 0.000000
vt 0.818182 0.000000
vt 0.340909 0.000000
vt 0.329545 0.000000
vt 0.829545 0.000000
vt 0.318182 0.000000
vt 0.306818 0.000000
vt 0.840909 0.000000
vt 0.295455 0.000000
vt 0.284091 0.000000
vt 0.852273 0.000000
vt 0.272727 0.000000
vt 0.261364 0.000000
vt 0.863636 0.000000
vt 0.250000 0.000000
vt 0.238636 0.000000
vt 0.875000 0.000000
vt 0.227273 0.000000
vt 0.215909 0.000000
vt 0.886364 0.000000
vt 0.204545 0.000000
vt 0.193182 0.000000
vt 0.181818 0.000000
vt 0.897727 0.000000
vt 0.170455 0.000000
vt 0.159091 0.000000
vt 0.909091 0.000000
vt 0.147727 0.000000
vt 0.136364 0.000000
vt 0.920455 0.000000
vt 0.125000 0.000000
vt 0.931818 0.000000
vt 0.113636 0.000000
vt 0.943182 0.000000
vt 0.102273 0.000000
vt 0.090909 0.000000
vt 0.954545 0.000000
vt 0.079545 0.000000
vt 0.965909 0.000000
vt 0.068182 0.000000
vt 0.977273 0.000000
vt 0.056818 0.000000
vt 0.045455 0.000000
vt 0.988636 0.000000
vt 1.000000 0.000000
vt 0.034091 0.000000
vt 0.022727 0.000000
vt 0.011364 0.000000
vt 0.000000 0.000000
vt 0.011236 0.000000
vt 0.011236 0.848913
vt 0.000000 0.849021
vt 0.022472 0.000000
vt 0.022472 0.848551
vt 0.033708 0.000000
vt 0.033708 0.848172
vt 0.022472 0.848551
vt 0.044944 0.000000
vt 0.044944 0.847777
vt 0.033708 0.848172
vt 0.056180 0.000000
vt 0.056180 0.847371
vt 0.044944 0.847777
vt 0.067416 0.000000
vt 0.067416 0.846956
vt 0.056180 0.847371
vt 0.078652 0.000000
vt 0.078652 0.846535
vt 0.067416 0.846956
vt 0.089888 0.000000
vt 0.089888 0.846111
vt 0.101124 0.000000
vt 0.101124 0.845688
vt 0.112360 0.000000
vt 0.112360 0.845269
vt 0.101124 0.845688
vt 0.123596 0.000000
vt 0.123596 0.844856
vt 0.134831 0.000000
vt 0.134831 0.844454
vt 0.146067 0.000000
vt 0.146067 0.844064
vt 0.134831 0.844454
vt 0.157303 0.000000
vt 0.157303 0.843858
vt 0.146067 0.844064
vt 0.168539 0.000000
vt 0.168539 0.843663
vt 0.157303 0.843858
vt 0.179775 0.000000
vt 0.179775 0.843477
vt 0.191011 0.000000
vt 0.191011 0.843298
vt 0.179775 0.843477
vt 0.202247 0.000000
vt 0.202247 0.843122
vt 0.191011 0.843298
vt 0.213483 0.000000
vt 0.213483 0.842948
vt 0.224719 0.000000
vt 0.224719 0.842774
vt 0.213483 0.842948
vt 0.235955 0.000000
vt 0.235955 0.842597
vt 0.224719 0.842774
vt 0.247191 0.000000
vt 0.247191 0.842414
vt 0.258427 0.000000
vt 0.258427 0.842223
vt 0.247191 0.842414
vt 0.269663 0.000000
vt 0.269663 0.842023
vt 0.258427 0.842223
vt 0.280899 0.000000
vt 0.280899 0.841810
vt 0.269663 0.842023
vt 0.292135 0.000000
vt 0.292135 0.841527
vt 0.303371 0.000000
vt 0.303371 0.841261
vt 0.314607 0.000000
vt 0.314607 0.841012
vt 0.303371 0.841261
vt 0.325843 0.000000
vt 0.325843 0.840782
vt 0.314607 0.841012
vt 0.337079 0.000000
vt 0.337079 0.840574
vt 0.348315 0.000000
vt 0.348315 0.840387
vt 0.348315 0.840387
vt 0.359551 0.000000
vt 0.359551 0.840225
vt 0.370787 0.000000
vt 0.370787 0.840088
vt 0.370787 0.840088
vt 0.382022 0.000000
vt 0.382022 0.839979
vt 0.393258 0.000000
vt 0.393258 0.839899
vt 0.393258 0.839899
vt 0.404494 0.000000
vt 0.404494 0.839850
vt 0.404494 0.839850
vt 0.415730 0.000000
vt 0.415730 0.839833
vt 0.426966 0.000000
vt 0.426966 0.839840
vt 0.426966 0.839840
vt 0.438202 0.000000
vt 0.438202 0.839863
vt 0.438202 0.839863
vt 0.449438 0.000000
vt 0.449438 0.839903
vt 0.449438 0.839903
vt 0.460674 0.000000
vt 0.460674 0.839961
vt 0.460674 0.839961
vt 0.471910 0.000000
vt 0.471910 0.840039
vt 0.471910 0.840039
vt 0.483146 0.000000
vt 0.483146 0.840138
vt 0.483146 0.840138
vt 0.494382 0.000000
vt 0.494382 0.840259
vt 0.494382 0.840259
vt 0.505618 0.000000
vt 0.505618 0.840405
vt 0.505618 0.840405
vt 0.516854 0.000000
vt 0.516854 0.840576
vt 0.516854 0.840576
vt 0.528090 0.000000
vt 0.528090 0.840773
vt 0.539326 0.000000
vt 0.539326 0.840999
vt 0.528090 0.840773
vt 0.550562 0.000000
vt 0.550562 0.841254
vt 0.539326 0.840999
vt 0.561798 0.000000
vt 0.561798 0.839354
vt 0.550562 0.841254
vt 0.561798 0.839354
vt 0.573034 0.000000
vt 0.573034 0.839192
vt 0.573034 0.839192
vt 0.584270 0.000000
vt 0.584270 0.839044
vt 0.584270 0.839044
vt 0.595506 0.000000
vt 0.595506 0.838911
vt 0.595506 0.838911
vt 0.606742 0.000000
vt 0.606742 0.838792
vt 0.606742 0.838792
vt 0.617977 0.000000
vt 0.617977 0.838688
vt 0.617977 0.838688
vt 0.629214 0.000000
vt 0.629214 0.838598
vt 0.629214 0.838598
vt 0.640449 0.000000
vt 0.640449 0.838522
vt 0.651685 0.000000
vt 0.651685 0.838460
vt 0.651685 0.838460
vt 0.662921 0.000000
vt 0.662921 0.838412
vt 0.662921 0.838412
vt 0.674157 0.000000
vt 0.674157 0.838378
vt 0.674157 0.838378
vt 0.685393 0.000000
vt 0.685393 0.838357
vt 0.696629 0.000000
vt 0.696629 0.838351
vt 0.707865 0.000000
vt 0.707865 0.838378
vt 0.719101 0.000000
vt 0.719101 0.838459
vt 0.719101 0.838459
vt 0.730337 0.000000
vt 0.730337 0.838591
vt 0.730337 0.838591
vt 0.741573 0.000000
vt 0.741573 0.838771
vt 0.752809 0.000000
vt 0.752809 0.838997
vt 0.752809 0.838997
vt 0.764045 0.000000
vt 0.764045 0.839266
vt 0.775281 0.000000
vt 0.775281 0.839575
vt 0.764045 0.839266
vt 0.786517 0.000000
vt 0.786517 0.839922
vt 0.775281 0.839575
vt 0.797753 0.000000
vt 0.797753 0.840305
vt 0.786517 0.839922
vt 0.808989 0.000000
vt 0.808989 0.840720
vt 0.797753 0.840305
vt 0.820225 0.000000
vt 0.820225 0.841166
vt 0.808989 0.840720
vt 0.831461 0.000000
vt 0.831461 0.841640
vt 0.820225 0.841166
vt 0.842697 0.000000
vt 0.842697 0.842063
vt 0.831461 0.841640
vt 0.853933 0.000000
vt 0.853933 0.842481
vt 0.842697 0.842063
vt 0.865169 0.000000
vt 0.865168 0.842899
vt 0.853933 0.842481
vt 0.876405 0.000000
vt 0.876405 0.843322
vt 0.865169 0.842899
vt 0.887640 0.000000
vt 0.887640 0.843756
vt 0.876405 0.843322
vt 0.898876 0.000000
vt 0.898876 0.844207
vt 0.887640 0.843756
vt 0.910112 0.000000
vt 0.910112 0.844680
vt 0.921348 0.000000
vt 0.921348 0.845182
vt 0.910112 0.844681
vt 0.932584 0.000000
vt 0.932584 0.845718
vt 0.921348 0.845182
vt 0.943820 0.000000
vt 0.943820 0.846293
vt 0.932584 0.845718
vt 0.955056 0.000000
vt 0.955056 0.846913
vt 0.943820 0.846293
vt 0.966292 0.000000
vt 0.966292 0.847585
vt 0.955056 0.846914
vt 0.966292 0.847587
vt 0.977528 0.000000
vt 0.977528 0.847587
vt 0.988764 0.000000
vt 0.988764 0.849021
vt 0.977528 0.847585
vt 0.988764 0.849016
vt 1.000000 0.849016
s 0
usemtl Material.580
f 1/1/1 2/2/1 3/3/1
f 4/4/2 5/5/2 6/6/2
f 7/7/3 8/8/3 9/9/3
f 10/10/4 11/11/4 12/12/4
f 13/13/5 14/14/5 15/15/5
f 16/16/6 17/17/6 18/18/6
f 19/19/7 20/20/7 21/21/7
f 22/22/8 23/23/8 24/24/8
f 7/7/9 1/1/9 3/3/9 8/8/9
f 2/25/10 4/4/10 6/6/10 3/26/10
f 5/5/11 10/10/11 12/12/11 6/6/11
f 11/11/12 9/27/12 8/28/12 12/12/12
f 19/19/13 7/7/13 9/9/13 20/20/13
f 10/10/14 22/22/14 24/24/14 11/11/14
f 23/23/15 21/21/15 20/20/15 24/24/15
f 13/13/16 19/19/16 21/21/16 14/14/16
f 22/22/17 16/16/17 18/18/17 23/23/17
f 17/17/18 15/15/18 14/14/18 18/18/18
f 1/1/19 13/13/19 15/15/19 2/2/19
f 16/16/20 5/29/20 4/30/20 17/17/20
f 7/7/21 19/19/21 13/13/21 1/1/21
f 3/26/22 6/6/22 12/12/22 8/28/22
f 151/31/23 150/32/23 155/33/23 154/34/23 153/35/23 170/36/23 178/37/23 156/38/23 152/39/23 158/40/23 149/41/23 147/42/23 181/43/23 143/44/23 139/45/23 140/46/23 141/47/23 134/48/23 136/49/23 132/50/23 131/51/23 126/52/23 122/53/23 123/54/23 121/55/23 128/56/23 117/57/23 118/58/23 115/59/23 185/60/23 114/61/23 116/62/23 119/63/23 120/64/23 124/65/23 125/66/23 127/67/23 129/68/23 130/69/23 133/70/23 138/71/23 137/72/23 135/73/23 142/74/23 144/75/23 180/76/23 179/77/23 174/78/23 173/79/23 172/80/23 171/81/23 166/82/23 165/83/23 162/84/23 160/85/23 159/86/23 161/87/23 164/88/23 163/89/23 169/90/23 168/91/23 167/92/23 196/93/23 198/94/23 197/95/23 193/96/23 192/97/23 195/98/23 194/99/23 15/15/23 17/17/23 4/30/23 2/100/23 183/101/23 182/102/23 184/103/23 186/104/23 187/105/23 188/106/23 189/107/23 190/108/23 191/109/23 199/110/23 200/111/23 201/112/23 202/113/23 145/114/23 146/115/23 175/116/23 176/117/23 177/118/23 148/119/23 157/120/23
f 183/101/23 2/100/23 15/15/23 194/99/23
f 22/22/24 10/121/24 5/122/24 16/16/24
f 9/27/25 11/11/25 24/24/25 20/20/25
f 21/21/26 23/23/26 18/18/26 14/14/26
f 86/123/27 88/124/27 87/125/27
f 85/126/27 88/124/27 86/123/27
f 84/127/28 88/124/28 85/126/28
f 84/127/27 89/128/27 88/124/27
f 83/129/27 89/128/27 84/127/27
f 83/129/27 90/130/27 89/128/27
f 82/131/27 90/130/27 83/129/27
f 81/132/27 90/130/27 82/131/27
f 81/132/27 91/133/27 90/130/27
f 80/134/27 91/133/27 81/132/27
f 79/135/27 91/133/27 80/134/27
f 79/135/27 92/136/27 91/133/27
f 78/137/27 92/136/27 79/135/27
f 77/138/27 92/136/27 78/137/27
f 77/138/27 93/139/27 92/136/27
f 76/140/27 93/139/27 77/138/27
f 75/141/27 93/139/27 76/140/27
f 75/141/27 94/142/27 93/139/27
f 74/143/27 73/144/27 75/141/27
f 73/144/27 72/145/27 75/141/27
f 72/145/27 71/146/27 75/141/27
f 71/146/27 70/147/27 75/141/27
f 70/147/27 69/148/27 75/141/27
f 69/148/27 68/149/27 75/141/27
f 68/149/27 67/150/27 75/141/27
f 67/150/27 66/151/27 75/141/27
f 66/151/27 65/152/27 75/141/27
f 65/152/27 64/153/27 75/141/27
f 64/153/27 63/154/27 75/141/27
f 63/154/27 94/142/27 75/141/27
f 63/154/28 62/155/28 94/142/28
f 62/155/27 95/156/27 94/142/27
f 61/157/28 95/156/28 62/155/28
f 60/158/27 95/156/27 61/157/27
f 59/159/27 95/156/27 60/158/27
f 59/159/27 96/160/27 95/156/27
f 58/161/27 96/160/27 59/159/27
f 57/162/27 96/160/27 58/161/27
f 56/163/27 96/160/27 57/162/27
f 56/163/27 97/164/27 96/160/27
f 55/165/27 97/164/27 56/163/27
f 54/166/27 97/164/27 55/165/27
f 54/166/27 98/167/27 97/164/27
f 53/168/27 98/167/27 54/166/27
f 52/169/27 98/167/27 53/168/27
f 52/169/27 99/170/27 98/167/27
f 51/171/27 99/170/27 52/169/27
f 50/172/27 99/170/27 51/171/27
f 50/172/27 100/173/27 99/170/27
f 49/174/27 100/173/27 50/172/27
f 48/175/27 100/173/27 49/174/27
f 48/175/27 101/176/27 100/173/27
f 47/177/27 101/176/27 48/175/27
f 46/178/27 101/176/27 47/177/27
f 46/178/27 102/179/27 101/176/27
f 45/180/27 102/179/27 46/178/27
f 44/181/27 102/179/27 45/180/27
f 44/181/27 103/182/27 102/179/27
f 43/183/27 103/182/27 44/181/27
f 42/184/27 103/182/27 43/183/27
f 41/185/27 103/182/27 42/184/27
f 41/185/27 104/186/27 103/182/27
f 40/187/27 104/186/27 41/185/27
f 39/188/27 104/186/27 40/187/27
f 39/188/27 105/189/27 104/186/27
f 38/190/27 105/189/27 39/188/27
f 37/191/27 105/189/27 38/190/27
f 37/191/27 106/192/27 105/189/27
f 36/193/27 106/192/27 37/191/27
f 36/193/27 107/194/27 106/192/27
f 35/195/27 107/194/27 36/193/27
f 35/195/27 108/196/27 107/194/27
f 34/197/27 108/196/27 35/195/27
f 33/198/27 108/196/27 34/197/27
f 33/198/27 109/199/27 108/196/27
f 32/200/27 109/199/27 33/198/27
f 32/200/27 110/201/27 109/199/27
f 31/202/27 110/201/27 32/200/27
f 31/202/27 111/203/27 110/201/27
f 30/204/27 111/203/27 31/202/27
f 29/205/27 111/203/27 30/204/27
f 29/205/27 112/206/27 111/203/27
f 29/205/27 113/207/27 112/206/27
f 28/208/27 113/207/27 29/205/27
f 27/209/27 113/207/27 28/208/27
f 26/210/27 113/207/27 27/209/27
f 25/211/27 113/207/27 26/210/27
s 1
f 25/211/29 26/212/30 182/213/31 183/214/32
f 26/212/30 27/215/33 184/216/33 182/213/31
f 27/215/33 28/217/34 186/218/34 184/219/33
f 28/217/34 29/220/35 187/221/35 186/222/34
f 29/220/35 30/223/36 188/224/36 187/225/35
f 30/223/36 31/226/37 189/227/37 188/228/36
f 31/226/37 32/229/38 190/230/38 189/231/37
f 32/229/38 33/232/39 191/233/39 190/230/38
f 33/232/39 34/234/40 199/235/40 191/233/39
f 34/234/40 35/236/41 200/237/41 199/238/40
f 35/236/41 36/239/42 201/240/42 200/237/41
f 36/239/42 37/241/43 202/242/44 201/240/42
f 37/241/43 38/243/45 145/244/46 202/245/44
f 38/243/45 39/246/47 146/247/47 145/248/46
f 39/246/47 40/249/48 175/250/48 146/251/47
f 40/249/48 41/252/49 176/253/50 175/250/48
f 41/252/49 42/254/51 177/255/52 176/256/50
f 42/254/51 43/257/53 148/258/54 177/259/52
f 43/257/53 44/260/55 157/261/56 148/258/54
f 44/260/55 45/262/57 151/263/58 157/264/56
f 45/262/57 46/265/59 150/266/60 151/267/58
f 46/265/59 47/268/61 155/269/62 150/266/60
f 47/268/61 48/270/63 154/271/64 155/272/62
f 48/270/63 49/273/65 153/274/66 154/275/64
f 49/273/65 50/276/67 170/277/68 153/278/66
f 50/276/67 51/279/69 178/280/70 170/277/68
f 51/279/69 52/281/71 156/282/72 178/280/70
f 52/281/71 53/283/73 152/284/74 156/285/72
f 53/283/73 54/286/75 158/287/76 152/288/74
f 54/286/75 55/289/77 149/290/78 158/287/76
f 55/289/77 56/291/79 147/292/80 149/290/78
f 147/293/80 56/291/79 57/294/81 181/295/82
f 181/295/82 57/294/81 58/296/83 143/297/84
f 143/298/84 58/296/83 59/299/85 139/300/86
f 139/300/86 59/299/85 60/301/87 140/302/88
f 140/303/88 60/301/87 61/304/89 141/305/89
f 141/306/89 61/304/89 62/307/90 134/308/90
f 134/308/90 62/307/90 63/309/91 136/310/92
f 136/311/92 63/309/91 64/312/93 132/313/94
f 132/314/94 64/312/93 65/315/95 131/316/96
f 131/317/96 65/315/95 66/318/97 126/319/97
f 126/320/97 66/318/97 67/321/98 122/322/99
f 122/323/99 67/321/98 68/324/100 123/325/101
f 123/326/101 68/324/100 69/327/102 121/328/103
f 121/329/103 69/327/102 70/330/104 128/331/105
f 128/332/105 70/330/104 71/333/106 117/334/107
f 117/335/107 71/333/106 72/336/108 118/337/109
f 72/336/108 73/338/110 115/339/111 118/340/109
f 73/338/110 74/341/112 185/342/113 115/343/111
f 74/341/112 75/344/114 114/345/115 185/346/113
f 114/347/115 75/344/114 76/348/116 116/349/116
f 116/350/116 76/348/116 77/351/117 119/352/117
f 119/353/117 77/351/117 78/354/118 120/355/118
f 120/356/118 78/354/118 79/357/119 124/358/120
f 124/359/120 79/357/119 80/360/121 125/361/122
f 125/362/122 80/360/121 81/363/123 127/364/124
f 127/365/124 81/363/123 82/366/125 129/367/126
f 129/367/126 82/366/125 83/368/127 130/369/127
f 130/370/127 83/368/127 84/371/128 133/372/128
f 133/373/128 84/371/128 85/374/129 138/375/129
f 138/376/129 85/374/129 86/377/130 137/378/130
f 137/378/130 86/377/130 87/379/131 135/380/131
f 135/380/131 87/379/131 88/381/132 142/382/133
f 142/382/133 88/381/132 89/383/134 144/384/135
f 144/385/135 89/383/134 90/386/136 180/387/137
f 180/388/137 90/386/136 91/389/138 179/390/139
f 179/390/139 91/389/138 92/391/140 174/392/141
f 174/393/141 92/391/140 93/394/142 173/395/143
f 93/394/142 94/396/144 172/397/145 173/398/143
f 94/396/144 95/399/146 171/400/147 172/401/145
f 95/399/146 96/402/148 166/403/149 171/404/147
f 96/402/148 97/405/150 165/406/151 166/407/149
f 97/405/150 98/408/152 162/409/153 165/410/151
f 98/408/152 99/411/154 160/412/155 162/413/153
f 99/411/154 100/414/156 159/415/157 160/416/155
f 100/414/156 101/417/158 161/418/159 159/419/157
f 101/417/158 102/420/160 164/421/161 161/422/159
f 102/420/160 103/423/162 163/424/163 164/425/161
f 103/423/162 104/426/164 169/427/165 163/428/163
f 104/426/164 105/429/166 168/430/167 169/431/165
f 105/429/166 106/432/168 167/433/169 168/430/167
f 106/432/168 107/434/170 196/435/170 167/436/169
f 107/434/170 108/437/171 198/438/171 196/439/170
f 108/437/171 109/440/172 197/441/172 198/442/171
f 109/440/172 110/443/173 193/444/173 197/445/172
f 110/443/173 111/446/174 192/447/175 193/448/173
f 192/449/175 111/446/174 112/450/176 195/451/177
f 112/450/176 113/452/178 194/453/179 195/454/177
f 194/455/179 113/452/178 25/207/29 183/456/32
