# Blender 4.5.3 LTS
# www.blender.org
mtllib Button1.mtl
o Cube
v -0.689341 1.464610 0.342700
v -0.689341 1.476975 0.355064
v -0.701705 1.476967 0.342701
v -0.689350 1.608184 0.355046
v -0.689351 1.620548 0.342682
v -0.627062 1.498608 0.312102
v -0.701713 1.608228 0.342701
v -0.627062 1.586638 0.312646
v -0.689350 1.464582 0.211417
v -0.614412 1.586638 0.312646
v -0.701713 1.476946 0.211417
v -0.614412 1.498608 0.312102
v -0.689351 1.476944 0.199053
v -0.689351 1.620592 0.211417
v -0.689351 1.608228 0.199053
v -0.701714 1.608228 0.211417
v -0.558066 1.464673 0.342690
v -0.545706 1.477044 0.342671
v -0.558069 1.477045 0.355035
v -0.558103 1.620122 0.342477
v -0.558103 1.607714 0.354859
v -0.545736 1.607714 0.342476
v -0.558066 1.464589 0.211417
v -0.558066 1.476944 0.199053
v -0.545703 1.476953 0.211417
v -0.558069 1.620548 0.211417
v -0.545706 1.608184 0.211417
v -0.558066 1.608228 0.199053
v -0.627062 1.586377 0.354986
v -0.614412 1.586377 0.354968
v -0.627062 1.498342 0.355047
v -0.614412 1.498342 0.355045
vn -0.5771 -0.5775 0.5775
vn -0.5754 0.5783 0.5784
vn -0.5774 -0.5774 -0.5773
vn -0.5774 0.5774 -0.5774
vn 0.5778 -0.5764 0.5778
vn 0.5783 0.5763 0.5775
vn 0.5775 -0.5775 -0.5771
vn 0.5781 0.5781 -0.5759
vn -0.7070 -0.7072 0.0002
vn -0.7068 -0.0000 0.7074
vn -0.7065 0.7077 0.0001
vn -0.7071 -0.0000 -0.7071
vn -0.0000 -0.7073 -0.7070
vn 0.0001 0.7077 -0.7065
vn 0.7072 -0.0000 -0.7071
vn 0.7072 -0.7070 0.0005
vn 0.7077 0.7065 0.0026
vn 0.7074 0.0012 0.7069
vn 0.0005 -0.7067 0.7075
vn 0.0035 0.7067 0.7075
vn 0.0003 -1.0000 0.0004
vn -1.0000 -0.0000 -0.0000
vn 0.0007 0.0005 1.0000
vn 0.0011 0.0012 1.0000
vn 0.0018 1.0000 0.0018
vn -0.0000 -0.0000 -1.0000
vn 1.0000 0.0001 0.0001
vn -0.0000 -0.0062 1.0000
vn 0.7071 0.7071 0.0044
vn 0.7071 -0.7071 -0.0044
vn 0.7090 -0.7052 -0.0044
vn 0.7056 0.7086 0.0044
vn -0.7071 -0.7071 -0.0044
vn -0.7084 -0.7058 -0.0044
vn -0.7071 0.7071 0.0044
vn -0.7055 0.7087 0.0044
vt 0.144813 0.730188
vt 0.144823 0.750000
vt 0.125000 0.730191
vt 0.605113 0.000002
vt 0.624996 0.019843
vt 0.605186 0.019812
vt 0.144812 0.519812
vt 0.125000 0.519815
vt 0.144812 0.500000
vt 0.625000 0.249445
vt 0.605188 0.269693
vt 0.605187 0.230188
vt 0.355187 0.730187
vt 0.394760 0.730181
vt 0.390482 0.767618
vt 0.642621 0.734312
vt 0.605120 0.769696
vt 0.605120 0.730163
vt 0.355188 0.519813
vt 0.390432 0.482378
vt 0.394709 0.519819
vt 0.642622 0.515452
vt 0.605171 0.519717
vt 0.605188 0.480188
vt 0.394824 0.000000
vt 0.394814 0.019812
vt 0.394812 0.269812
vt 0.394813 0.230188
vt 0.625000 0.980152
vt 0.605168 0.980184
vt 0.570146 0.859821
vt 0.394832 0.980186
vt 0.427000 0.859034
vt 0.427373 0.879496
vt 0.570134 0.880131
vt 0.855187 0.519818
vt 0.855184 0.730182
vt 0.000000 0.000000
vt 0.666667 0.000000
vt 0.333333 0.000000
vt 1.000000 0.000000
vt 0.250000 0.000000
vt 0.250000 0.820052
vt 0.000000 0.831771
vt 0.250000 0.820052
vt 0.500000 0.000000
vt 0.500000 0.819702
vt 0.750000 0.000000
vt 0.750000 0.831718
vt 0.500000 0.819702
vt 0.750000 0.831725
vt 1.000000 0.831769
s 0
usemtl Material.580
f 1/1/1 2/2/1 3/3/1
f 4/4/2 5/5/2 7/6/2
f 9/7/3 11/8/3 13/9/3
f 14/10/4 15/11/4 16/12/4
f 17/13/5 18/14/5 19/15/5
f 20/16/6 21/17/6 22/18/6
f 23/19/7 24/20/7 25/21/7
f 26/22/8 27/23/8 28/24/8
f 9/7/9 1/1/9 3/3/9 11/8/9
f 2/25/10 4/4/10 7/6/10 3/26/10
f 5/5/11 14/10/11 16/12/11 7/6/11
f 15/11/12 13/27/12 11/28/12 16/12/12
f 23/19/13 9/7/13 13/9/13 24/20/13
f 14/10/14 26/22/14 28/24/14 15/11/14
f 27/23/15 25/21/15 24/20/15 28/24/15
f 17/13/16 23/19/16 25/21/16 18/14/16
f 26/22/17 20/16/17 22/18/17 27/23/17
f 21/17/18 19/15/18 18/14/18 22/18/18
f 1/1/19 17/13/19 19/15/19 2/2/19
f 20/16/20 5/29/20 4/30/20 21/17/20
f 9/7/21 23/19/21 17/13/21 1/1/21
f 3/26/22 7/6/22 16/12/22 11/28/22
f 30/31/23 21/17/23 4/30/23 2/32/23 19/15/23 32/33/23 31/34/23 29/35/23
f 32/33/24 19/15/24 21/17/24 30/31/24
f 26/22/25 14/36/25 5/37/25 20/16/25
f 13/27/26 15/11/26 28/24/26 24/20/26
f 25/21/27 27/23/27 22/18/27 18/14/27
f 6/38/28 10/39/28 8/40/28
f 6/38/28 12/41/28 10/39/28
s 1
f 6/38/29 8/42/30 29/43/31 31/44/32
f 29/45/31 8/42/30 10/46/33 30/47/34
f 10/46/33 12/48/35 32/49/36 30/50/34
f 32/51/36 12/48/35 6/41/29 31/52/32
