# Blender 4.5.3 LTS
# www.blender.org
mtllib ButtonMix.mtl
o Cube.002
v -0.689881 1.258698 0.343231
v -0.689881 1.270532 0.355065
v -0.701714 1.270532 0.343231
v -0.689881 1.402876 0.355065
v -0.689881 1.414710 0.343231
v -0.701714 1.402876 0.343231
v -0.689881 1.258698 0.210887
v -0.701714 1.270532 0.210887
v -0.689881 1.270532 0.199053
v -0.689881 1.414710 0.210887
v -0.689881 1.402876 0.199053
v -0.701714 1.402876 0.210887
v -0.557536 1.258698 0.343231
v -0.545703 1.270532 0.343231
v -0.557536 1.270532 0.355065
v -0.557536 1.414710 0.343231
v -0.557536 1.402876 0.355065
v -0.545703 1.402876 0.343231
v -0.557536 1.258698 0.210887
v -0.557536 1.270532 0.199053
v -0.545703 1.270532 0.210887
v -0.557536 1.414710 0.210887
v -0.545703 1.402876 0.210887
v -0.557536 1.402876 0.199053
v -0.565084 1.316538 0.312233
v -0.574064 1.316538 0.312233
v -0.585171 1.329221 0.312311
v -0.595648 1.316538 0.312233
v -0.604471 1.316538 0.312233
v -0.589583 1.334499 0.312344
v -0.604471 1.351908 0.312451
v -0.595648 1.351908 0.312451
v -0.585171 1.339777 0.312376
v -0.575088 1.351908 0.312451
v -0.566108 1.351908 0.312451
v -0.580681 1.334499 0.312344
v -0.613620 1.358485 0.312492
v -0.614160 1.358597 0.312493
v -0.614674 1.358778 0.312494
v -0.615155 1.359021 0.312495
v -0.615600 1.359323 0.312497
v -0.616002 1.359678 0.312499
v -0.616356 1.360080 0.312502
v -0.616658 1.360524 0.312505
v -0.616902 1.361006 0.312508
v -0.617082 1.361519 0.312511
v -0.617194 1.362060 0.312514
v -0.617233 1.362622 0.312518
v -0.617194 1.363184 0.312521
v -0.617082 1.363724 0.312524
v -0.616902 1.364238 0.312528
v -0.616658 1.364720 0.312531
v -0.616356 1.365164 0.312533
v -0.616002 1.365566 0.312536
v -0.615600 1.365921 0.312538
v -0.615155 1.366222 0.312540
v -0.614674 1.366466 0.312541
v -0.614160 1.366646 0.312542
v -0.613620 1.366758 0.312543
v -0.613058 1.366797 0.312543
v -0.612496 1.366758 0.312543
v -0.611955 1.366646 0.312542
v -0.611442 1.366466 0.312541
v -0.610960 1.366222 0.312540
v -0.610516 1.365921 0.312538
v -0.610114 1.365566 0.312536
v -0.609759 1.365164 0.312533
v -0.609457 1.364720 0.312531
v -0.609214 1.364238 0.312528
v -0.609033 1.363724 0.312524
v -0.608921 1.363184 0.312521
v -0.608883 1.362622 0.312518
v -0.608921 1.362060 0.312514
v -0.609033 1.361519 0.312511
v -0.609214 1.361006 0.312508
v -0.609457 1.360524 0.312505
v -0.609759 1.360080 0.312502
v -0.610114 1.359678 0.312499
v -0.610516 1.359323 0.312497
v -0.610960 1.359021 0.312495
v -0.611442 1.358778 0.312494
v -0.611955 1.358597 0.312493
v -0.612496 1.358485 0.312492
v -0.613058 1.358447 0.312492
v -0.616603 1.316538 0.312233
v -0.616603 1.351908 0.312451
v -0.609592 1.351908 0.312451
v -0.609592 1.316538 0.312233
v -0.670800 1.347260 0.312423
v -0.669899 1.348127 0.312428
v -0.669007 1.348915 0.312433
v -0.668124 1.349626 0.312437
v -0.667249 1.350260 0.312441
v -0.666382 1.350817 0.312445
v -0.665522 1.351298 0.312448
v -0.664669 1.351703 0.312450
v -0.663821 1.352034 0.312452
v -0.662979 1.352290 0.312454
v -0.662142 1.352472 0.312455
v -0.661309 1.352581 0.312456
v -0.660480 1.352617 0.312456
v -0.659375 1.352571 0.312456
v -0.658304 1.352435 0.312455
v -0.657269 1.352207 0.312453
v -0.656273 1.351891 0.312451
v -0.655318 1.351485 0.312449
v -0.654405 1.350992 0.312446
v -0.653536 1.350412 0.312442
v -0.652714 1.349746 0.312438
v -0.651940 1.348995 0.312433
v -0.651215 1.348159 0.312428
v -0.650543 1.347239 0.312423
v -0.649925 1.346236 0.312416
v -0.649143 1.347090 0.312422
v -0.648333 1.347913 0.312427
v -0.647491 1.348696 0.312432
v -0.646616 1.349431 0.312436
v -0.645705 1.350111 0.312440
v -0.644755 1.350727 0.312444
v -0.643764 1.351270 0.312447
v -0.642730 1.351733 0.312450
v -0.641649 1.352108 0.312453
v -0.640521 1.352385 0.312454
v -0.639341 1.352558 0.312455
v -0.638108 1.352617 0.312456
v -0.636371 1.352504 0.312455
v -0.634750 1.352170 0.312453
v -0.633250 1.351625 0.312450
v -0.631879 1.350878 0.312445
v -0.630644 1.349939 0.312439
v -0.629551 1.348816 0.312432
v -0.628608 1.347520 0.312424
v -0.627821 1.346058 0.312415
v -0.627197 1.344442 0.312405
v -0.626742 1.342679 0.312394
v -0.626465 1.340780 0.312383
v -0.626371 1.338753 0.312370
v -0.626371 1.316538 0.312233
v -0.633382 1.316538 0.312233
v -0.633382 1.338437 0.312368
v -0.633449 1.339725 0.312376
v -0.633645 1.340910 0.312384
v -0.633961 1.341990 0.312390
v -0.634388 1.342963 0.312396
v -0.634917 1.343827 0.312402
v -0.635538 1.344582 0.312406
v -0.636243 1.345225 0.312410
v -0.637023 1.345755 0.312413
v -0.637868 1.346170 0.312416
v -0.638770 1.346468 0.312418
v -0.639720 1.346649 0.312419
v -0.640708 1.346709 0.312419
v -0.641295 1.346687 0.312419
v -0.641910 1.346584 0.312419
v -0.642548 1.346406 0.312417
v -0.643205 1.346158 0.312416
v -0.643877 1.345843 0.312414
v -0.644558 1.345468 0.312412
v -0.645244 1.345037 0.312409
v -0.645930 1.344556 0.312406
v -0.646612 1.344028 0.312403
v -0.647285 1.343459 0.312399
v -0.647944 1.342855 0.312396
v -0.648585 1.342219 0.312392
v -0.648585 1.316538 0.312233
v -0.655596 1.316538 0.312233
v -0.655596 1.338516 0.312369
v -0.655656 1.339885 0.312377
v -0.655828 1.341120 0.312385
v -0.656106 1.342222 0.312392
v -0.656480 1.343196 0.312398
v -0.656944 1.344044 0.312403
v -0.657487 1.344769 0.312407
v -0.658103 1.345374 0.312411
v -0.658782 1.345863 0.312414
v -0.659518 1.346238 0.312416
v -0.660301 1.346501 0.312418
v -0.661124 1.346658 0.312419
v -0.661977 1.346709 0.312419
v -0.662840 1.346685 0.312419
v -0.663659 1.346612 0.312419
v -0.664441 1.346484 0.312418
v -0.665192 1.346298 0.312417
v -0.665918 1.346049 0.312415
v -0.666625 1.345734 0.312413
v -0.667319 1.345349 0.312411
v -0.668005 1.344888 0.312408
v -0.668690 1.344349 0.312405
v -0.669381 1.343727 0.312401
v -0.670082 1.343019 0.312397
v -0.670800 1.342219 0.312392
v -0.670800 1.316538 0.312233
v -0.677811 1.316538 0.312233
v -0.677811 1.351908 0.312451
v -0.670800 1.351908 0.312451
v -0.634750 1.351907 0.355065
v -0.636371 1.352241 0.355065
v -0.638108 1.352354 0.355065
v -0.631879 1.350615 0.355065
v -0.628608 1.347256 0.355065
v -0.629551 1.348553 0.355065
v -0.630644 1.349676 0.355065
v -0.633250 1.351362 0.355065
v -0.627197 1.344178 0.355065
v -0.626465 1.340516 0.355065
v -0.626742 1.342415 0.355065
v -0.617194 1.362921 0.355065
v -0.617082 1.361256 0.355065
v -0.617194 1.361797 0.355065
v -0.617082 1.363461 0.355065
v -0.617233 1.362359 0.355065
v -0.627821 1.345795 0.355065
v -0.616658 1.364457 0.355065
v -0.616356 1.359817 0.355065
v -0.616002 1.359415 0.355065
v -0.616002 1.365303 0.355065
v -0.616603 1.351645 0.355065
v -0.616658 1.360261 0.355065
v -0.616356 1.364901 0.355065
v -0.615155 1.358758 0.355065
v -0.615155 1.365960 0.355065
v -0.614160 1.366384 0.355065
v -0.613620 1.358222 0.355065
v -0.614160 1.358334 0.355065
v -0.613620 1.366496 0.355065
v -0.615408 1.351645 0.355065
v -0.614674 1.358515 0.355065
v -0.614674 1.366203 0.355065
v -0.615600 1.359060 0.355065
v -0.615600 1.365658 0.355065
v -0.616902 1.360743 0.355065
v -0.616902 1.363975 0.355065
v -0.612496 1.358222 0.355065
v -0.612496 1.366496 0.355065
v -0.610960 1.365960 0.355065
v -0.611442 1.358515 0.355065
v -0.611442 1.366203 0.355065
v -0.611955 1.358334 0.355065
v -0.611955 1.366384 0.355065
v -0.610516 1.359060 0.355065
v -0.610114 1.359415 0.355065
v -0.610114 1.365303 0.355065
v -0.609457 1.360261 0.355065
v -0.609457 1.364457 0.355065
v -0.609592 1.351645 0.355065
v -0.609759 1.359817 0.355065
v -0.609759 1.364901 0.355065
v -0.610960 1.358758 0.355065
v -0.610516 1.365658 0.355065
v -0.609033 1.361256 0.355065
v -0.609033 1.363461 0.355065
v -0.608883 1.362359 0.355065
v -0.595648 1.316273 0.355065
v -0.609214 1.360743 0.355065
v -0.608921 1.361797 0.355065
v -0.608921 1.362921 0.355065
v -0.580681 1.334235 0.355065
v -0.585171 1.328957 0.355065
v -0.585171 1.339513 0.355065
v -0.589583 1.334235 0.355065
v -0.575088 1.351645 0.355065
v -0.565084 1.316273 0.355065
v -0.566108 1.351645 0.355065
v -0.574064 1.316273 0.355065
v -0.595648 1.351645 0.355065
v -0.609214 1.363975 0.355065
v -0.604471 1.351645 0.355065
v -0.613058 1.366534 0.355065
v -0.613058 1.358184 0.355065
v -0.677811 1.316273 0.355065
v -0.677811 1.351645 0.355065
v -0.670800 1.316273 0.355065
v -0.670800 1.341955 0.355065
v -0.670800 1.346997 0.355065
v -0.669381 1.343464 0.355065
v -0.670082 1.342755 0.355065
v -0.668690 1.344086 0.355065
v -0.669899 1.347864 0.355065
v -0.669007 1.348652 0.355065
v -0.668124 1.349363 0.355065
v -0.670800 1.351645 0.355065
v -0.668005 1.344625 0.355065
v -0.666625 1.345471 0.355065
v -0.667319 1.345085 0.355065
v -0.664441 1.346220 0.355065
v -0.665192 1.346034 0.355065
v -0.665522 1.351035 0.355065
v -0.663659 1.346348 0.355065
v -0.664669 1.351440 0.355065
v -0.665918 1.345786 0.355065
v -0.667249 1.349996 0.355065
v -0.666382 1.350554 0.355065
v -0.663821 1.351771 0.355065
v -0.662979 1.352027 0.355065
v -0.661124 1.346394 0.355065
v -0.661977 1.346446 0.355065
v -0.661309 1.352318 0.355065
v -0.662142 1.352209 0.355065
v -0.660301 1.346238 0.355065
v -0.658782 1.345599 0.355065
v -0.659518 1.345974 0.355065
v -0.658304 1.352171 0.355065
v -0.659375 1.352308 0.355065
v -0.660480 1.352354 0.355065
v -0.657487 1.344506 0.355065
v -0.656480 1.342933 0.355065
v -0.656944 1.343781 0.355065
v -0.655828 1.340856 0.355065
v -0.655656 1.339622 0.355065
v -0.656106 1.341959 0.355065
v -0.653536 1.350149 0.355065
v -0.658103 1.345111 0.355065
v -0.662840 1.346422 0.355065
v -0.654405 1.350729 0.355065
v -0.655318 1.351222 0.355065
v -0.656273 1.351627 0.355065
v -0.657269 1.351944 0.355065
v -0.655596 1.316273 0.355065
v -0.655596 1.338253 0.355065
v -0.649925 1.345973 0.355065
v -0.647285 1.343196 0.355065
v -0.647944 1.342591 0.355065
v -0.648585 1.341955 0.355065
v -0.649143 1.346827 0.355065
v -0.650543 1.346976 0.355065
v -0.648333 1.347649 0.355065
v -0.651215 1.347895 0.355065
v -0.647491 1.348432 0.355065
v -0.651940 1.348731 0.355065
v -0.643877 1.345580 0.355065
v -0.642548 1.346143 0.355065
v -0.643205 1.345894 0.355065
v -0.643764 1.351007 0.355065
v -0.641910 1.346321 0.355065
v -0.642730 1.351470 0.355065
v -0.644558 1.345205 0.355065
v -0.646616 1.349168 0.355065
v -0.645705 1.349848 0.355065
v -0.644755 1.350463 0.355065
v -0.645930 1.344292 0.355065
v -0.646612 1.343765 0.355065
v -0.645244 1.344774 0.355065
v -0.652714 1.349483 0.355065
v -0.641295 1.346423 0.355065
v -0.641649 1.351844 0.355065
v -0.640708 1.346446 0.355065
v -0.640521 1.352122 0.355065
v -0.639341 1.352295 0.355065
v -0.639720 1.346385 0.355065
v -0.638770 1.346205 0.355065
v -0.637868 1.345906 0.355065
v -0.636243 1.344962 0.355065
v -0.634917 1.343564 0.355065
v -0.635538 1.344319 0.355065
v -0.637023 1.345491 0.355065
v -0.633645 1.340647 0.355065
v -0.633961 1.341726 0.355065
v -0.633382 1.316273 0.355065
v -0.633449 1.339462 0.355065
v -0.634388 1.342699 0.355065
v -0.616603 1.316273 0.355065
v -0.626371 1.316273 0.355065
v -0.626371 1.338489 0.355065
v -0.609592 1.316273 0.355065
v -0.604471 1.316273 0.355065
v -0.633382 1.338174 0.355065
v -0.648585 1.316273 0.355065
vn -0.5774 -0.5774 0.5774
vn -0.5774 0.5774 0.5774
vn -0.5774 -0.5774 -0.5774
vn -0.5774 0.5774 -0.5774
vn 0.5774 -0.5774 0.5774
vn 0.5774 0.5774 0.5774
vn 0.5774 -0.5774 -0.5774
vn 0.5774 0.5774 -0.5774
vn -0.7071 -0.7071 -0.0000
vn -0.7071 -0.0000 0.7071
vn -0.7071 0.7071 -0.0000
vn -0.7071 -0.0000 -0.7071
vn -0.0000 -0.7071 -0.7071
vn -0.0000 0.7071 -0.7071
vn 0.7071 -0.0000 -0.7071
vn 0.7071 -0.7071 -0.0000
vn 0.7071 0.7071 -0.0000
vn 0.7071 -0.0000 0.7071
vn -0.0000 -0.7071 0.7071
vn -0.0000 0.7071 0.7071
vn -0.0000 -1.0000 -0.0000
vn -1.0000 -0.0000 -0.0000
vn -0.0000 -0.0000 1.0000
vn -0.0000 1.0000 -0.0000
vn -0.0000 -0.0000 -1.0000
vn 1.0000 -0.0000 -0.0000
vn -0.0000 -0.0062 1.0000
vn -0.0000 -0.0063 1.0000
vn -0.0000 -0.0061 1.0000
vn -0.0000 -0.0058 1.0000
vn -0.0000 -0.0060 1.0000
vn -0.3904 -0.9206 -0.0057
vn -0.3917 -0.9201 -0.0057
vn 0.6779 -0.7351 -0.0045
vn 0.6780 -0.7351 -0.0045
vn 0.6449 -0.7643 -0.0047
vn 0.6070 -0.7947 -0.0049
vn 0.5637 -0.8259 -0.0051
vn 0.5638 -0.8259 -0.0051
vn 0.5145 -0.8575 -0.0053
vn 0.5146 -0.8574 -0.0053
vn 0.4589 -0.8885 -0.0055
vn 0.3965 -0.9180 -0.0057
vn 0.3274 -0.9449 -0.0058
vn 0.3275 -0.9448 -0.0058
vn 0.2521 -0.9677 -0.0060
vn 0.1714 -0.9852 -0.0061
vn 0.0868 -0.9962 -0.0062
vn 0.0011 -1.0000 -0.0062
vn -0.0842 -0.9964 -0.0062
vn -0.1708 -0.9853 -0.0061
vn -0.2590 -0.9659 -0.0060
vn -0.2591 -0.9658 -0.0060
vn -0.3471 -0.9378 -0.0058
vn -0.3472 -0.9378 -0.0058
vn -0.4333 -0.9012 -0.0056
vn -0.4334 -0.9012 -0.0056
vn -0.5158 -0.8567 -0.0053
vn -0.5159 -0.8566 -0.0053
vn -0.5930 -0.8052 -0.0050
vn -0.5931 -0.8051 -0.0050
vn -0.6636 -0.7481 -0.0046
vn -0.6637 -0.7480 -0.0046
vn -0.7268 -0.6868 -0.0042
vn -0.7269 -0.6867 -0.0042
vn -0.7823 -0.6230 -0.0038
vn -0.7823 -0.6229 -0.0038
vn -0.8299 -0.5579 -0.0034
vn -0.8299 -0.5578 -0.0034
vn -0.0942 -0.9955 -0.0061
vn -0.0939 -0.9956 -0.0061
vn 0.7251 -0.6886 -0.0043
vn 0.6970 -0.7171 -0.0044
vn 0.6970 -0.7170 -0.0044
vn 0.6625 -0.7490 -0.0046
vn 0.6626 -0.7490 -0.0046
vn 0.6209 -0.7839 -0.0048
vn 0.6210 -0.7838 -0.0048
vn 0.5712 -0.8208 -0.0051
vn 0.5713 -0.8207 -0.0051
vn 0.5128 -0.8585 -0.0053
vn 0.5129 -0.8585 -0.0053
vn 0.4451 -0.8954 -0.0055
vn 0.4452 -0.8954 -0.0055
vn 0.3684 -0.9296 -0.0057
vn 0.3685 -0.9296 -0.0057
vn 0.2835 -0.9590 -0.0059
vn 0.2835 -0.9589 -0.0059
vn 0.1920 -0.9814 -0.0061
vn 0.1921 -0.9814 -0.0061
vn 0.0965 -0.9953 -0.0061
vn 0.0966 -0.9953 -0.0061
vn -0.0085 -0.9999 -0.0062
vn -0.1337 -0.9910 -0.0061
vn -0.2723 -0.9622 -0.0059
vn -0.2724 -0.9622 -0.0059
vn -0.4111 -0.9116 -0.0056
vn -0.4112 -0.9115 -0.0056
vn -0.5434 -0.8394 -0.0052
vn -0.5436 -0.8393 -0.0052
vn -0.6628 -0.7488 -0.0046
vn -0.6630 -0.7486 -0.0046
vn -0.7646 -0.6445 -0.0040
vn -0.7647 -0.6444 -0.0040
vn -0.8464 -0.5325 -0.0033
vn -0.8466 -0.5323 -0.0033
vn -0.9084 -0.4180 -0.0026
vn -0.9085 -0.4178 -0.0026
vn -0.9522 -0.3054 -0.0019
vn -0.9523 -0.3052 -0.0019
vn -0.9803 -0.1974 -0.0012
vn -0.9804 -0.1972 -0.0012
vn -0.9954 -0.0956 -0.0006
vn -0.9954 -0.0954 -0.0006
vn -0.9997 -0.0232 -0.0001
vn -0.9997 -0.0231 -0.0001
vn -0.7071 0.7071 0.0044
vn -0.7057 0.7085 0.0044
vn 0.7071 0.7071 0.0044
vn 0.7057 0.7085 0.0044
vn 0.9997 0.0261 0.0002
vn 0.9997 0.0260 0.0002
vn 0.9941 0.1080 0.0007
vn 0.9942 0.1078 0.0007
vn 0.9749 0.2226 0.0014
vn 0.9750 0.2224 0.0014
vn 0.9397 0.3420 0.0021
vn 0.9398 0.3418 0.0021
vn 0.8865 0.4627 0.0029
vn 0.8866 0.4625 0.0029
vn 0.8146 0.5800 0.0036
vn 0.8147 0.5798 0.0036
vn 0.7248 0.6889 0.0043
vn 0.7249 0.6888 0.0043
vn 0.6196 0.7849 0.0048
vn 0.6197 0.7848 0.0048
vn 0.5026 0.8645 0.0053
vn 0.5027 0.8644 0.0053
vn 0.3783 0.9257 0.0057
vn 0.3784 0.9256 0.0057
vn 0.2509 0.9680 0.0060
vn 0.1240 0.9923 0.0061
vn 0.1241 0.9923 0.0061
vn 0.0117 0.9999 0.0062
vn -0.1013 0.9948 0.0061
vn -0.1014 0.9948 0.0061
vn -0.2169 0.9762 0.0060
vn -0.3115 0.9502 0.0059
vn -0.3116 0.9502 0.0059
vn -0.3891 0.9212 0.0057
vn -0.3892 0.9211 0.0057
vn -0.4533 0.8913 0.0055
vn -0.4534 0.8913 0.0055
vn -0.5073 0.8618 0.0053
vn -0.5073 0.8617 0.0053
vn -0.5533 0.8330 0.0051
vn -0.5534 0.8329 0.0051
vn -0.5934 0.8049 0.0050
vn -0.6289 0.7775 0.0048
vn -0.6609 0.7505 0.0046
vn -0.6609 0.7504 0.0046
vn -0.6903 0.7235 0.0045
vn -0.6904 0.7235 0.0045
vn -0.9231 0.3845 0.0024
vn -0.9237 0.3832 0.0024
vn 0.9998 0.0217 0.0001
vn 0.9998 0.0216 0.0001
vn 0.9959 0.0910 0.0006
vn 0.9959 0.0908 0.0006
vn 0.9815 0.1916 0.0012
vn 0.9815 0.1914 0.0012
vn 0.9533 0.3021 0.0019
vn 0.9533 0.3019 0.0019
vn 0.9075 0.4200 0.0026
vn 0.9076 0.4198 0.0026
vn 0.8411 0.5409 0.0033
vn 0.8412 0.5407 0.0033
vn 0.7527 0.6583 0.0041
vn 0.7529 0.6581 0.0041
vn 0.6442 0.7648 0.0047
vn 0.6444 0.7647 0.0047
vn 0.5203 0.8540 0.0053
vn 0.5204 0.8539 0.0053
vn 0.3877 0.9218 0.0057
vn 0.3878 0.9217 0.0057
vn 0.2535 0.9673 0.0060
vn 0.2536 0.9673 0.0060
vn 0.1235 0.9923 0.0061
vn 0.1236 0.9923 0.0061
vn 0.0163 0.9998 0.0062
vn 0.0164 0.9998 0.0062
vn -0.0585 0.9983 0.0062
vn -0.1256 0.9921 0.0061
vn -0.2011 0.9795 0.0061
vn -0.2012 0.9795 0.0061
vn -0.2825 0.9592 0.0059
vn -0.2826 0.9592 0.0059
vn -0.3659 0.9306 0.0057
vn -0.4469 0.8946 0.0055
vn -0.4470 0.8945 0.0055
vn -0.5218 0.8530 0.0053
vn -0.5219 0.8530 0.0053
vn -0.5879 0.8089 0.0050
vn -0.5880 0.8088 0.0050
vn -0.6441 0.7649 0.0047
vn -0.6442 0.7649 0.0047
vn -0.6904 0.7234 0.0045
vn -0.6905 0.7233 0.0045
vn -0.7277 0.6859 0.0042
vn -0.7278 0.6858 0.0042
vn -0.9338 0.3577 0.0022
vn -0.9343 0.3565 0.0022
vn 0.7071 -0.7071 -0.0044
vn 0.7085 -0.7057 -0.0044
vn -0.7071 -0.7071 -0.0044
vn -0.7085 -0.7057 -0.0044
vn -0.0000 -1.0000 -0.0062
vn 0.1360 0.9907 0.0061
vn 0.1361 0.9907 0.0061
vn 0.2679 0.9634 0.0060
vn 0.2678 0.9634 0.0060
vn 0.3923 0.9198 0.0057
vn 0.3922 0.9199 0.0057
vn 0.5076 0.8616 0.0053
vn 0.5075 0.8617 0.0053
vn 0.6127 0.7903 0.0049
vn 0.6126 0.7904 0.0049
vn 0.7070 0.7072 0.0044
vn 0.7903 0.6127 0.0038
vn 0.7902 0.6128 0.0038
vn 0.8616 0.5075 0.0031
vn 0.8615 0.5077 0.0031
vn 0.9198 0.3923 0.0024
vn 0.9197 0.3925 0.0024
vn 0.9634 0.2679 0.0017
vn 0.9634 0.2681 0.0017
vn 0.9907 0.1360 0.0008
vn 0.9907 0.1363 0.0008
vn 1.0000 0.0003 -0.0000
vn 0.9907 -0.1360 -0.0008
vn 0.9907 -0.1358 -0.0008
vn 0.9634 -0.2679 -0.0017
vn 0.9635 -0.2676 -0.0017
vn 0.9198 -0.3923 -0.0024
vn 0.9199 -0.3921 -0.0024
vn 0.8616 -0.5075 -0.0031
vn 0.8617 -0.5073 -0.0031
vn 0.7903 -0.6127 -0.0038
vn 0.7905 -0.6125 -0.0038
vn 0.7072 -0.7070 -0.0044
vn 0.6127 -0.7903 -0.0049
vn 0.6128 -0.7902 -0.0049
vn 0.5076 -0.8616 -0.0053
vn 0.5077 -0.8615 -0.0053
vn 0.3923 -0.9198 -0.0057
vn 0.3924 -0.9198 -0.0057
vn 0.2679 -0.9634 -0.0060
vn 0.2680 -0.9634 -0.0060
vn 0.1361 -0.9907 -0.0061
vn -0.1360 -0.9907 -0.0061
vn -0.1361 -0.9907 -0.0061
vn -0.2679 -0.9634 -0.0060
vn -0.2680 -0.9634 -0.0060
vn -0.3923 -0.9198 -0.0057
vn -0.3924 -0.9198 -0.0057
vn -0.5076 -0.8616 -0.0053
vn -0.5077 -0.8615 -0.0053
vn -0.6127 -0.7903 -0.0049
vn -0.6128 -0.7902 -0.0049
vn -0.7072 -0.7070 -0.0044
vn -0.7903 -0.6127 -0.0038
vn -0.7905 -0.6125 -0.0038
vn -0.8616 -0.5075 -0.0031
vn -0.8617 -0.5073 -0.0031
vn -0.9198 -0.3923 -0.0024
vn -0.9199 -0.3921 -0.0024
vn -0.9634 -0.2679 -0.0017
vn -0.9635 -0.2676 -0.0017
vn -0.9907 -0.1360 -0.0008
vn -0.9907 -0.1358 -0.0008
vn -1.0000 0.0003 -0.0000
vn -0.9907 0.1360 0.0008
vn -0.9907 0.1363 0.0008
vn -0.9634 0.2679 0.0017
vn -0.9634 0.2681 0.0017
vn -0.9198 0.3923 0.0024
vn -0.9197 0.3925 0.0024
vn -0.8616 0.5075 0.0031
vn -0.8615 0.5077 0.0031
vn -0.7903 0.6127 0.0038
vn -0.7902 0.6128 0.0038
vn -0.7070 0.7072 0.0044
vn -0.6127 0.7903 0.0049
vn -0.6126 0.7904 0.0049
vn -0.5076 0.8616 0.0053
vn -0.5075 0.8617 0.0053
vn -0.3923 0.9198 0.0057
vn -0.3922 0.9199 0.0057
vn -0.2679 0.9634 0.0060
vn -0.2678 0.9634 0.0060
vn -0.1361 0.9907 0.0061
vn -0.1360 0.9907 0.0061
vn -0.0000 1.0000 0.0062
vn -0.9085 0.4179 0.0026
vn -0.9099 0.4149 0.0026
vn 0.4130 0.9107 0.0056
vn 0.4124 0.9110 0.0056
vn -0.0144 0.9999 0.0062
vn -0.0145 0.9999 0.0062
vn -0.4261 0.9047 0.0056
vn -0.4255 0.9050 0.0056
vn 0.9050 0.4253 0.0026
vn 0.9037 0.4282 0.0026
vn 1.0000 0.0077 -0.0000
vn 1.0000 0.0052 -0.0000
vn 0.9083 -0.4184 -0.0026
vn 0.9096 -0.4154 -0.0026
vn -0.4162 -0.9093 -0.0056
vn -0.4168 -0.9090 -0.0056
vn 0.0094 -0.9999 -0.0062
vn 0.4247 -0.9053 -0.0056
vn 0.4254 -0.9050 -0.0056
vn -0.9061 -0.4231 -0.0026
vn -0.9074 -0.4202 -0.0026
vn -1.0000 -0.0091 -0.0001
vn -0.9999 -0.0116 -0.0001
vt 0.143963 0.731037
vt 0.143963 0.750000
vt 0.125000 0.731037
vt 0.606037 0.000000
vt 0.625000 0.018963
vt 0.606037 0.018963
vt 0.143963 0.518963
vt 0.125000 0.518963
vt 0.143963 0.500000
vt 0.625000 0.249495
vt 0.606037 0.268858
vt 0.606037 0.231037
vt 0.356037 0.731037
vt 0.393858 0.731037
vt 0.389948 0.766955
vt 0.641955 0.735052
vt 0.606037 0.768963
vt 0.606037 0.731142
vt 0.356037 0.518963
vt 0.389948 0.483045
vt 0.393858 0.518963
vt 0.641955 0.514947
vt 0.606037 0.518858
vt 0.606037 0.481037
vt 0.393963 0.000000
vt 0.393963 0.018963
vt 0.393963 0.268963
vt 0.393963 0.231037
vt 0.625000 0.981037
vt 0.606037 0.981037
vt 0.533712 0.858449
vt 0.533899 0.859318
vt 0.523074 0.861264
vt 0.523010 0.851913
vt 0.533878 0.855775
vt 0.533702 0.856642
vt 0.533644 0.857545
vt 0.514319 0.916743
vt 0.515684 0.915489
vt 0.516999 0.914189
vt 0.518250 0.912839
vt 0.519425 0.911435
vt 0.520510 0.909972
vt 0.521491 0.908447
vt 0.522356 0.906857
vt 0.523091 0.905196
vt 0.523683 0.903461
vt 0.524118 0.901647
vt 0.524384 0.899751
vt 0.524466 0.897769
vt 0.524265 0.894976
vt 0.523708 0.892367
vt 0.522812 0.889952
vt 0.521590 0.887743
vt 0.520059 0.885750
vt 0.518232 0.883985
vt 0.516125 0.882459
vt 0.513753 0.881183
vt 0.511132 0.880167
vt 0.508276 0.879424
vt 0.505201 0.878963
vt 0.501922 0.878797
vt 0.466002 0.878637
vt 0.465798 0.862882
vt 0.523087 0.863186
vt 0.534196 0.860145
vt 0.534595 0.860921
vt 0.535087 0.861638
vt 0.535665 0.862287
vt 0.536319 0.862860
vt 0.537042 0.863349
vt 0.537824 0.863744
vt 0.538657 0.864039
vt 0.539533 0.864223
vt 0.540444 0.864290
vt 0.541354 0.864233
vt 0.542228 0.864057
vt 0.543058 0.863772
vt 0.543837 0.863385
vt 0.544554 0.862904
vt 0.545203 0.862338
vt 0.545774 0.861695
vt 0.546259 0.860984
vt 0.546651 0.860213
vt 0.546940 0.859390
vt 0.547117 0.858523
vt 0.547176 0.857620
vt 0.547110 0.856717
vt 0.546924 0.855848
vt 0.546628 0.855022
vt 0.546230 0.854246
vt 0.545737 0.853530
vt 0.545160 0.852881
vt 0.544505 0.852308
vt 0.543783 0.851819
vt 0.543000 0.851423
vt 0.542166 0.851128
vt 0.541288 0.850943
vt 0.540377 0.850876
vt 0.539465 0.850932
vt 0.538590 0.851107
vt 0.537759 0.851392
vt 0.536980 0.851779
vt 0.536262 0.852260
vt 0.535613 0.852825
vt 0.535042 0.853468
vt 0.534557 0.854180
vt 0.534166 0.854951
vt 0.522954 0.843679
vt 0.522855 0.829492
vt 0.502984 0.812488
vt 0.522614 0.796425
vt 0.522501 0.781978
vt 0.494321 0.805190
vt 0.464766 0.779810
vt 0.393963 0.981037
vt 0.467043 0.961588
vt 0.523783 0.961617
vt 0.523696 0.950339
vt 0.516234 0.950332
vt 0.517614 0.948884
vt 0.518869 0.947450
vt 0.519999 0.946031
vt 0.521006 0.944625
vt 0.521890 0.943231
vt 0.522652 0.941849
vt 0.523293 0.940477
vt 0.523814 0.939114
vt 0.524216 0.937761
vt 0.524499 0.936415
vt 0.524665 0.935076
vt 0.524714 0.933743
vt 0.524628 0.931965
vt 0.524395 0.930242
vt 0.524018 0.928578
vt 0.523497 0.926975
vt 0.522834 0.925437
vt 0.522030 0.923968
vt 0.521087 0.922569
vt 0.520005 0.921243
vt 0.518786 0.919995
vt 0.517431 0.918827
vt 0.515942 0.917742
vt 0.514779 0.903851
vt 0.514500 0.904877
vt 0.514107 0.905933
vt 0.513609 0.907012
vt 0.513013 0.908106
vt 0.512328 0.909208
vt 0.511560 0.910310
vt 0.510719 0.911405
vt 0.509812 0.912485
vt 0.508847 0.913544
vt 0.507831 0.914572
vt 0.466465 0.914466
vt 0.466608 0.925773
vt 0.501971 0.925844
vt 0.504175 0.925944
vt 0.506163 0.926225
vt 0.507941 0.926676
vt 0.509512 0.927281
vt 0.510883 0.928029
vt 0.512056 0.928906
vt 0.513038 0.929898
vt 0.513832 0.930993
vt 0.514444 0.932178
vt 0.514879 0.933438
vt 0.515140 0.934762
vt 0.515234 0.936136
vt 0.515207 0.937523
vt 0.515099 0.938842
vt 0.514904 0.940100
vt 0.514615 0.941308
vt 0.514225 0.942475
vt 0.513728 0.943612
vt 0.513118 0.944727
vt 0.512388 0.945831
vt 0.511532 0.946933
vt 0.510543 0.948043
vt 0.509414 0.949170
vt 0.508140 0.950325
vt 0.466910 0.950287
vt 0.464934 0.794284
vt 0.485798 0.812353
vt 0.465363 0.829087
vt 0.465545 0.843316
vt 0.494461 0.819525
vt 0.465651 0.851574
vt 0.466149 0.889945
vt 0.501516 0.890082
vt 0.503597 0.890198
vt 0.505513 0.890521
vt 0.507261 0.891037
vt 0.508837 0.891729
vt 0.510240 0.892585
vt 0.511467 0.893589
vt 0.512514 0.894727
vt 0.513379 0.895985
vt 0.514060 0.897347
vt 0.514552 0.898800
vt 0.514855 0.900328
vt 0.514965 0.901918
vt 0.514937 0.902862
vt 0.856037 0.518963
vt 0.856037 0.731037
vt 0.454545 0.000000
vt 0.636364 0.000000
vt 0.545455 0.000000
vt 0.727273 0.000000
vt 0.909091 0.000000
vt 0.818182 0.000000
vt 1.000000 0.000000
vt 0.363636 0.000000
vt 0.181818 0.000000
vt 0.000000 0.000000
vt 0.272727 0.000000
vt 0.090909 0.000000
vt 0.941176 0.000000
vt 0.980392 0.000000
vt 0.960784 0.000000
vt 0.431373 0.000000
vt 0.470588 0.000000
vt 0.450980 0.000000
vt 0.490196 0.000000
vt 0.411765 0.000000
vt 0.509804 0.000000
vt 0.392157 0.000000
vt 0.529412 0.000000
vt 0.372549 0.000000
vt 0.549020 0.000000
vt 0.352941 0.000000
vt 0.568627 0.000000
vt 0.333333 0.000000
vt 0.588235 0.000000
vt 0.313726 0.000000
vt 0.607843 0.000000
vt 0.294118 0.000000
vt 0.627451 0.000000
vt 0.274510 0.000000
vt 0.647059 0.000000
vt 0.254902 0.000000
vt 0.666667 0.000000
vt 0.235294 0.000000
vt 0.686275 0.000000
vt 0.215686 0.000000
vt 0.196078 0.000000
vt 0.705882 0.000000
vt 0.725490 0.000000
vt 0.176471 0.000000
vt 0.745098 0.000000
vt 0.156863 0.000000
vt 0.764706 0.000000
vt 0.137255 0.000000
vt 0.784314 0.000000
vt 0.117647 0.000000
vt 0.803922 0.000000
vt 0.098039 0.000000
vt 0.823529 0.000000
vt 0.078431 0.000000
vt 0.843137 0.000000
vt 0.058824 0.000000
vt 0.862745 0.000000
vt 0.039216 0.000000
vt 0.882353 0.000000
vt 0.019608 0.000000
vt 0.901961 0.000000
vt 0.921569 0.000000
vt 0.103774 0.000000
vt 0.122642 0.000000
vt 0.113208 0.000000
vt 0.330189 0.000000
vt 0.349057 0.000000
vt 0.339623 0.000000
vt 0.094340 0.000000
vt 0.132075 0.000000
vt 0.320755 0.000000
vt 0.358491 0.000000
vt 0.084906 0.000000
vt 0.141509 0.000000
vt 0.311321 0.000000
vt 0.075472 0.000000
vt 0.150943 0.000000
vt 0.367925 0.000000
vt 0.301887 0.000000
vt 0.066038 0.000000
vt 0.981132 0.000000
vt 0.990566 0.000000
vt 0.160377 0.000000
vt 0.292453 0.000000
vt 0.056604 0.000000
vt 0.377358 0.000000
vt 0.169811 0.000000
vt 0.047170 0.000000
vt 0.283019 0.000000
vt 0.179245 0.000000
vt 0.386792 0.000000
vt 0.037736 0.000000
vt 0.273585 0.000000
vt 0.188679 0.000000
vt 0.028302 0.000000
vt 0.264151 0.000000
vt 0.396226 0.000000
vt 0.198113 0.000000
vt 0.018868 0.000000
vt 0.254717 0.000000
vt 0.207547 0.000000
vt 0.009434 0.000000
vt 0.405660 0.000000
vt 0.245283 0.000000
vt 0.216981 0.000000
vt 0.235849 0.000000
vt 0.594340 0.000000
vt 0.415094 0.000000
vt 0.962264 0.000000
vt 0.952830 0.000000
vt 0.943396 0.000000
vt 0.933962 0.000000
vt 0.924528 0.000000
vt 0.915094 0.000000
vt 0.905660 0.000000
vt 0.896226 0.000000
vt 0.886792 0.000000
vt 0.877358 0.000000
vt 0.867925 0.000000
vt 0.858491 0.000000
vt 0.849057 0.000000
vt 0.226415 0.000000
vt 0.603774 0.000000
vt 0.839623 0.000000
vt 0.584906 0.000000
vt 0.613208 0.000000
vt 0.830189 0.000000
vt 0.575472 0.000000
vt 0.622642 0.000000
vt 0.820755 0.000000
vt 0.566038 0.000000
vt 0.632075 0.000000
vt 0.811321 0.000000
vt 0.556604 0.000000
vt 0.641509 0.000000
vt 0.424528 0.000000
vt 0.801887 0.000000
vt 0.650943 0.000000
vt 0.547170 0.000000
vt 0.660377 0.000000
vt 0.792453 0.000000
vt 0.537736 0.000000
vt 0.669811 0.000000
vt 0.783019 0.000000
vt 0.528302 0.000000
vt 0.679245 0.000000
vt 0.433962 0.000000
vt 0.773585 0.000000
vt 0.688679 0.000000
vt 0.518868 0.000000
vt 0.698113 0.000000
vt 0.764151 0.000000
vt 0.509434 0.000000
vt 0.707547 0.000000
vt 0.443396 0.000000
vt 0.754717 0.000000
vt 0.971698 0.000000
vt 0.716981 0.000000
vt 0.500000 0.000000
vt 0.745283 0.000000
vt 0.490566 0.000000
vt 0.452830 0.000000
vt 0.735849 0.000000
vt 0.481132 0.000000
vt 0.462264 0.000000
vt 0.726415 0.000000
vt 0.471698 0.000000
vt 0.000000 0.830106
vt 0.009346 0.000000
vt 0.009346 0.830002
vt 0.009346 0.830003
vt 0.018692 0.000000
vt 0.018692 0.829908
vt 0.018692 0.829908
vt 0.028037 0.000000
vt 0.028037 0.829822
vt 0.028037 0.829822
vt 0.037383 0.000000
vt 0.037383 0.829746
vt 0.037383 0.829746
vt 0.046729 0.000000
vt 0.046729 0.829679
vt 0.046729 0.829679
vt 0.056075 0.000000
vt 0.056075 0.829622
vt 0.056075 0.829621
vt 0.065421 0.000000
vt 0.065421 0.829572
vt 0.065421 0.829572
vt 0.074766 0.000000
vt 0.074766 0.829532
vt 0.074766 0.829533
vt 0.084112 0.000000
vt 0.084112 0.829502
vt 0.084112 0.829502
vt 0.093458 0.000000
vt 0.093458 0.829480
vt 0.093458 0.829480
vt 0.102804 0.000000
vt 0.102804 0.829467
vt 0.102804 0.829466
vt 0.112150 0.000000
vt 0.112150 0.829462
vt 0.112150 0.829462
vt 0.121495 0.000000
vt 0.121495 0.829468
vt 0.121495 0.829468
vt 0.130841 0.000000
vt 0.130841 0.829484
vt 0.130841 0.829485
vt 0.140187 0.000000
vt 0.140187 0.829512
vt 0.140187 0.829512
vt 0.149533 0.000000
vt 0.149533 0.829550
vt 0.149533 0.829550
vt 0.158879 0.000000
vt 0.158879 0.829599
vt 0.158879 0.829599
vt 0.168224 0.000000
vt 0.168224 0.829658
vt 0.168224 0.829658
vt 0.177570 0.000000
vt 0.177570 0.829728
vt 0.177570 0.829728
vt 0.186916 0.000000
vt 0.186916 0.829808
vt 0.186916 0.829808
vt 0.196262 0.000000
vt 0.196262 0.829898
vt 0.205607 0.000000
vt 0.205607 0.829998
vt 0.196262 0.829898
vt 0.214953 0.000000
vt 0.214953 0.830109
vt 0.205607 0.829999
vt 0.224299 0.000000
vt 0.224299 0.830230
vt 0.214953 0.830109
vt 0.233645 0.000000
vt 0.233645 0.830127
vt 0.224299 0.830230
vt 0.242991 0.000000
vt 0.242991 0.830028
vt 0.242991 0.830028
vt 0.252336 0.000000
vt 0.252336 0.829934
vt 0.252336 0.829934
vt 0.261682 0.000000
vt 0.261682 0.829846
vt 0.261682 0.829846
vt 0.271028 0.000000
vt 0.271028 0.829764
vt 0.280374 0.000000
vt 0.280374 0.829690
vt 0.280374 0.829690
vt 0.289720 0.000000
vt 0.289720 0.829624
vt 0.289720 0.829625
vt 0.299065 0.000000
vt 0.299065 0.829569
vt 0.299065 0.829569
vt 0.308411 0.000000
vt 0.308411 0.829524
vt 0.308411 0.829524
vt 0.317757 0.000000
vt 0.317757 0.829490
vt 0.317757 0.829491
vt 0.327103 0.000000
vt 0.327103 0.829470
vt 0.336449 0.000000
vt 0.336449 0.829462
vt 0.327103 0.829470
vt 0.336449 0.829463
vt 0.345794 0.000000
vt 0.345794 0.829476
vt 0.345794 0.829476
vt 0.355140 0.000000
vt 0.355140 0.829516
vt 0.355140 0.829516
vt 0.364486 0.000000
vt 0.364486 0.829582
vt 0.364486 0.829582
vt 0.373832 0.000000
vt 0.373832 0.829672
vt 0.383178 0.000000
vt 0.383178 0.829785
vt 0.392523 0.000000
vt 0.392523 0.829920
vt 0.383178 0.829785
vt 0.401869 0.000000
vt 0.401869 0.830075
vt 0.392523 0.829920
vt 0.411215 0.000000
vt 0.411215 0.830251
vt 0.420561 0.000000
vt 0.420561 0.830446
vt 0.429907 0.000000
vt 0.429907 0.830657
vt 0.439252 0.000000
vt 0.439252 0.830886
vt 0.429907 0.830657
vt 0.448598 0.000000
vt 0.448598 0.831129
vt 0.439252 0.830886
vt 0.457944 0.000000
vt 0.457944 0.833801
vt 0.448598 0.831130
vt 0.457944 0.833800
vt 0.467290 0.000000
vt 0.467290 0.833800
vt 0.476636 0.000000
vt 0.476636 0.831168
vt 0.467290 0.833801
vt 0.485981 0.000000
vt 0.485981 0.831013
vt 0.476636 0.831167
vt 0.495327 0.000000
vt 0.495327 0.830870
vt 0.504673 0.000000
vt 0.504673 0.830740
vt 0.514019 0.000000
vt 0.514019 0.830623
vt 0.523364 0.000000
vt 0.523364 0.830519
vt 0.514019 0.830624
vt 0.532710 0.000000
vt 0.532710 0.830429
vt 0.542056 0.000000
vt 0.542056 0.830351
vt 0.542056 0.830351
vt 0.551402 0.000000
vt 0.551402 0.830288
vt 0.551402 0.830288
vt 0.560748 0.000000
vt 0.560748 0.830238
vt 0.560748 0.830238
vt 0.570093 0.000000
vt 0.570093 0.830202
vt 0.570093 0.830202
vt 0.579439 0.000000
vt 0.579439 0.830180
vt 0.579439 0.830180
vt 0.588785 0.000000
vt 0.588785 0.830173
vt 0.588785 0.830173
vt 0.598131 0.000000
vt 0.598131 0.830176
vt 0.598131 0.830176
vt 0.607477 0.000000
vt 0.607477 0.830188
vt 0.607477 0.830188
vt 0.616822 0.000000
vt 0.616822 0.830209
vt 0.616822 0.830209
vt 0.626168 0.000000
vt 0.626168 0.830239
vt 0.626168 0.830239
vt 0.635514 0.000000
vt 0.635514 0.830277
vt 0.635514 0.830277
vt 0.644860 0.000000
vt 0.644860 0.830322
vt 0.644860 0.830322
vt 0.654206 0.000000
vt 0.654206 0.830374
vt 0.654206 0.830374
vt 0.663551 0.000000
vt 0.663551 0.830432
vt 0.663551 0.830432
vt 0.672897 0.000000
vt 0.672897 0.830495
vt 0.672897 0.830495
vt 0.682243 0.000000
vt 0.682243 0.830564
vt 0.682243 0.830564
vt 0.691589 0.000000
vt 0.691589 0.830636
vt 0.691589 0.830637
vt 0.700935 0.000000
vt 0.700935 0.830713
vt 0.710280 0.000000
vt 0.710280 0.833801
vt 0.700935 0.830713
vt 0.710280 0.833800
vt 0.719626 0.000000
vt 0.719626 0.833800
vt 0.728972 0.000000
vt 0.728972 0.831158
vt 0.719626 0.833801
vt 0.738318 0.000000
vt 0.738318 0.830993
vt 0.728972 0.831158
vt 0.747664 0.000000
vt 0.747664 0.830845
vt 0.738318 0.830993
vt 0.757009 0.000000
vt 0.757009 0.830712
vt 0.747664 0.830845
vt 0.766355 0.000000
vt 0.766355 0.830595
vt 0.757009 0.830712
vt 0.775701 0.000000
vt 0.775701 0.830493
vt 0.766355 0.830595
vt 0.785047 0.000000
vt 0.785047 0.830406
vt 0.794393 0.000000
vt 0.794393 0.830333
vt 0.794393 0.830334
vt 0.803738 0.000000
vt 0.803738 0.830275
vt 0.803738 0.830275
vt 0.813084 0.000000
vt 0.813084 0.830230
vt 0.813084 0.830230
vt 0.822430 0.000000
vt 0.822430 0.830198
vt 0.822430 0.830198
vt 0.831776 0.000000
vt 0.831776 0.830179
vt 0.831776 0.830179
vt 0.841121 0.000000
vt 0.841121 0.830173
vt 0.841122 0.830173
vt 0.850467 0.000000
vt 0.850467 0.830176
vt 0.850467 0.830176
vt 0.859813 0.000000
vt 0.859813 0.830185
vt 0.859813 0.830185
vt 0.869159 0.000000
vt 0.869159 0.830200
vt 0.869159 0.830200
vt 0.878505 0.000000
vt 0.878505 0.830223
vt 0.878505 0.830222
vt 0.887850 0.000000
vt 0.887850 0.830252
vt 0.887850 0.830252
vt 0.897196 0.000000
vt 0.897196 0.830290
vt 0.897196 0.830290
vt 0.906542 0.000000
vt 0.906542 0.830336
vt 0.906542 0.830337
vt 0.915888 0.000000
vt 0.915888 0.830392
vt 0.925234 0.000000
vt 0.925234 0.830457
vt 0.925234 0.830457
vt 0.934579 0.000000
vt 0.934579 0.830531
vt 0.943925 0.000000
vt 0.943925 0.830617
vt 0.934579 0.830531
vt 0.953271 0.000000
vt 0.953271 0.830713
vt 0.943925 0.830617
vt 0.962617 0.000000
vt 0.962617 0.833801
vt 0.953271 0.830713
vt 0.962617 0.833800
vt 0.971963 0.000000
vt 0.971963 0.833800
vt 0.981308 0.000000
vt 0.981308 0.829548
vt 0.971963 0.833801
vt 0.981308 0.829547
vt 0.990654 0.000000
vt 0.990654 0.829547
vt 1.000000 0.830107
vt 0.990654 0.829548
vt 0.250000 0.000000
vt 0.250000 0.829548
vt 0.000000 0.833801
vt 0.292613 0.829547
vt 0.250000 0.829547
vt 0.500000 0.829547
vt 0.750000 0.000000
vt 0.750000 0.833801
vt 0.500000 0.829548
vt 0.750000 0.833800
vt 1.000000 0.833800
vt 0.000000 0.828757
vt 0.020833 0.000000
vt 0.020833 0.828744
vt 0.020833 0.828744
vt 0.041667 0.000000
vt 0.041667 0.828722
vt 0.041667 0.828722
vt 0.062500 0.000000
vt 0.062500 0.828692
vt 0.083333 0.000000
vt 0.083333 0.828656
vt 0.083333 0.828656
vt 0.104167 0.000000
vt 0.104167 0.828614
vt 0.125000 0.000000
vt 0.125000 0.828565
vt 0.145833 0.000000
vt 0.145833 0.828512
vt 0.125000 0.828565
vt 0.166667 0.000000
vt 0.166667 0.828454
vt 0.145833 0.828512
vt 0.187500 0.000000
vt 0.187500 0.828392
vt 0.208333 0.000000
vt 0.208333 0.828327
vt 0.229167 0.000000
vt 0.229167 0.828260
vt 0.208333 0.828327
vt 0.250000 0.828192
vt 0.229167 0.828260
vt 0.270833 0.000000
vt 0.270833 0.828127
vt 0.291667 0.000000
vt 0.291667 0.828065
vt 0.270833 0.828127
vt 0.312500 0.000000
vt 0.312500 0.828007
vt 0.291667 0.828065
vt 0.333333 0.827954
vt 0.312500 0.828007
vt 0.354167 0.000000
vt 0.354167 0.827906
vt 0.333333 0.827954
vt 0.354167 0.827906
vt 0.375000 0.000000
vt 0.375000 0.827863
vt 0.375000 0.827863
vt 0.395833 0.000000
vt 0.395833 0.827827
vt 0.395833 0.827826
vt 0.416667 0.000000
vt 0.416667 0.827797
vt 0.416667 0.827797
vt 0.437500 0.000000
vt 0.437500 0.827776
vt 0.437500 0.827776
vt 0.458333 0.000000
vt 0.458333 0.827762
vt 0.458333 0.827762
vt 0.479167 0.000000
vt 0.479167 0.827757
vt 0.479167 0.827758
vt 0.500000 0.827762
vt 0.500000 0.827762
vt 0.520833 0.000000
vt 0.520833 0.827775
vt 0.520833 0.827776
vt 0.541667 0.000000
vt 0.541667 0.827797
vt 0.541667 0.827797
vt 0.562500 0.000000
vt 0.562500 0.827827
vt 0.562500 0.827827
vt 0.583333 0.000000
vt 0.583333 0.827863
vt 0.583333 0.827863
vt 0.604167 0.000000
vt 0.604167 0.827906
vt 0.625000 0.000000
vt 0.625000 0.827954
vt 0.645833 0.000000
vt 0.645833 0.828007
vt 0.625000 0.827954
vt 0.666667 0.828065
vt 0.645833 0.828007
vt 0.687500 0.000000
vt 0.687500 0.828127
vt 0.666667 0.828065
vt 0.708333 0.000000
vt 0.708333 0.828192
vt 0.687500 0.828127
vt 0.729167 0.000000
vt 0.729167 0.828260
vt 0.708333 0.828192
vt 0.750000 0.828327
vt 0.729167 0.828260
vt 0.770833 0.000000
vt 0.770833 0.828392
vt 0.750000 0.828327
vt 0.791667 0.000000
vt 0.791667 0.828454
vt 0.770833 0.828392
vt 0.812500 0.000000
vt 0.812500 0.828512
vt 0.833333 0.000000
vt 0.833333 0.828565
vt 0.812500 0.828512
vt 0.854167 0.000000
vt 0.854167 0.828614
vt 0.833333 0.828565
vt 0.854167 0.828614
vt 0.875000 0.000000
vt 0.875000 0.828656
vt 0.895833 0.000000
vt 0.895833 0.828692
vt 0.916667 0.000000
vt 0.916667 0.828722
vt 0.937500 0.000000
vt 0.937500 0.828744
vt 0.937500 0.828744
vt 0.958333 0.000000
vt 0.958333 0.828757
vt 0.958333 0.828757
vt 0.979167 0.000000
vt 0.979167 0.828762
vt 0.979167 0.828762
vt 1.000000 0.828757
vt 0.000000 0.833800
vt 0.083333 0.833800
vt 0.166667 0.832276
vt 0.083333 0.833801
vt 0.250000 0.833801
vt 0.166667 0.832276
vt 0.250000 0.833800
vt 0.333333 0.833800
vt 0.333333 0.833801
vt 0.416667 0.831641
vt 0.500000 0.829548
vt 0.583333 0.829547
vt 0.666667 0.831006
vt 0.583333 0.829548
vt 0.750000 0.829548
vt 0.666667 0.831006
vt 0.750000 0.829547
vt 0.833333 0.829547
vt 0.916667 0.831641
vt 0.833333 0.829548
vt 1.000000 0.833801
vt 0.916667 0.831641
s 0
usemtl Material.580
f 1/1/1 2/2/1 3/3/1
f 4/4/2 5/5/2 6/6/2
f 7/7/3 8/8/3 9/9/3
f 10/10/4 11/11/4 12/12/4
f 13/13/5 14/14/5 15/15/5
f 16/16/6 17/17/6 18/18/6
f 19/19/7 20/20/7 21/21/7
f 22/22/8 23/23/8 24/24/8
f 7/7/9 1/1/9 3/3/9 8/8/9
f 2/25/10 4/4/10 6/6/10 3/26/10
f 5/5/11 10/10/11 12/12/11 6/6/11
f 11/11/12 9/27/12 8/28/12 12/12/12
f 19/19/13 7/7/13 9/9/13 20/20/13
f 10/10/14 22/22/14 24/24/14 11/11/14
f 23/23/15 21/21/15 20/20/15 24/24/15
f 13/13/16 19/19/16 21/21/16 14/14/16
f 22/22/17 16/16/17 18/18/17 23/23/17
f 17/17/18 15/15/18 14/14/18 18/18/18
f 1/1/19 13/13/19 15/15/19 2/2/19
f 16/16/20 5/29/20 4/30/20 17/17/20
f 7/7/21 19/19/21 13/13/21 1/1/21
f 3/26/22 6/6/22 12/12/22 8/28/22
f 223/31/23 224/32/23 226/33/23 245/34/23 238/35/23 233/36/23 269/37/23
f 320/38/23 324/39/23 326/40/23 328/41/23 337/42/23 338/43/23 339/44/23 333/45/23 335/46/23 345/47/23 347/48/23 348/49/23 198/50/23 197/51/23 196/52/23 203/53/23 199/54/23 202/55/23 201/56/23 200/57/23 212/58/23 204/59/23 206/60/23 205/61/23 363/62/23 362/63/23 361/64/23 217/65/23 226/33/23 224/32/23 227/66/23 220/67/23 229/68/23 215/69/23 214/70/23 218/71/23 231/72/23 208/73/23 209/74/23 211/75/23 207/76/23 210/77/23 232/78/23 213/79/23 219/80/23 216/81/23 230/82/23 221/83/23 228/84/23 222/85/23 225/86/23 268/87/23 234/88/23 239/89/23 237/90/23 235/91/23 249/92/23 242/93/23 247/94/23 244/95/23 266/96/23 251/97/23 256/98/23 252/99/23 255/100/23 250/101/23 254/102/23 243/103/23 246/104/23 241/105/23 240/106/23 248/107/23 236/108/23 238/35/23 245/34/23 267/109/23 265/110/23 259/111/23 261/112/23 263/113/23 257/114/23 262/115/23 15/15/23 17/17/23 4/30/23 2/116/23 270/117/23 271/118/23 281/119/23 274/120/23 278/121/23 279/122/23 280/123/23 291/124/23 292/125/23 287/126/23 289/127/23 293/128/23 294/129/23 298/130/23 297/131/23 304/132/23 303/133/23 302/134/23 317/135/23 316/136/23 315/137/23 314/138/23 311/139/23 343/140/23 329/141/23 327/142/23 325/143/23
f 334/144/23 331/145/23 332/146/23 330/147/23 336/148/23 342/149/23 340/150/23 341/151/23 321/152/23 322/153/23 323/154/23 367/155/23 318/156/23 319/157/23 309/158/23 308/159/23 310/160/23 306/161/23 307/162/23 305/163/23 312/164/23 300/165/23 301/166/23 299/167/23 295/168/23 296/169/23 313/170/23 288/171/23 285/172/23 286/173/23 290/174/23 283/175/23 284/176/23 282/177/23 277/178/23 275/179/23 276/180/23 273/181/23 272/182/23 270/117/23 2/116/23 15/15/23 262/115/23 264/183/23 258/184/23 253/185/23 365/186/23 260/187/23 267/109/23 245/34/23 364/188/23 361/64/23 362/63/23 358/189/23 366/190/23 359/191/23 356/192/23 357/193/23 360/194/23 353/195/23 354/196/23 352/197/23 355/198/23 351/199/23 350/200/23 349/201/23 346/202/23 344/203/23
f 22/22/24 10/204/24 5/205/24 16/16/24
f 9/27/25 11/11/25 24/24/25 20/20/25
f 21/21/26 23/23/26 18/18/26 14/14/26
f 30/206/27 32/207/27 31/208/27
f 30/206/27 33/209/27 32/207/27
f 33/209/27 35/210/27 34/211/27
f 33/209/27 36/212/27 35/210/27
f 30/206/27 36/212/27 33/209/27
f 29/213/27 36/212/27 30/206/27
f 29/213/27 27/214/27 36/212/27
f 27/214/27 25/215/27 36/212/27
f 29/213/27 28/216/27 27/214/27
f 26/217/27 25/215/27 27/214/27
f 85/218/27 87/219/27 86/220/27
f 85/218/27 88/212/27 87/219/27
f 59/221/28 61/222/28 60/223/28
f 59/221/29 62/224/29 61/222/29
f 58/225/27 62/224/27 59/221/27
f 58/225/27 63/226/27 62/224/27
f 57/227/29 63/226/29 58/225/29
f 57/227/27 64/228/27 63/226/27
f 56/229/27 64/228/27 57/227/27
f 56/229/27 65/230/27 64/228/27
f 55/231/29 65/230/29 56/229/29
f 55/231/27 66/232/27 65/230/27
f 54/233/27 66/232/27 55/231/27
f 54/233/27 67/234/27 66/232/27
f 53/235/27 67/234/27 54/233/27
f 53/235/27 68/236/27 67/234/27
f 52/237/27 68/236/27 53/235/27
f 52/237/27 69/238/27 68/236/27
f 51/239/27 69/238/27 52/237/27
f 51/239/27 70/240/27 69/238/27
f 50/241/27 70/240/27 51/239/27
f 50/241/27 71/242/27 70/240/27
f 49/243/27 71/242/27 50/241/27
f 49/243/27 72/244/27 71/242/27
f 48/245/27 72/244/27 49/243/27
f 47/246/27 72/244/27 48/245/27
f 47/246/27 73/247/27 72/244/27
f 47/246/27 74/248/27 73/247/27
f 46/249/27 74/248/27 47/246/27
f 46/249/27 75/250/27 74/248/27
f 45/251/27 75/250/27 46/249/27
f 45/251/27 76/252/27 75/250/27
f 44/253/27 76/252/27 45/251/27
f 44/253/27 77/254/27 76/252/27
f 43/255/27 77/254/27 44/253/27
f 43/255/27 78/256/27 77/254/27
f 42/257/27 78/256/27 43/255/27
f 42/257/27 79/258/27 78/256/27
f 41/259/27 79/258/27 42/257/27
f 41/259/27 80/260/27 79/258/27
f 40/261/27 80/260/27 41/259/27
f 40/261/27 81/262/27 80/260/27
f 39/263/27 81/262/27 40/261/27
f 39/263/27 82/264/27 81/262/27
f 38/265/27 82/264/27 39/263/27
f 38/265/27 83/266/27 82/264/27
f 37/215/27 83/266/27 38/265/27
f 37/215/27 84/267/27 83/266/27
f 100/268/27 102/269/27 101/270/27
f 124/271/27 126/272/27 125/273/27
f 99/274/27 102/269/27 100/268/27
f 99/274/27 103/275/27 102/269/27
f 123/276/29 126/272/29 124/271/29
f 123/276/27 127/277/27 126/272/27
f 98/278/27 103/275/27 99/274/27
f 98/278/27 104/279/27 103/275/27
f 122/280/27 127/277/27 123/276/27
f 97/281/27 104/279/27 98/278/27
f 97/281/27 105/282/27 104/279/27
f 122/280/27 128/283/27 127/277/27
f 121/284/27 128/283/27 122/280/27
f 96/285/27 105/282/27 97/281/27
f 193/286/27 195/212/27 194/287/27
f 193/286/27 89/215/27 195/212/27
f 96/285/27 106/288/27 105/282/27
f 120/289/27 128/283/27 121/284/27
f 95/290/27 106/288/27 96/285/27
f 120/289/27 129/291/27 128/283/27
f 95/290/27 107/292/27 106/288/27
f 94/293/27 107/292/27 95/290/27
f 119/294/27 129/291/27 120/289/27
f 94/293/27 108/295/27 107/292/27
f 119/294/27 130/296/27 129/291/27
f 93/297/27 108/295/27 94/293/27
f 118/298/27 130/296/27 119/294/27
f 93/297/27 109/299/27 108/295/27
f 92/300/27 109/299/27 93/297/27
f 117/301/27 130/296/27 118/298/27
f 117/301/27 131/302/27 130/296/27
f 92/300/27 110/303/27 109/299/27
f 91/304/27 110/303/27 92/300/27
f 116/305/27 131/302/27 117/301/27
f 91/304/27 111/306/27 110/303/27
f 90/307/27 111/306/27 91/304/27
f 116/305/27 132/308/27 131/302/27
f 115/309/27 132/308/27 116/305/27
f 90/307/27 112/310/27 111/306/27
f 89/215/27 112/310/27 90/307/27
f 114/311/27 132/308/27 115/309/27
f 114/311/27 152/312/27 132/308/27
f 152/312/27 133/313/27 132/308/27
f 193/286/27 191/314/27 89/215/27
f 191/314/27 190/315/27 89/215/27
f 190/315/27 189/316/27 89/215/27
f 189/316/27 188/317/27 89/215/27
f 188/317/27 187/318/27 89/215/27
f 187/318/27 186/319/27 89/215/27
f 186/319/27 185/320/27 89/215/27
f 185/320/27 184/321/27 89/215/27
f 184/321/27 183/322/27 89/215/27
f 183/322/27 182/323/27 89/215/27
f 182/323/27 181/324/27 89/215/27
f 181/324/29 180/325/29 89/215/29
f 180/325/27 112/310/27 89/215/27
f 180/325/30 179/326/30 112/310/30
f 179/326/27 113/327/27 112/310/27
f 113/327/27 153/328/27 114/311/27
f 153/328/27 152/312/27 114/311/27
f 178/329/28 113/327/28 179/326/28
f 151/330/31 133/313/31 152/312/31
f 113/327/27 154/331/27 153/328/27
f 177/332/29 113/327/29 178/329/29
f 150/333/27 133/313/27 151/330/27
f 113/327/27 155/334/27 154/331/27
f 176/335/27 113/327/27 177/332/27
f 149/336/27 133/313/27 150/333/27
f 113/327/27 156/337/27 155/334/27
f 175/338/27 113/327/27 176/335/27
f 175/338/27 156/337/27 113/327/27
f 148/339/27 133/313/27 149/336/27
f 175/338/27 157/340/27 156/337/27
f 148/339/27 134/341/27 133/313/27
f 174/342/27 157/340/27 175/338/27
f 174/342/27 158/343/27 157/340/27
f 147/344/27 134/341/27 148/339/27
f 174/342/27 159/345/27 158/343/27
f 173/346/27 159/345/27 174/342/27
f 146/347/27 134/341/27 147/344/27
f 173/346/27 160/348/27 159/345/27
f 172/349/27 160/348/27 173/346/27
f 145/350/27 134/341/27 146/347/27
f 172/349/27 161/351/27 160/348/27
f 145/350/27 135/352/27 134/341/27
f 171/353/27 161/351/27 172/349/27
f 171/353/27 162/354/27 161/351/27
f 144/355/27 135/352/27 145/350/27
f 171/353/27 163/356/27 162/354/27
f 170/357/27 163/356/27 171/353/27
f 143/358/27 135/352/27 144/355/27
f 170/357/27 164/359/27 163/356/27
f 143/358/27 136/360/27 135/352/27
f 169/361/27 164/359/27 170/357/27
f 193/286/27 192/362/27 191/314/27
f 169/361/27 165/363/27 164/359/27
f 142/364/27 136/360/27 143/358/27
f 168/365/27 165/363/27 169/361/27
f 141/366/27 136/360/27 142/364/27
f 141/366/27 137/367/27 136/360/27
f 167/368/27 165/363/27 168/365/27
f 140/369/27 137/367/27 141/366/27
f 140/369/27 138/370/27 137/367/27
f 166/371/27 165/363/27 167/368/27
f 139/372/27 138/370/27 140/369/27
s 1
f 274/373/32 89/215/33 90/374/34 278/375/35
f 278/376/35 90/374/34 91/377/36 279/378/36
f 279/379/36 91/377/36 92/380/37 280/381/37
f 280/382/37 92/380/37 93/383/38 291/384/39
f 291/385/39 93/383/38 94/386/40 292/387/41
f 292/388/41 94/386/40 95/389/42 287/390/42
f 287/391/42 95/389/42 96/392/43 289/393/43
f 289/394/43 96/392/43 97/395/44 293/396/45
f 293/397/45 97/395/44 98/398/46 294/399/46
f 294/400/46 98/398/46 99/401/47 298/402/47
f 298/403/47 99/401/47 100/404/48 297/405/48
f 297/406/48 100/404/48 101/407/49 304/408/49
f 304/409/49 101/407/49 102/410/50 303/411/50
f 303/412/50 102/410/50 103/413/51 302/414/51
f 302/415/51 103/413/51 104/416/52 317/417/53
f 317/418/53 104/416/52 105/419/54 316/420/55
f 316/421/55 105/419/54 106/422/56 315/423/57
f 315/424/57 106/422/56 107/425/58 314/426/59
f 314/427/59 107/425/58 108/428/60 311/429/61
f 311/430/61 108/428/60 109/431/62 343/432/63
f 343/433/63 109/431/62 110/434/64 329/435/65
f 110/434/64 111/436/66 327/437/67 329/438/65
f 111/436/66 112/439/68 325/440/69 327/441/67
f 112/439/68 113/442/70 320/443/71 325/444/69
f 113/442/70 114/445/72 324/446/72 320/447/71
f 114/445/72 115/448/73 326/449/74 324/446/72
f 326/450/74 115/448/73 116/451/75 328/452/76
f 328/453/76 116/451/75 117/454/77 337/455/78
f 337/456/78 117/454/77 118/457/79 338/458/80
f 338/458/80 118/457/79 119/459/81 339/460/82
f 339/461/82 119/459/81 120/462/83 333/463/84
f 333/464/84 120/462/83 121/465/85 335/466/86
f 335/467/86 121/465/85 122/468/87 345/469/88
f 345/470/88 122/468/87 123/471/89 347/472/90
f 347/473/90 123/471/89 124/474/91 348/475/92
f 124/474/91 125/476/93 198/477/93 348/478/92
f 198/479/93 125/476/93 126/480/94 197/481/94
f 197/482/94 126/480/94 127/483/95 196/484/96
f 196/485/96 127/483/95 128/486/97 203/487/98
f 203/488/98 128/486/97 129/489/99 199/490/100
f 199/490/100 129/489/99 130/491/101 202/492/102
f 130/491/101 131/493/103 201/494/104 202/495/102
f 131/493/103 132/496/105 200/497/106 201/498/104
f 132/496/105 133/499/107 212/500/108 200/497/106
f 133/499/107 134/501/109 204/502/110 212/500/108
f 134/501/109 135/503/111 206/504/112 204/502/110
f 135/503/111 136/505/113 205/506/114 206/507/112
f 136/505/113 137/508/115 363/509/116 205/510/114
f 137/508/115 138/511/117 362/512/118 363/513/116
f 362/514/118 138/511/117 139/515/119 358/516/120
f 139/515/119 140/517/121 366/518/122 358/519/120
f 140/517/121 141/520/123 359/521/124 366/522/122
f 141/520/123 142/523/125 356/524/126 359/521/124
f 142/523/125 143/525/127 357/526/128 356/524/126
f 143/525/127 144/527/129 360/528/130 357/526/128
f 144/527/129 145/529/131 353/530/132 360/531/130
f 145/529/131 146/532/133 354/533/134 353/530/132
f 354/533/134 146/532/133 147/534/135 352/535/136
f 352/536/136 147/534/135 148/537/137 355/538/138
f 355/539/138 148/537/137 149/540/139 351/541/140
f 351/542/140 149/540/139 150/543/141 350/544/141
f 350/545/141 150/543/141 151/546/142 349/547/143
f 349/548/143 151/546/142 152/549/144 346/550/144
f 346/551/144 152/549/144 153/552/145 344/553/146
f 344/554/146 153/552/145 154/555/147 334/556/147
f 334/557/147 154/555/147 155/558/148 331/559/149
f 331/560/149 155/558/148 156/561/150 332/562/151
f 332/563/151 156/561/150 157/564/152 330/565/153
f 330/566/153 157/564/152 158/567/154 336/568/155
f 336/569/155 158/567/154 159/570/156 342/571/157
f 342/572/157 159/570/156 160/573/158 340/574/158
f 340/575/158 160/573/158 161/576/159 341/577/159
f 341/578/159 161/576/159 162/579/160 321/580/161
f 321/581/161 162/579/160 163/582/162 322/583/163
f 322/584/163 163/582/162 164/585/164 323/586/165
f 164/585/164 165/587/117 367/588/118 323/589/165
f 367/590/118 165/587/117 166/591/119 318/592/120
f 166/591/119 167/593/166 319/594/167 318/595/120
f 167/593/166 168/596/168 309/597/169 319/598/167
f 168/596/168 169/599/170 308/600/171 309/601/169
f 169/599/170 170/602/172 310/603/173 308/604/171
f 170/602/172 171/605/174 306/606/175 310/607/173
f 171/605/174 172/608/176 307/609/177 306/610/175
f 172/608/176 173/611/178 305/612/179 307/609/177
f 305/612/179 173/611/178 174/613/180 312/614/181
f 312/615/181 174/613/180 175/616/182 300/617/183
f 300/618/183 175/616/182 176/619/184 301/620/185
f 301/621/185 176/619/184 177/622/186 299/623/187
f 299/624/187 177/622/186 178/625/188 295/626/189
f 295/627/189 178/625/188 179/628/190 296/629/191
f 296/630/191 179/628/190 180/631/192 313/632/192
f 313/633/192 180/631/192 181/634/193 288/635/193
f 288/636/193 181/634/193 182/637/194 285/638/195
f 285/639/195 182/637/194 183/640/196 286/641/197
f 286/642/197 183/640/196 184/643/198 290/644/198
f 290/645/198 184/643/198 185/646/199 283/647/200
f 283/648/200 185/646/199 186/649/201 284/650/202
f 284/651/202 186/649/201 187/652/203 282/653/204
f 282/653/204 187/652/203 188/654/205 277/655/206
f 277/656/206 188/654/205 189/657/207 275/658/208
f 189/657/207 190/659/209 276/660/210 275/661/208
f 190/659/209 191/662/211 273/663/212 276/664/210
f 191/662/211 192/665/117 272/666/118 273/667/212
f 272/668/118 192/665/117 193/669/119 270/670/120
f 193/669/119 194/671/213 271/672/214 270/673/120
f 271/674/214 194/671/213 195/675/215 281/676/216
f 195/675/215 89/212/33 274/677/32 281/678/216
f 85/215/119 86/679/213 217/680/214 361/681/120
f 226/682/217 217/683/214 86/679/213 87/364/215 245/684/216
f 87/364/215 88/685/117 364/686/118 245/687/216
f 364/688/118 88/685/117 85/212/119 361/689/120
f 223/690/218 37/215/219 38/691/220 224/692/221
f 224/693/221 38/691/220 39/694/222 227/695/223
f 227/696/223 39/694/222 40/697/224 220/698/225
f 220/698/225 40/697/224 41/699/226 229/700/227
f 229/701/227 41/699/226 42/702/119 215/703/228
f 42/702/119 43/704/229 214/705/230 215/703/228
f 43/704/229 44/706/231 218/707/232 214/708/230
f 44/706/231 45/709/233 231/710/234 218/711/232
f 45/709/233 46/712/235 208/713/236 231/710/234
f 46/712/235 47/714/237 209/715/238 208/713/236
f 47/714/237 48/716/26 211/717/239 209/718/238
f 48/716/26 49/679/240 207/719/241 211/720/239
f 49/679/240 50/721/242 210/722/243 207/719/241
f 50/721/242 51/723/244 232/724/245 210/725/243
f 51/723/244 52/726/246 213/727/247 232/728/245
f 52/726/246 53/233/248 219/729/249 213/730/247
f 53/233/248 54/731/213 216/732/250 219/733/249
f 216/734/250 54/731/213 55/735/251 230/736/252
f 230/737/252 55/735/251 56/738/253 221/739/254
f 221/740/254 56/738/253 57/741/255 228/742/256
f 228/743/256 57/741/255 58/744/257 222/745/258
f 222/746/258 58/744/257 59/747/259 225/748/259
f 225/749/259 59/747/259 60/750/217 268/751/217
f 268/752/217 60/750/217 61/364/260 234/753/261
f 234/754/261 61/364/260 62/755/262 239/756/263
f 239/757/263 62/755/262 63/758/264 237/759/265
f 237/760/265 63/758/264 64/761/266 235/762/267
f 235/763/267 64/761/266 65/764/268 249/765/269
f 249/766/269 65/764/268 66/767/215 242/768/270
f 66/767/215 67/769/271 247/770/272 242/768/270
f 67/769/271 68/771/273 244/772/274 247/773/272
f 68/771/273 69/242/275 266/774/276 244/775/274
f 69/242/275 70/776/277 251/777/278 266/778/276
f 70/776/277 71/779/279 256/780/280 251/781/278
f 71/779/279 72/782/22 252/783/281 256/784/280
f 72/782/22 73/685/282 255/785/283 252/786/281
f 73/685/282 74/787/284 250/788/285 255/789/283
f 74/787/284 75/790/286 254/791/287 250/792/285
f 75/790/286 76/793/288 243/794/289 254/791/287
f 76/793/288 77/795/290 246/796/291 243/797/289
f 77/795/290 78/798/117 241/799/292 246/800/291
f 241/801/292 78/798/117 79/802/293 240/803/294
f 240/803/294 79/802/293 80/804/295 248/805/296
f 248/805/296 80/804/295 81/806/297 236/807/298
f 236/807/298 81/806/297 82/808/299 238/809/300
f 238/810/300 82/808/299 83/811/301 233/812/302
f 233/813/302 83/811/301 84/814/303 269/815/303
f 269/816/303 84/814/303 37/212/219 223/817/218
f 262/818/304 25/215/305 26/699/306 264/819/307
f 26/699/306 27/709/308 258/820/309 264/821/307
f 27/709/308 28/679/310 253/822/311 258/823/309
f 253/824/311 28/679/310 29/233/312 365/825/313
f 365/826/313 29/233/312 30/741/314 260/827/315
f 30/741/314 31/364/316 267/828/317 260/827/315
f 267/684/317 31/364/316 32/764/318 265/829/319
f 32/764/318 33/242/320 259/830/320 265/831/319
f 33/242/320 34/685/321 261/832/322 259/833/320
f 261/834/322 34/685/321 35/795/323 263/835/324
f 35/795/323 36/806/325 257/836/326 263/837/324
f 36/806/325 25/212/305 262/838/304 257/839/326
