# Blender 4.5.3 LTS
# www.blender.org
mtllib Cup.mtl
o Casa
v 0.469916 0.410866 1.188701
v 0.413006 0.410044 1.194575
v 0.358283 0.409254 1.211971
v 0.307850 0.408525 1.240221
v 0.263645 0.407886 1.278238
v 0.227367 0.407362 1.324563
v 0.200410 0.406973 1.377414
v 0.183810 0.406733 1.434761
v 0.178205 0.406652 1.494400
v 0.183810 0.406733 1.554039
v 0.200410 0.406973 1.611386
v 0.227367 0.407362 1.664237
v 0.263645 0.407886 1.710562
v 0.307850 0.408525 1.748580
v 0.358283 0.409254 1.776829
v 0.413006 0.410044 1.794225
v 0.469916 0.410866 1.800099
v 0.526826 0.411689 1.794225
v 0.581549 0.412479 1.776829
v 0.631982 0.413208 1.748580
v 0.676187 0.413846 1.710562
v 0.712465 0.414371 1.664237
v 0.739422 0.414760 1.611386
v 0.756022 0.415000 1.554039
v 0.761627 0.415081 1.494400
v 0.756022 0.415000 1.434761
v 0.739422 0.414760 1.377414
v 0.712465 0.414371 1.324563
v 0.676187 0.413846 1.278238
v 0.631982 0.413208 1.240221
v 0.581549 0.412479 1.211971
v 0.526826 0.411689 1.194575
v 0.484908 -0.626835 1.494400
v 0.441574 -0.001930 1.313702
v 0.484807 -0.619865 1.492347
v 0.484425 -0.619865 1.492385
v 0.475880 -0.001930 1.310308
v 0.408536 -0.001930 1.324057
v 0.484056 -0.619865 1.492500
v 0.378043 -0.001930 1.340987
v 0.483716 -0.619865 1.492689
v 0.351280 -0.001930 1.363853
v 0.483418 -0.619865 1.492944
v 0.483172 -0.619865 1.493256
v 0.329291 -0.001930 1.391778
v 0.482990 -0.619865 1.493611
v 0.312938 -0.001930 1.423686
v 0.482878 -0.619865 1.493998
v 0.302862 -0.001930 1.458342
v 0.482840 -0.619865 1.494400
v 0.299458 -0.001930 1.494400
v 0.482878 -0.619865 1.494802
v 0.302862 -0.001930 1.530458
v 0.312938 -0.001930 1.565114
v 0.482990 -0.619865 1.495189
v 0.329291 -0.001930 1.597023
v 0.483172 -0.619865 1.495545
v 0.351280 -0.001930 1.624948
v 0.483418 -0.619865 1.495856
v 0.483716 -0.619865 1.496111
v 0.378043 -0.001930 1.647813
v 0.484056 -0.619865 1.496300
v 0.408536 -0.001930 1.664744
v 0.484425 -0.619865 1.496415
v 0.441574 -0.001930 1.675098
v 0.484807 -0.619865 1.496453
v 0.475880 -0.001930 1.678492
v 0.485189 -0.619865 1.496412
v 0.510131 -0.001930 1.674812
v 0.485556 -0.619865 1.496294
v 0.543015 -0.001930 1.664215
v 0.485894 -0.619865 1.496103
v 0.573277 -0.001930 1.647123
v 0.486189 -0.619865 1.495848
v 0.599766 -0.001930 1.624200
v 0.486431 -0.619865 1.495537
v 0.621482 -0.001930 1.596332
v 0.486611 -0.619865 1.495183
v 0.637604 -0.001930 1.564586
v 0.486722 -0.619865 1.494799
v 0.647525 -0.001930 1.530172
v 0.486759 -0.619865 1.494400
v 0.650874 -0.001930 1.494400
v 0.647525 -0.001930 1.458628
v 0.486722 -0.619865 1.494001
v 0.486611 -0.619865 1.493617
v 0.637604 -0.001930 1.424214
v 0.486431 -0.619865 1.493263
v 0.621482 -0.001930 1.392468
v 0.486189 -0.619865 1.492952
v 0.599766 -0.001930 1.364600
v 0.485894 -0.619865 1.492697
v 0.573277 -0.001930 1.341678
v 0.485556 -0.619865 1.492506
v 0.543015 -0.001930 1.324585
v 0.485189 -0.619865 1.492388
v 0.510131 -0.001930 1.313988
vn -0.0944 -0.2826 -0.9546
vn -0.0942 -0.2826 -0.9546
vn -0.2867 -0.2844 -0.9148
vn -0.2868 -0.2845 -0.9148
vn -0.4652 -0.2853 -0.8380
vn -0.4653 -0.2853 -0.8380
vn -0.6226 -0.2854 -0.7287
vn -0.6225 -0.2853 -0.7288
vn -0.7532 -0.2850 -0.5929
vn -0.7531 -0.2849 -0.5930
vn -0.8532 -0.2842 -0.4374
vn -0.8532 -0.2843 -0.4373
vn -0.9207 -0.2838 -0.2677
vn -0.9208 -0.2837 -0.2677
vn -0.9548 -0.2834 -0.0899
vn -0.9548 -0.2833 -0.0901
vn -0.9548 -0.2833 0.0899
vn -0.9548 -0.2833 0.0901
vn -0.9208 -0.2837 0.2677
vn -0.8532 -0.2843 0.4373
vn -0.7531 -0.2849 0.5930
vn -0.7532 -0.2850 0.5929
vn -0.6225 -0.2854 0.7287
vn -0.6226 -0.2854 0.7287
vn -0.4653 -0.2853 0.8380
vn -0.4652 -0.2853 0.8379
vn -0.2868 -0.2845 0.9148
vn -0.2867 -0.2844 0.9148
vn -0.0942 -0.2826 0.9546
vn -0.0944 -0.2826 0.9546
vn 0.1024 -0.2797 0.9546
vn 0.1026 -0.2797 0.9546
vn 0.2947 -0.2760 0.9149
vn 0.2948 -0.2760 0.9148
vn 0.4735 -0.2718 0.8378
vn 0.4733 -0.2717 0.8379
vn 0.6304 -0.2672 0.7288
vn 0.6306 -0.2673 0.7287
vn 0.7610 -0.2632 0.5929
vn 0.7610 -0.2631 0.5930
vn 0.8611 -0.2595 0.4373
vn 0.9286 -0.2568 0.2678
vn 0.9286 -0.2570 0.2677
vn 0.9625 -0.2557 0.0901
vn 0.9626 -0.2556 0.0901
vn 0.9626 -0.2556 -0.0901
vn 0.9286 -0.2569 -0.2678
vn 0.9286 -0.2570 -0.2677
vn 0.8611 -0.2593 -0.4373
vn 0.8611 -0.2595 -0.4373
vn 0.7610 -0.2632 -0.5929
vn 0.7610 -0.2631 -0.5930
vn 0.6304 -0.2672 -0.7288
vn 0.6306 -0.2673 -0.7287
vn 0.4735 -0.2718 -0.8378
vn 0.4733 -0.2717 -0.8379
vn -0.0144 0.9999 -0.0000
vn 0.2947 -0.2760 -0.9149
vn 0.2948 -0.2760 -0.9148
vn 0.1024 -0.2797 -0.9546
vn 0.1026 -0.2797 -0.9546
vn -0.0000 1.0000 -0.0000
vn -0.0000 -1.0000 -0.0000
vt 0.296822 0.485388
vt 0.250000 0.490000
vt 0.250000 0.394528
vt 0.278218 0.391863
vt 0.250000 0.250000
vt 0.250315 0.251582
vt 0.250000 0.251612
vt 0.341844 0.471731
vt 0.278218 0.391863
vt 0.305395 0.383734
vt 0.250618 0.251492
vt 0.305395 0.383734
vt 0.330477 0.370443
vt 0.383337 0.449553
vt 0.250898 0.251343
vt 0.330477 0.370443
vt 0.352491 0.352491
vt 0.419706 0.419706
vt 0.251143 0.251143
vt 0.250898 0.251343
vt 0.251345 0.250899
vt 0.370578 0.330568
vt 0.449553 0.383337
vt 0.251495 0.250619
vt 0.384030 0.305517
vt 0.471731 0.341844
vt 0.370578 0.330568
vt 0.251495 0.250619
vt 0.251587 0.250316
vt 0.485388 0.296822
vt 0.392318 0.278309
vt 0.251619 0.250000
vt 0.251587 0.250316
vt 0.395118 0.250000
vt 0.490000 0.250000
vt 0.251587 0.249684
vt 0.485388 0.203178
vt 0.392318 0.221691
vt 0.471731 0.158156
vt 0.384030 0.194483
vt 0.251495 0.249381
vt 0.251587 0.249684
vt 0.370578 0.169432
vt 0.449553 0.116663
vt 0.251345 0.249101
vt 0.352491 0.147509
vt 0.419706 0.080294
vt 0.251143 0.248857
vt 0.251345 0.249101
vt 0.250898 0.248657
vt 0.251143 0.248857
vt 0.383337 0.050447
vt 0.352491 0.147509
vt 0.330477 0.129557
vt 0.250618 0.248508
vt 0.250898 0.248657
vt 0.341844 0.028269
vt 0.330477 0.129557
vt 0.305395 0.116266
vt 0.250315 0.248418
vt 0.250618 0.248508
vt 0.296822 0.014612
vt 0.305395 0.116266
vt 0.278218 0.108136
vt 0.250000 0.248388
vt 0.250000 0.010000
vt 0.278218 0.108136
vt 0.250000 0.105472
vt 0.249686 0.248420
vt 0.250000 0.248388
vt 0.221826 0.108361
vt 0.203178 0.014612
vt 0.249686 0.248420
vt 0.249384 0.248513
vt 0.194777 0.116681
vt 0.158156 0.028269
vt 0.221826 0.108361
vt 0.249384 0.248513
vt 0.249106 0.248663
vt 0.116663 0.050447
vt 0.194777 0.116681
vt 0.169885 0.130100
vt 0.249106 0.248663
vt 0.248863 0.248863
vt 0.080294 0.080294
vt 0.169885 0.130100
vt 0.148096 0.148096
vt 0.248664 0.249107
vt 0.050447 0.116663
vt 0.148096 0.148096
vt 0.130234 0.169975
vt 0.248516 0.249385
vt 0.028269 0.158156
vt 0.130234 0.169975
vt 0.116972 0.194898
vt 0.248425 0.249687
vt 0.248516 0.249385
vt 0.014612 0.203178
vt 0.116973 0.194898
vt 0.108811 0.221916
vt 0.248395 0.250000
vt 0.248425 0.249687
vt 0.106056 0.250000
vt 0.010000 0.250000
vt 0.108811 0.221916
vt 0.108811 0.278084
vt 0.014612 0.296822
vt 0.248395 0.250000
vt 0.248425 0.250313
vt 0.248516 0.250615
vt 0.116973 0.305102
vt 0.028269 0.341844
vt 0.248516 0.250615
vt 0.248664 0.250893
vt 0.050447 0.383337
vt 0.116973 0.305102
vt 0.130234 0.330025
vt 0.248863 0.251137
vt 0.080294 0.419706
vt 0.130234 0.330025
vt 0.148096 0.351904
vt 0.249106 0.251337
vt 0.248863 0.251137
vt 0.169885 0.369900
vt 0.116663 0.449553
vt 0.249384 0.251487
vt 0.249106 0.251337
vt 0.194777 0.383319
vt 0.158156 0.471731
vt 0.169885 0.369900
vt 0.703178 0.485388
vt 0.750000 0.490000
vt 0.796822 0.485388
vt 0.841844 0.471731
vt 0.883337 0.449553
vt 0.919706 0.419706
vt 0.949553 0.383337
vt 0.971731 0.341844
vt 0.985388 0.296822
vt 0.990000 0.250000
vt 0.985388 0.203178
vt 0.971731 0.158156
vt 0.949553 0.116663
vt 0.919706 0.080294
vt 0.883337 0.050447
vt 0.841844 0.028269
vt 0.796822 0.014612
vt 0.750000 0.010000
vt 0.703178 0.014612
vt 0.658156 0.028269
vt 0.616663 0.050447
vt 0.580294 0.080294
vt 0.550447 0.116663
vt 0.528269 0.158156
vt 0.514612 0.203178
vt 0.510000 0.250000
vt 0.514612 0.296822
vt 0.528269 0.341844
vt 0.550447 0.383337
vt 0.580294 0.419706
vt 0.616663 0.449553
vt 0.658156 0.471731
vt 0.249686 0.251580
vt 0.203178 0.485388
vt 0.194777 0.383319
vt 0.221826 0.391639
vt 0.250000 0.251612
vt 0.249686 0.251580
vt 0.253419 0.626831
vt 0.253220 0.626850
vt 0.253028 0.626907
vt 0.252850 0.627001
vt 0.252695 0.627128
vt 0.252567 0.627284
vt 0.252472 0.627461
vt 0.252413 0.627654
vt 0.252393 0.627855
vt 0.252413 0.628055
vt 0.252472 0.628248
vt 0.252567 0.628425
vt 0.252695 0.628581
vt 0.252850 0.628708
vt 0.253028 0.628802
vt 0.253220 0.628860
vt 0.253419 0.628878
vt 0.253618 0.628858
vt 0.253809 0.628799
vt 0.253985 0.628704
vt 0.254139 0.628576
vt 0.254266 0.628421
vt 0.254359 0.628245
vt 0.254417 0.628053
vt 0.254437 0.627855
vt 0.254417 0.627656
vt 0.254359 0.627464
vt 0.254266 0.627288
vt 0.254139 0.627133
vt 0.253985 0.627005
vt 0.253810 0.626910
vt 0.253618 0.626851
vt 0.675326 0.577026
vt 0.666921 0.592856
vt 0.661748 0.610017
vt 0.660002 0.627854
vt 0.661748 0.645692
vt 0.666921 0.662853
vt 0.675326 0.678683
vt 0.686647 0.692580
vt 0.700457 0.704010
vt 0.716234 0.712533
vt 0.733378 0.717817
vt 0.751235 0.719652
vt 0.769120 0.717960
vt 0.786345 0.712797
vt 0.802243 0.704354
vt 0.816195 0.692952
vt 0.827659 0.679027
vt 0.836185 0.663116
vt 0.841438 0.645835
vt 0.843213 0.627855
vt 0.841438 0.609874
vt 0.836185 0.592593
vt 0.827659 0.576681
vt 0.816196 0.562757
vt 0.802243 0.551355
vt 0.786345 0.542912
vt 0.769120 0.537749
vt 0.751235 0.536057
vt 0.733378 0.537892
vt 0.716234 0.543176
vt 0.700457 0.551699
vt 0.686647 0.563129
s 0
usemtl Material.009
f 2/1/1 1/2/1 37/3/1 34/4/1
f 33/5/2 36/6/2 35/7/2
f 3/8/3 2/1/3 34/9/3 38/10/3
f 33/5/4 39/11/4 36/6/4
f 3/8/5 38/12/5 40/13/5 4/14/5
f 33/5/6 41/15/6 39/11/6
f 4/14/7 40/16/7 42/17/7 5/18/7
f 33/5/8 43/19/8 41/20/8
f 44/21/9 43/19/9 33/5/9
f 45/22/10 6/23/10 5/18/10 42/17/10
f 46/24/11 44/21/11 33/5/11
f 47/25/12 7/26/12 6/23/12 45/27/12
f 46/28/13 33/5/13 48/29/13
f 8/30/14 7/26/14 47/25/14 49/31/14
f 50/32/15 48/33/15 33/5/15
f 49/31/16 51/34/16 9/35/16 8/30/16
f 33/5/17 52/36/17 50/32/17
f 10/37/18 9/35/18 51/34/18 53/38/18
f 11/39/19 10/37/19 53/38/19 54/40/19
f 33/5/19 55/41/19 52/42/19
f 11/39/20 54/40/20 56/43/20 12/44/20
f 33/5/20 57/45/20 55/41/20
f 12/44/21 56/43/21 58/46/21 13/47/21
f 33/5/22 59/48/22 57/49/22
f 33/5/23 60/50/23 59/51/23
f 14/52/24 13/47/24 58/53/24 61/54/24
f 33/5/25 62/55/25 60/56/25
f 15/57/26 14/52/26 61/58/26 63/59/26
f 33/5/27 64/60/27 62/61/27
f 16/62/28 15/57/28 63/63/28 65/64/28
f 33/5/29 66/65/29 64/60/29
f 17/66/30 16/62/30 65/67/30 67/68/30
f 33/5/31 68/69/31 66/70/31
f 69/71/32 18/72/32 17/66/32 67/68/32
f 68/73/33 33/5/33 70/74/33
f 71/75/34 19/76/34 18/72/34 69/77/34
f 70/78/35 33/5/35 72/79/35
f 20/80/36 19/76/36 71/81/36 73/82/36
f 72/83/37 33/5/37 74/84/37
f 21/85/38 20/80/38 73/86/38 75/87/38
f 33/5/39 76/88/39 74/84/39
f 22/89/40 21/85/40 75/90/40 77/91/40
f 33/5/41 78/92/41 76/88/41
f 23/93/41 22/89/41 77/94/41 79/95/41
f 33/5/42 80/96/42 78/97/42
f 24/98/43 23/93/43 79/99/43 81/100/43
f 33/5/44 82/101/44 80/102/44
f 83/103/45 25/104/45 24/98/45 81/105/45
f 84/106/46 26/107/46 25/104/46 83/103/46
f 82/108/46 33/5/46 85/109/46
f 85/109/47 33/5/47 86/110/47
f 87/111/48 27/112/48 26/107/48 84/106/48
f 86/113/49 33/5/49 88/114/49
f 28/115/50 27/112/50 87/116/50 89/117/50
f 88/114/51 33/5/51 90/118/51
f 29/119/52 28/115/52 89/120/52 91/121/52
f 92/122/53 90/123/53 33/5/53
f 93/124/54 30/125/54 29/119/54 91/121/54
f 94/126/55 92/127/55 33/5/55
f 95/128/56 31/129/56 30/125/56 93/130/56
f 32/131/57 1/132/57 2/133/57 3/134/57 4/135/57 5/136/57 6/137/57 7/138/57 8/139/57 9/140/57 10/141/57 11/142/57 12/143/57 13/144/57 14/145/57 15/146/57 16/147/57 17/148/57 18/149/57 19/150/57 20/151/57 21/152/57 22/153/57 23/154/57 24/155/57 25/156/57 26/157/57 27/158/57 28/159/57 29/160/57 30/161/57 31/162/57
f 96/163/58 94/126/58 33/5/58
f 32/164/59 31/129/59 95/165/59 97/166/59
f 33/5/60 35/167/60 96/168/60
f 1/2/61 32/164/61 97/166/61 37/3/61
f 35/169/62 36/170/62 39/171/62 41/172/62 43/173/62 44/174/62 46/175/62 48/176/62 50/177/62 52/178/62 55/179/62 57/180/62 59/181/62 60/182/62 62/183/62 64/184/62 66/185/62 68/186/62 70/187/62 72/188/62 74/189/62 76/190/62 78/191/62 80/192/62 82/193/62 85/194/62 86/195/62 88/196/62 90/197/62 92/198/62 94/199/62 96/200/62
f 89/201/63 87/202/63 84/203/63 83/204/63 81/205/63 79/206/63 77/207/63 75/208/63 73/209/63 71/210/63 69/211/63 67/212/63 65/213/63 63/214/63 61/215/63 58/216/63 56/217/63 54/218/63 53/219/63 51/220/63 49/221/63 47/222/63 45/223/63 42/224/63 40/225/63 38/226/63 34/227/63 37/228/63 97/229/63 95/230/63 93/231/63 91/232/63
