# Blender 4.5.3 LTS
# www.blender.org
mtllib MachineModel.mtl
o Aparat_za_sladoled
v -1.430670 -0.321002 0.291748
v -1.138737 0.758087 -0.373914
v -1.430670 -0.321002 -1.708252
v -1.060892 0.758087 -0.366138
v -0.580707 -0.163630 -0.778144
v -1.430670 1.678998 -1.708252
v -0.986038 0.758087 -0.343108
v -0.542124 -0.167610 -0.246380
v -0.580707 0.952264 -0.778144
v 0.569330 -0.321002 0.291748
v -0.917052 0.758087 -0.305709
v 0.569330 1.678998 0.291748
v 0.569330 -0.321002 -1.708252
v -0.856586 0.758087 -0.255380
v 0.446111 -0.163630 -0.778144
v 0.569330 1.678998 -1.708252
v 0.446111 0.952264 -0.778144
v -0.580707 0.952264 0.291748
v 0.446111 -0.163630 0.291748
v 0.446111 0.952264 0.291748
v -1.420887 0.758087 -0.255380
v -1.360421 0.758087 -0.305709
v -1.291435 0.758087 -0.343108
v -1.216582 0.758087 -0.366138
v -1.430670 1.678998 -0.243290
v -0.836190 1.678998 0.291748
v -1.420887 1.678998 -0.255380
v -1.291435 1.678998 -0.343108
v -1.360421 1.678998 -0.305709
v -1.138737 1.678998 -0.373914
v -0.986038 1.678998 -0.343108
v -0.917052 1.678998 -0.305709
v -1.060892 1.678998 -0.366138
v -1.216582 1.678998 -0.366138
v -0.806963 1.678998 -0.194053
v -0.806963 1.678998 0.255627
v -0.856586 1.678998 -0.255380
v -0.739716 1.678998 0.030787
v -0.747383 1.678998 -0.048166
v -0.770089 1.678998 0.185660
v -0.747383 1.678998 0.109741
v -0.770089 1.678998 -0.124085
v -1.430670 0.948284 -0.246380
v -1.430670 0.948284 -0.243290
v -1.430670 -0.167610 -0.246380
v -1.430670 -0.167610 0.291748
v -0.542124 -0.163630 0.291748
v -0.542124 -0.167610 0.291748
v -0.580707 0.948284 0.291748
v -0.836190 0.948284 0.291748
v -0.580707 0.948284 -0.246380
v -0.580707 -0.163630 -0.246380
v -0.542124 -0.163630 -0.246380
v -0.849304 0.758087 -0.246380
v -0.806963 0.948284 -0.194053
v -0.849304 0.948284 -0.246380
v -0.770089 0.948284 -0.124085
v -0.747383 0.948284 -0.048166
v -0.739716 0.948284 0.030787
v -0.747383 0.948284 0.109741
v -0.770089 0.948284 0.185660
v -0.806963 0.948284 0.255627
v -1.428169 0.948284 -0.246380
v -1.428169 0.758087 -0.246380
vn -1.0000 -0.0000 -0.0000
vn -0.0000 -0.0000 -1.0000
vn 1.0000 -0.0000 -0.0000
vn -0.0000 -0.0000 1.0000
vn -0.0000 -1.0000 -0.0000
vn -0.0000 1.0000 -0.0000
vn -0.0994 -0.0000 0.9950
vn -0.2941 -0.0000 0.9558
vn -0.4766 -0.0000 0.8791
vn -0.6397 -0.0000 0.7686
vn -0.7774 -0.0000 0.6290
vn -0.8847 -0.0000 0.4662
vn -0.9581 -0.0000 0.2865
vn -0.9953 -0.0000 0.0967
vn -0.9953 -0.0000 -0.0967
vn -0.9581 -0.0000 -0.2865
vn -0.8847 -0.0000 -0.4662
vn -0.7774 -0.0000 -0.6290
vn 0.7774 -0.0000 0.6290
vn 0.6397 -0.0000 0.7686
vn 0.4766 -0.0000 0.8791
vn 0.2941 -0.0000 0.9558
vn 0.0994 -0.0000 0.9950
vt 0.500000 0.066955
vt 0.500000 0.250043
vt 0.250043 0.250043
vt 0.250043 0.000087
vt 0.269214 0.000087
vt 0.269214 0.067341
vt 0.408677 0.067341
vt 0.408677 0.066955
vt 0.500000 0.500000
vt 0.250043 0.500000
vt 0.500000 0.749957
vt 0.250043 0.749957
vt 0.269711 0.765356
vt 0.409174 0.765356
vt 0.269214 0.999913
vt 0.250043 0.999913
vt 0.269711 0.888864
vt 0.269214 0.888864
vt 0.408677 0.893687
vt 0.409174 0.893687
vt 0.500000 0.925616
vt 0.408677 0.925616
vt 0.000087 0.500000
vt 0.000087 0.749957
vt 0.672007 0.745442
vt 0.675660 0.749957
vt 0.749957 0.500000
vt 0.749957 0.683089
vt 0.748734 0.681578
vt 0.741177 0.675287
vt 0.732555 0.670613
vt 0.723200 0.667735
vt 0.713471 0.666763
vt 0.703742 0.667735
vt 0.694387 0.670613
vt 0.685766 0.675287
vt 0.678209 0.681578
vt 0.672007 0.689242
vt 0.667398 0.697987
vt 0.664561 0.707475
vt 0.663602 0.717342
vt 0.664561 0.727210
vt 0.667398 0.736698
vt 0.375000 0.250000
vt 0.625000 0.250000
vt 0.625000 0.017101
vt 0.624108 0.017101
vt 0.624108 0.134243
vt 0.375000 0.134243
vt 0.375000 0.500000
vt 0.625000 0.500000
vt 0.375000 0.732899
vt 0.625000 0.732899
vt 0.134394 0.732899
vt 0.375000 0.732899
vt 0.125000 0.500000
vt 0.125000 0.615757
vt 0.134394 0.615757
vt 0.875000 0.732899
vt 0.875000 0.500000
vt 0.791421 0.000171
vt 0.507627 0.000171
vt 0.507627 0.021304
vt 0.791421 0.021304
vt 0.791421 0.021304
vt 0.507627 0.042438
vt 0.791421 0.042438
vt 0.791421 0.042438
vt 0.507627 0.063571
vt 0.791421 0.063571
vt 0.791421 0.063571
vt 0.507627 0.084705
vt 0.791421 0.084705
vt 0.791421 0.105838
vt 0.791421 0.084705
vt 0.507627 0.087806
vt 0.566239 0.087806
vt 0.566240 0.105838
vt 0.566240 0.126972
vt 0.791421 0.126972
vt 0.791421 0.105838
vt 0.566240 0.148105
vt 0.791421 0.148105
vt 0.791421 0.126972
vt 0.566240 0.169238
vt 0.791421 0.169238
vt 0.791421 0.148105
vt 0.566240 0.190372
vt 0.791421 0.190372
vt 0.791421 0.169238
vt 0.566240 0.211505
vt 0.791421 0.211505
vt 0.791421 0.190372
vt 0.566240 0.232639
vt 0.791421 0.232639
vt 0.791421 0.211505
vt 0.566239 0.245086
vt 0.791421 0.245086
vt 0.791421 0.232639
vt 0.566240 0.588806
vt 0.507627 0.588806
vt 0.507627 0.591907
vt 0.791421 0.591907
vt 0.791421 0.587741
vt 0.566239 0.587741
vt 0.791421 0.591907
vt 0.507627 0.613040
vt 0.791421 0.613040
vt 0.791421 0.613040
vt 0.507627 0.634174
vt 0.791421 0.634174
vt 0.791421 0.634174
vt 0.507627 0.655307
vt 0.791421 0.655307
vt 0.791421 0.655307
vt 0.507627 0.676441
vt 0.791421 0.676441
vt 0.213122 0.991718
vt 0.208809 0.993505
vt 0.177603 0.999712
vt 0.145785 0.999712
vt 0.114579 0.993505
vt 0.085184 0.981329
vt 0.058729 0.963652
vt 0.036231 0.941154
vt 0.018554 0.914699
vt 0.006378 0.885303
vt 0.005467 0.880724
vt 0.625000 0.283665
vt 0.375000 0.283665
vt 0.375892 0.500000
vt 0.375892 0.490606
vt 0.625000 0.490606
vt 0.625000 0.425211
vt 0.582389 0.425211
vt 0.582389 0.284274
vt 0.625000 0.284274
vt 0.375000 0.723986
vt 0.375892 0.723986
vt 0.375000 0.723986
vt 0.158665 0.500000
vt 0.158665 0.723986
vt 0.840726 0.500000
vt 0.841335 0.501286
vt 0.841335 0.500000
vt 0.634394 0.723986
vt 0.696596 0.723986
vt 0.689480 0.708951
vt 0.680503 0.679829
vt 0.674974 0.648229
vt 0.673108 0.615366
vt 0.674974 0.582503
vt 0.680503 0.550903
vt 0.689480 0.521780
vt 0.699789 0.500000
vt 0.634394 0.500000
s 0
usemtl Material.002
f 25/1/1 6/2/1 3/3/1 1/4/1 46/5/1 45/6/1 43/7/1 44/8/1
f 3/3/2 6/2/2 16/9/2 13/10/2
f 13/10/3 16/9/3 12/11/3 10/12/3
f 19/13/4 10/12/4 12/11/4 20/14/4
f 46/15/4 1/16/4 10/12/4 19/13/4 47/17/4 48/18/4
f 49/19/4 18/20/4 20/14/4 12/11/4 26/21/4 50/22/4
f 3/23/5 13/10/5 10/12/5 1/24/5
f 36/25/6 26/26/6 12/11/6 16/9/6 6/27/6 25/28/6 27/29/6 29/30/6 28/31/6 34/32/6 30/33/6 33/34/6 31/35/6 32/36/6 37/37/6 35/38/6 42/39/6 39/40/6 38/41/6 41/42/6 40/43/6
f 5/44/3 9/45/3 18/46/3 49/47/3 51/48/3 52/49/3
f 5/44/4 15/50/4 17/51/4 9/45/4
f 17/51/1 15/50/1 19/52/1 20/53/1
f 47/54/6 19/55/6 15/50/6 5/56/6 52/57/6 53/58/6
f 18/59/5 9/60/5 17/51/5 20/53/5
f 30/61/7 2/62/7 4/63/7 33/64/7
f 33/65/8 4/63/8 7/66/8 31/67/8
f 31/68/9 7/66/9 11/69/9 32/70/9
f 32/71/10 11/69/10 14/72/10 37/73/10
f 35/74/11 37/75/11 14/72/11 54/76/11 56/77/11 55/78/11
f 57/79/12 42/80/12 35/81/12 55/78/12
f 58/82/13 39/83/13 42/84/13 57/79/13
f 59/85/14 38/86/14 39/87/14 58/82/14
f 60/88/15 41/89/15 38/90/15 59/85/15
f 61/91/16 40/92/16 41/93/16 60/88/16
f 62/94/17 36/95/17 40/96/17 61/91/17
f 50/97/18 26/98/18 36/99/18 62/94/18
f 63/100/19 64/101/19 21/102/19 27/103/19 25/104/19 44/105/19
f 27/106/20 21/102/20 22/107/20 29/108/20
f 29/109/21 22/107/21 23/110/21 28/111/21
f 28/112/22 23/110/22 24/113/22 34/114/22
f 34/115/23 24/113/23 2/116/23 30/117/23
f 54/118/6 14/119/6 11/120/6 7/121/6 4/122/6 2/123/6 24/124/6 23/125/6 22/126/6 21/127/6 64/128/6
f 43/129/4 45/130/4 8/50/4 53/131/4 52/132/4 51/133/4 56/134/4 54/135/4 64/136/4 63/137/4
f 8/50/1 48/138/1 47/139/1 53/131/1
f 48/140/6 8/50/6 45/141/6 46/142/6
f 63/143/5 44/144/5 43/145/5
f 49/146/5 50/147/5 62/148/5 61/149/5 60/150/5 59/151/5 58/152/5 57/153/5 55/154/5 56/155/5 51/156/5
o Pipak
v -0.090501 0.831422 0.040988
v -0.090501 1.060041 0.040988
v -0.090501 1.060041 -0.102718
v 0.052363 0.831422 0.040988
v 0.052363 1.060041 0.040988
v 0.015528 0.973288 -0.080002
v 0.052363 0.831422 -0.102718
v 0.052363 1.060041 -0.102718
v -0.090501 0.831422 -0.080002
v -0.090501 0.973288 -0.080002
v -0.090501 0.973288 -0.102718
v 0.015528 0.973288 -0.102718
v 0.015528 0.831422 -0.102718
v 0.015528 0.831422 -0.080002
vn -1.0000 -0.0000 -0.0000
vn -0.0000 -0.0000 -1.0000
vn 1.0000 -0.0000 -0.0000
vn -0.0000 -0.0000 1.0000
vn -0.0000 -1.0000 -0.0000
vn -0.0000 1.0000 -0.0000
vt 0.375000 0.000000
vt 0.625000 0.000000
vt 0.625000 0.250000
vt 0.530134 0.250000
vt 0.530134 0.210482
vt 0.375000 0.210482
vt 0.625000 0.500000
vt 0.375000 0.500000
vt 0.375000 0.435540
vt 0.530134 0.435540
vt 0.625000 0.750000
vt 0.375000 0.750000
vt 0.625000 1.000000
vt 0.375000 1.000000
vt 0.310540 0.500000
vt 0.125000 0.750000
vt 0.125000 0.539518
vt 0.310540 0.539518
vt 0.875000 0.500000
vt 0.875000 0.750000
vt 0.625000 0.696868
vt 0.416422 0.696868
vt 0.416422 0.750000
vt 0.625000 0.999460
vt 0.416422 0.999460
vt 0.874460 0.750000
vt 0.874460 0.696868
s 0
usemtl Material.008
f 65/157/24 66/158/24 67/159/24 75/160/24 74/161/24 73/162/24
f 67/159/25 72/163/25 71/164/25 77/165/25 76/166/25 75/160/25
f 71/164/26 72/163/26 69/167/26 68/168/26
f 68/168/27 69/167/27 66/169/27 65/170/27
f 77/171/28 71/164/28 68/168/28 65/172/28 73/173/28 78/174/28
f 72/163/29 67/175/29 66/176/29 69/167/29
f 70/167/24 76/177/24 77/178/24 78/179/24
f 74/180/25 70/167/25 78/179/25 73/181/25
f 76/177/28 70/167/28 74/182/28 75/183/28
