# Blender 4.5.3 LTS
# www.blender.org
mtllib Pour.mtl
o NurbsPath
v 0.424606 1.130968 1.499915
v 0.489945 1.096601 1.501216
v 0.442806 1.130706 1.543864
v 0.491223 1.095305 1.500865
v 0.486747 1.130072 1.562069
v 0.491632 1.092804 1.501151
v 0.530688 1.129439 1.543864
v 0.490585 1.097644 1.501485
v 0.548889 1.129177 1.499915
v 0.490493 1.097444 1.500676
v 0.530688 1.129439 1.455965
v 0.490661 1.097828 1.500619
v 0.486747 1.130072 1.437761
v 0.490515 1.097350 1.500793
v 0.442806 1.130706 1.455965
v 0.491083 1.095499 1.500532
v 0.424802 1.144600 1.499915
v 0.450502 1.144229 1.515012
v 0.443003 1.144337 1.543864
v 0.471849 1.143921 1.536364
v 0.486944 1.143704 1.562069
v 0.502038 1.143486 1.536364
v 0.530884 1.143071 1.543864
v 0.523385 1.143179 1.515012
v 0.549085 1.142808 1.499915
v 0.523385 1.143179 1.484818
v 0.530884 1.143071 1.455965
v 0.502038 1.143486 1.463466
v 0.486944 1.143704 1.437761
v 0.471849 1.143921 1.463466
v 0.443003 1.144337 1.455965
v 0.450502 1.144229 1.484818
v 0.424999 1.158231 1.499915
v 0.450699 1.157861 1.515012
v 0.443199 1.157969 1.543864
v 0.472046 1.157553 1.536364
v 0.487140 1.157336 1.562069
v 0.502235 1.157118 1.536364
v 0.531081 1.156702 1.543864
v 0.523581 1.156810 1.515012
v 0.549281 1.156440 1.499915
v 0.523581 1.156810 1.484818
v 0.531081 1.156702 1.455965
v 0.502235 1.157118 1.463466
v 0.487140 1.157336 1.437761
v 0.472046 1.157553 1.463466
v 0.443199 1.157969 1.455965
v 0.450699 1.157861 1.484818
v 0.425195 1.171863 1.499915
v 0.450895 1.171492 1.515012
v 0.443396 1.171600 1.543864
v 0.472242 1.171185 1.536364
v 0.487337 1.170967 1.562069
v 0.502431 1.170750 1.536364
v 0.531277 1.170334 1.543864
v 0.523778 1.170442 1.515012
v 0.549478 1.170072 1.499915
v 0.523778 1.170442 1.484818
v 0.531277 1.170334 1.455965
v 0.502431 1.170750 1.463466
v 0.487337 1.170967 1.437761
v 0.472242 1.171185 1.463466
v 0.443396 1.171600 1.455965
v 0.450895 1.171492 1.484818
v 0.425391 1.185494 1.499915
v 0.451092 1.185124 1.515012
v 0.443592 1.185232 1.543864
v 0.472438 1.184816 1.536364
v 0.487533 1.184599 1.562069
v 0.502627 1.184381 1.536364
v 0.531474 1.183966 1.543864
v 0.523974 1.184074 1.515012
v 0.549674 1.183703 1.499915
v 0.523974 1.184074 1.484818
v 0.531474 1.183966 1.455965
v 0.502627 1.184381 1.463466
v 0.487533 1.184599 1.437761
v 0.472438 1.184816 1.463466
v 0.443592 1.185232 1.455965
v 0.451092 1.185124 1.484818
v 0.425588 1.199126 1.499915
v 0.451288 1.198756 1.515012
v 0.443789 1.198864 1.543864
v 0.472635 1.198448 1.536364
v 0.487729 1.198231 1.562069
v 0.502824 1.198013 1.536364
v 0.531670 1.197597 1.543864
v 0.524171 1.197705 1.515012
v 0.549871 1.197335 1.499915
v 0.524171 1.197705 1.484818
v 0.531670 1.197597 1.455965
v 0.502824 1.198013 1.463466
v 0.487729 1.198231 1.437761
v 0.472635 1.198448 1.463466
v 0.443789 1.198864 1.455965
v 0.451288 1.198756 1.484818
v 0.425784 1.212758 1.499915
v 0.451485 1.212387 1.515012
v 0.443985 1.212495 1.543864
v 0.472831 1.212080 1.536364
v 0.487926 1.211862 1.562069
v 0.503020 1.211645 1.536364
v 0.531867 1.211229 1.543864
v 0.524367 1.211337 1.515012
v 0.550067 1.210966 1.499915
v 0.524367 1.211337 1.484818
v 0.531867 1.211229 1.455965
v 0.503020 1.211645 1.463466
v 0.487926 1.211862 1.437761
v 0.472831 1.212080 1.463466
v 0.443985 1.212495 1.455965
v 0.451485 1.212387 1.484818
v 0.425981 1.226389 1.499915
v 0.451681 1.226019 1.515012
v 0.444182 1.226127 1.543864
v 0.473028 1.225711 1.536364
v 0.488122 1.225494 1.562069
v 0.503217 1.225276 1.536364
v 0.532063 1.224860 1.543864
v 0.524564 1.224968 1.515012
v 0.550264 1.224598 1.499915
v 0.524564 1.224968 1.484818
v 0.532063 1.224860 1.455965
v 0.503217 1.225276 1.463466
v 0.488122 1.225494 1.437761
v 0.473028 1.225711 1.463466
v 0.444182 1.226127 1.455965
v 0.451681 1.226019 1.484818
v 0.426177 1.240021 1.499915
v 0.451877 1.239650 1.515012
v 0.444378 1.239759 1.543864
v 0.473224 1.239343 1.536364
v 0.488319 1.239125 1.562069
v 0.503413 1.238908 1.536364
v 0.532259 1.238492 1.543864
v 0.524760 1.238600 1.515012
v 0.550460 1.238230 1.499915
v 0.524760 1.238600 1.484818
v 0.532259 1.238492 1.455965
v 0.503413 1.238908 1.463466
v 0.488319 1.239125 1.437761
v 0.473224 1.239343 1.463466
v 0.444378 1.239759 1.455965
v 0.451877 1.239650 1.484818
v 0.426374 1.253653 1.499915
v 0.452074 1.253282 1.515012
v 0.444575 1.253390 1.543864
v 0.473421 1.252975 1.536364
v 0.488515 1.252757 1.562069
v 0.503610 1.252539 1.536364
v 0.532456 1.252124 1.543864
v 0.524957 1.252232 1.515012
v 0.550657 1.251861 1.499915
v 0.524957 1.252232 1.484818
v 0.532456 1.252124 1.455965
v 0.503610 1.252539 1.463466
v 0.488515 1.252757 1.437761
v 0.473421 1.252975 1.463466
v 0.444575 1.253390 1.455965
v 0.452074 1.253282 1.484818
v 0.426570 1.267284 1.499915
v 0.452270 1.266914 1.515012
v 0.444771 1.267022 1.543864
v 0.473617 1.266606 1.536364
v 0.488712 1.266389 1.562069
v 0.503806 1.266171 1.536364
v 0.532652 1.265755 1.543864
v 0.525153 1.265863 1.515012
v 0.550853 1.265493 1.499915
v 0.525153 1.265863 1.484818
v 0.532652 1.265755 1.455965
v 0.503806 1.266171 1.463466
v 0.488712 1.266389 1.437761
v 0.473617 1.266606 1.463466
v 0.444771 1.267022 1.455965
v 0.452270 1.266914 1.484818
v 0.426767 1.280916 1.499915
v 0.452467 1.280545 1.515012
v 0.444968 1.280653 1.543864
v 0.473814 1.280238 1.536364
v 0.488908 1.280020 1.562069
v 0.504003 1.279803 1.536364
v 0.532849 1.279387 1.543864
v 0.525349 1.279495 1.515012
v 0.551050 1.279124 1.499915
v 0.525349 1.279495 1.484818
v 0.532849 1.279387 1.455965
v 0.504003 1.279803 1.463466
v 0.488908 1.280020 1.437761
v 0.473814 1.280238 1.463466
v 0.444968 1.280653 1.455965
v 0.452467 1.280545 1.484818
v 0.426963 1.294547 1.499915
v 0.452663 1.294177 1.515012
v 0.445164 1.294285 1.543864
v 0.474010 1.293869 1.536364
v 0.489105 1.293652 1.562069
v 0.504199 1.293434 1.536364
v 0.533045 1.293018 1.543864
v 0.525546 1.293127 1.515012
v 0.551246 1.292756 1.499915
v 0.525546 1.293127 1.484818
v 0.533045 1.293018 1.455965
v 0.504199 1.293434 1.463466
v 0.489105 1.293652 1.437761
v 0.474010 1.293869 1.463466
v 0.445164 1.294285 1.455965
v 0.452663 1.294177 1.484818
v 0.427160 1.308179 1.499915
v 0.452860 1.307809 1.515012
v 0.445360 1.307917 1.543864
v 0.474207 1.307501 1.536364
v 0.489301 1.307283 1.562069
v 0.504396 1.307066 1.536364
v 0.533242 1.306650 1.543864
v 0.525742 1.306758 1.515012
v 0.551443 1.306388 1.499915
v 0.525742 1.306758 1.484818
v 0.533242 1.306650 1.455965
v 0.504396 1.307066 1.463466
v 0.489301 1.307283 1.437761
v 0.474207 1.307501 1.463466
v 0.445360 1.307917 1.455965
v 0.452860 1.307809 1.484818
v 0.427356 1.321811 1.499915
v 0.453056 1.321440 1.515012
v 0.445557 1.321548 1.543864
v 0.474403 1.321133 1.536364
v 0.489498 1.320915 1.562069
v 0.504592 1.320697 1.536364
v 0.533438 1.320282 1.543864
v 0.525939 1.320390 1.515012
v 0.551639 1.320019 1.499915
v 0.525939 1.320390 1.484818
v 0.533438 1.320282 1.455965
v 0.504592 1.320697 1.463466
v 0.489498 1.320915 1.437761
v 0.474403 1.321133 1.463466
v 0.445557 1.321548 1.455965
v 0.453056 1.321440 1.484818
v 0.427552 1.335442 1.499915
v 0.453253 1.335072 1.515012
v 0.445753 1.335180 1.543864
v 0.474599 1.334764 1.536364
v 0.489694 1.334547 1.562069
v 0.504788 1.334329 1.536364
v 0.533635 1.333913 1.543864
v 0.526135 1.334021 1.515012
v 0.551835 1.333651 1.499915
v 0.526135 1.334021 1.484818
v 0.533635 1.333913 1.455965
v 0.504788 1.334329 1.463466
v 0.489694 1.334547 1.437761
v 0.474599 1.334764 1.463466
v 0.445753 1.335180 1.455965
v 0.453253 1.335072 1.484818
v 0.427749 1.349074 1.499915
v 0.453449 1.348703 1.515012
v 0.445950 1.348812 1.543864
v 0.474796 1.348396 1.536364
v 0.489890 1.348178 1.562069
v 0.504985 1.347961 1.536364
v 0.533831 1.347545 1.543864
v 0.526332 1.347653 1.515012
v 0.552032 1.347283 1.499915
v 0.526332 1.347653 1.484818
v 0.533831 1.347545 1.455965
v 0.504985 1.347961 1.463466
v 0.489890 1.348178 1.437761
v 0.474796 1.348396 1.463466
v 0.445950 1.348812 1.455965
v 0.453449 1.348703 1.484818
v 0.427945 1.362705 1.499915
v 0.453646 1.362335 1.515012
v 0.446146 1.362443 1.543864
v 0.474993 1.362027 1.536364
v 0.490087 1.361810 1.562069
v 0.505181 1.361592 1.536364
v 0.534028 1.361176 1.543864
v 0.526528 1.361285 1.515012
v 0.552228 1.360914 1.499915
v 0.526528 1.361285 1.484818
v 0.534028 1.361176 1.455965
v 0.505181 1.361592 1.463466
v 0.490087 1.361810 1.437761
v 0.474993 1.362027 1.463466
v 0.446146 1.362443 1.455965
v 0.453646 1.362335 1.484818
v 0.428142 1.376337 1.499915
v 0.453842 1.375967 1.515012
v 0.446343 1.376075 1.543864
v 0.475189 1.375659 1.536364
v 0.490283 1.375441 1.562069
v 0.505378 1.375224 1.536364
v 0.534224 1.374808 1.543864
v 0.526725 1.374916 1.515012
v 0.552425 1.374546 1.499915
v 0.526725 1.374916 1.484818
v 0.534224 1.374808 1.455965
v 0.505378 1.375224 1.463466
v 0.490283 1.375441 1.437761
v 0.475189 1.375659 1.463466
v 0.446343 1.376075 1.455965
v 0.453842 1.375967 1.484818
v 0.428338 1.389969 1.499915
v 0.454039 1.389598 1.515012
v 0.446539 1.389706 1.543864
v 0.475385 1.389291 1.536364
v 0.490480 1.389073 1.562069
v 0.505574 1.388855 1.536364
v 0.534420 1.388440 1.543864
v 0.526921 1.388548 1.515012
v 0.552621 1.388178 1.499915
v 0.526921 1.388548 1.484818
v 0.534420 1.388440 1.455965
v 0.505574 1.388855 1.463466
v 0.490480 1.389073 1.437761
v 0.475385 1.389291 1.463466
v 0.446539 1.389706 1.455965
v 0.454039 1.389598 1.484818
v 0.428535 1.403600 1.499915
v 0.454235 1.403230 1.515012
v 0.446736 1.403338 1.543864
v 0.475582 1.402922 1.536364
v 0.490676 1.402705 1.562069
v 0.505771 1.402487 1.536364
v 0.534617 1.402071 1.543864
v 0.527118 1.402179 1.515012
v 0.552818 1.401809 1.499915
v 0.527118 1.402179 1.484818
v 0.534617 1.402071 1.455965
v 0.505771 1.402487 1.463466
v 0.490676 1.402705 1.437761
v 0.475582 1.402922 1.463466
v 0.446736 1.403338 1.455965
v 0.454235 1.403230 1.484818
v 0.428731 1.417232 1.499915
v 0.454431 1.416862 1.515012
v 0.446932 1.416970 1.543864
v 0.475778 1.416554 1.536364
v 0.490873 1.416336 1.562069
v 0.505967 1.416119 1.536364
v 0.534813 1.415703 1.543864
v 0.527314 1.415811 1.515012
v 0.553014 1.415441 1.499915
v 0.527314 1.415811 1.484818
v 0.534813 1.415703 1.455965
v 0.505967 1.416119 1.463466
v 0.490873 1.416336 1.437761
v 0.475778 1.416554 1.463466
v 0.446932 1.416970 1.455965
v 0.454431 1.416862 1.484818
v 0.428928 1.430863 1.499915
v 0.454628 1.430493 1.515012
v 0.447129 1.430601 1.543864
v 0.475975 1.430186 1.536364
v 0.491069 1.429968 1.562069
v 0.506164 1.429750 1.536364
v 0.535010 1.429335 1.543864
v 0.527511 1.429443 1.515012
v 0.553211 1.429072 1.499915
v 0.527511 1.429443 1.484818
v 0.535010 1.429335 1.455965
v 0.506164 1.429750 1.463466
v 0.491069 1.429968 1.437761
v 0.475975 1.430186 1.463466
v 0.447129 1.430601 1.455965
v 0.454628 1.430493 1.484818
v 0.429124 1.444495 1.499915
v 0.454824 1.444125 1.515012
v 0.447325 1.444233 1.543864
v 0.476171 1.443817 1.536364
v 0.491266 1.443599 1.562069
v 0.506360 1.443382 1.536364
v 0.535206 1.442966 1.543864
v 0.527707 1.443074 1.515012
v 0.553407 1.442704 1.499915
v 0.527707 1.443074 1.484818
v 0.535206 1.442966 1.455965
v 0.506360 1.443382 1.463466
v 0.491266 1.443599 1.437761
v 0.476171 1.443817 1.463466
v 0.447325 1.444233 1.455965
v 0.454824 1.444125 1.484818
v 0.429321 1.458127 1.499915
v 0.455021 1.457756 1.515012
v 0.447521 1.457865 1.543864
v 0.476368 1.457449 1.536364
v 0.491462 1.457231 1.562069
v 0.506557 1.457014 1.536364
v 0.535403 1.456598 1.543864
v 0.527903 1.456706 1.515012
v 0.553604 1.456336 1.499915
v 0.527903 1.456706 1.484818
v 0.535403 1.456598 1.455965
v 0.506557 1.457014 1.463466
v 0.491462 1.457231 1.437761
v 0.476368 1.457449 1.463466
v 0.447521 1.457865 1.455965
v 0.455021 1.457756 1.484818
v 0.429517 1.471758 1.499915
v 0.455217 1.471388 1.515012
v 0.447718 1.471496 1.543864
v 0.476564 1.471080 1.536364
v 0.491659 1.470863 1.562069
v 0.506753 1.470645 1.536364
v 0.535599 1.470230 1.543864
v 0.528100 1.470338 1.515012
v 0.553800 1.469967 1.499915
v 0.528100 1.470338 1.484818
v 0.535599 1.470230 1.455965
v 0.506753 1.470645 1.463466
v 0.491659 1.470863 1.437761
v 0.476564 1.471080 1.463466
v 0.447718 1.471496 1.455965
v 0.455217 1.471388 1.484818
v 0.429714 1.485390 1.499915
v 0.455414 1.485020 1.515012
v 0.447914 1.485128 1.543864
v 0.476761 1.484712 1.536364
v 0.491855 1.484494 1.562069
v 0.506949 1.484277 1.536364
v 0.535796 1.483861 1.543864
v 0.528296 1.483969 1.515012
v 0.553996 1.483599 1.499915
v 0.528296 1.483969 1.484818
v 0.535796 1.483861 1.455965
v 0.506949 1.484277 1.463466
v 0.491855 1.484494 1.437761
v 0.476761 1.484712 1.463466
v 0.447914 1.485128 1.455965
v 0.455414 1.485020 1.484818
v 0.429910 1.499022 1.499915
v 0.455610 1.498651 1.515012
v 0.448111 1.498759 1.543864
v 0.476957 1.498344 1.536364
v 0.492051 1.498126 1.562069
v 0.507146 1.497908 1.536364
v 0.535992 1.497493 1.543864
v 0.528493 1.497601 1.515012
v 0.554193 1.497231 1.499915
v 0.528493 1.497601 1.484818
v 0.535992 1.497493 1.455965
v 0.507146 1.497908 1.463466
v 0.492051 1.498126 1.437761
v 0.476957 1.498344 1.463466
v 0.448111 1.498759 1.455965
v 0.455610 1.498651 1.484818
v 0.430107 1.512653 1.499915
v 0.455807 1.512283 1.515012
v 0.448307 1.512391 1.543864
v 0.477154 1.511975 1.536364
v 0.492248 1.511758 1.562069
v 0.507342 1.511540 1.536364
v 0.536189 1.511124 1.543864
v 0.528689 1.511232 1.515012
v 0.554389 1.510862 1.499915
v 0.528689 1.511232 1.484818
v 0.536189 1.511124 1.455965
v 0.507342 1.511540 1.463466
v 0.492248 1.511758 1.437761
v 0.477154 1.511975 1.463466
v 0.448307 1.512391 1.455965
v 0.455807 1.512283 1.484818
v 0.430303 1.526285 1.499915
v 0.456003 1.525914 1.515012
v 0.448504 1.526023 1.543864
v 0.477350 1.525607 1.536364
v 0.492444 1.525389 1.562069
v 0.507539 1.525172 1.536364
v 0.536385 1.524756 1.543864
v 0.528886 1.524864 1.515012
v 0.554586 1.524494 1.499915
v 0.528886 1.524864 1.484818
v 0.536385 1.524756 1.455965
v 0.507539 1.525172 1.463466
v 0.492444 1.525389 1.437761
v 0.477350 1.525607 1.463466
v 0.448504 1.526023 1.455965
v 0.456003 1.525914 1.484818
v 0.430499 1.539917 1.499915
v 0.456200 1.539546 1.515012
v 0.448700 1.539654 1.543864
v 0.477546 1.539238 1.536364
v 0.492641 1.539021 1.562069
v 0.507735 1.538803 1.536364
v 0.536582 1.538388 1.543864
v 0.529082 1.538496 1.515012
v 0.554782 1.538125 1.499915
v 0.529082 1.538496 1.484818
v 0.536582 1.538388 1.455965
v 0.507735 1.538803 1.463466
v 0.492641 1.539021 1.437761
v 0.477546 1.539238 1.463466
v 0.448700 1.539654 1.455965
v 0.456200 1.539546 1.484818
v 0.430696 1.553548 1.499915
v 0.456396 1.553178 1.515012
v 0.448897 1.553286 1.543864
v 0.477743 1.552870 1.536364
v 0.492837 1.552652 1.562069
v 0.507932 1.552435 1.536364
v 0.536778 1.552019 1.543864
v 0.529279 1.552127 1.515012
v 0.554979 1.551757 1.499915
v 0.529279 1.552127 1.484818
v 0.536778 1.552019 1.455965
v 0.507932 1.552435 1.463466
v 0.492837 1.552652 1.437761
v 0.477743 1.552870 1.463466
v 0.448897 1.553286 1.455965
v 0.456396 1.553178 1.484818
v 0.430892 1.567180 1.499915
v 0.456593 1.566809 1.515012
v 0.449093 1.566917 1.543864
v 0.477939 1.566502 1.536364
v 0.493034 1.566284 1.562069
v 0.508128 1.566067 1.536364
v 0.536974 1.565651 1.543864
v 0.529475 1.565759 1.515012
v 0.555175 1.565388 1.499915
v 0.529475 1.565759 1.484818
v 0.536974 1.565651 1.455965
v 0.508128 1.566067 1.463466
v 0.493034 1.566284 1.437761
v 0.477939 1.566502 1.463466
v 0.449093 1.566917 1.455965
v 0.456593 1.566809 1.484818
v 0.431089 1.580811 1.499915
v 0.456789 1.580441 1.515012
v 0.449290 1.580549 1.543864
v 0.478136 1.580133 1.536364
v 0.493230 1.579916 1.562069
v 0.508325 1.579698 1.536364
v 0.537171 1.579283 1.543864
v 0.529672 1.579391 1.515012
v 0.555372 1.579020 1.499915
v 0.529672 1.579391 1.484818
v 0.537171 1.579283 1.455965
v 0.508325 1.579698 1.463466
v 0.493230 1.579916 1.437761
v 0.478136 1.580133 1.463466
v 0.449290 1.580549 1.455965
v 0.456789 1.580441 1.484818
v 0.431285 1.594443 1.499915
v 0.456985 1.594073 1.515012
v 0.449486 1.594181 1.543864
v 0.478332 1.593765 1.536364
v 0.493427 1.593547 1.562069
v 0.508521 1.593330 1.536364
v 0.537367 1.592914 1.543864
v 0.529868 1.593022 1.515012
v 0.555568 1.592652 1.499915
v 0.529868 1.593022 1.484818
v 0.537367 1.592914 1.455965
v 0.508521 1.593330 1.463466
v 0.493427 1.593547 1.437761
v 0.478332 1.593765 1.463466
v 0.449486 1.594181 1.455965
v 0.456985 1.594073 1.484818
v 0.431482 1.608075 1.499915
v 0.457182 1.607704 1.515012
v 0.449682 1.607812 1.543864
v 0.478529 1.607397 1.536364
v 0.493623 1.607179 1.562069
v 0.508718 1.606961 1.536364
v 0.537564 1.606546 1.543864
v 0.530064 1.606654 1.515012
v 0.555765 1.606283 1.499915
v 0.530064 1.606654 1.484818
v 0.537564 1.606546 1.455965
v 0.508718 1.606961 1.463466
v 0.493623 1.607179 1.437761
v 0.478529 1.607397 1.463466
v 0.449682 1.607812 1.455965
v 0.457182 1.607704 1.484818
v 0.431678 1.621706 1.499915
v 0.457378 1.621336 1.515012
v 0.449879 1.621444 1.543864
v 0.478725 1.621028 1.536364
v 0.493820 1.620811 1.562069
v 0.508914 1.620593 1.536364
v 0.537760 1.620177 1.543864
v 0.530261 1.620285 1.515012
v 0.555961 1.619915 1.499915
v 0.530261 1.620285 1.484818
v 0.537760 1.620177 1.455965
v 0.508914 1.620593 1.463466
v 0.493820 1.620811 1.437761
v 0.478725 1.621028 1.463466
v 0.449879 1.621444 1.455965
v 0.457378 1.621336 1.484818
v 0.431875 1.635338 1.499915
v 0.457575 1.634967 1.515012
v 0.450075 1.635076 1.543864
v 0.478922 1.634660 1.536364
v 0.494016 1.634442 1.562069
v 0.509111 1.634225 1.536364
v 0.537957 1.633809 1.543864
v 0.530457 1.633917 1.515012
v 0.556157 1.633547 1.499915
v 0.530457 1.633917 1.484818
v 0.537957 1.633809 1.455965
v 0.509111 1.634225 1.463466
v 0.494016 1.634442 1.437761
v 0.478922 1.634660 1.463466
v 0.450075 1.635076 1.455965
v 0.457575 1.634967 1.484818
v 0.432071 1.648969 1.499915
v 0.457771 1.648599 1.515012
v 0.450272 1.648707 1.543864
v 0.479118 1.648291 1.536364
v 0.494213 1.648074 1.562069
v 0.509307 1.647856 1.536364
v 0.538153 1.647441 1.543864
v 0.530654 1.647549 1.515012
v 0.556354 1.647178 1.499915
v 0.530654 1.647549 1.484818
v 0.538153 1.647441 1.455965
v 0.509307 1.647856 1.463466
v 0.494213 1.648074 1.437761
v 0.479118 1.648291 1.463466
v 0.450272 1.648707 1.455965
v 0.457771 1.648599 1.484818
v 0.432268 1.662601 1.499915
v 0.457968 1.662231 1.515012
v 0.450468 1.662339 1.543864
v 0.479315 1.661923 1.536364
v 0.494409 1.661705 1.562069
v 0.509503 1.661488 1.536364
v 0.538350 1.661072 1.543864
v 0.530850 1.661180 1.515012
v 0.556551 1.660810 1.499915
v 0.530850 1.661180 1.484818
v 0.538350 1.661072 1.455965
v 0.509503 1.661488 1.463466
v 0.494409 1.661705 1.437761
v 0.479315 1.661923 1.463466
v 0.450468 1.662339 1.455965
v 0.457968 1.662231 1.484818
v 0.432464 1.676233 1.499915
v 0.458164 1.675862 1.515012
v 0.450665 1.675970 1.543864
v 0.479511 1.675555 1.536364
v 0.494605 1.675337 1.562069
v 0.509700 1.675120 1.536364
v 0.538546 1.674704 1.543864
v 0.531047 1.674812 1.515012
v 0.556747 1.674441 1.499915
v 0.531047 1.674812 1.484818
v 0.538546 1.674704 1.455965
v 0.509700 1.675120 1.463466
v 0.494605 1.675337 1.437761
v 0.479511 1.675555 1.463466
v 0.450665 1.675970 1.455965
v 0.458164 1.675862 1.484818
v 0.432660 1.689864 1.499915
v 0.458361 1.689494 1.515012
v 0.450861 1.689602 1.543864
v 0.479707 1.689186 1.536364
v 0.494802 1.688969 1.562069
v 0.509896 1.688751 1.536364
v 0.538743 1.688335 1.543864
v 0.531243 1.688443 1.515012
v 0.556943 1.688073 1.499915
v 0.531243 1.688443 1.484818
v 0.538743 1.688335 1.455965
v 0.509896 1.688751 1.463466
v 0.494802 1.688969 1.437761
v 0.479707 1.689186 1.463466
v 0.450861 1.689602 1.455965
v 0.458361 1.689494 1.484818
v 0.432857 1.703496 1.499915
v 0.458557 1.703125 1.515012
v 0.451058 1.703234 1.543864
v 0.479904 1.702818 1.536364
v 0.494998 1.702600 1.562069
v 0.510093 1.702383 1.536364
v 0.538939 1.701967 1.543864
v 0.531440 1.702075 1.515012
v 0.557140 1.701705 1.499915
v 0.531440 1.702075 1.484818
v 0.538939 1.701967 1.455965
v 0.510093 1.702383 1.463466
v 0.494998 1.702600 1.437761
v 0.479904 1.702818 1.463466
v 0.451058 1.703234 1.455965
v 0.458557 1.703125 1.484818
v 0.433053 1.717127 1.499915
v 0.458754 1.716757 1.515012
v 0.451254 1.716865 1.543864
v 0.480100 1.716449 1.536364
v 0.495195 1.716232 1.562069
v 0.510289 1.716014 1.536364
v 0.539135 1.715599 1.543864
v 0.531636 1.715707 1.515012
v 0.557336 1.715336 1.499915
v 0.531636 1.715707 1.484818
v 0.539135 1.715599 1.455965
v 0.510289 1.716014 1.463466
v 0.495195 1.716232 1.437761
v 0.480100 1.716449 1.463466
v 0.451254 1.716865 1.455965
v 0.458754 1.716757 1.484818
v 0.433250 1.730759 1.499915
v 0.458950 1.730389 1.515012
v 0.451451 1.730497 1.543864
v 0.480297 1.730081 1.536364
v 0.495391 1.729864 1.562069
v 0.510486 1.729646 1.536364
v 0.539332 1.729230 1.543864
v 0.531833 1.729338 1.515012
v 0.557533 1.728968 1.499915
v 0.531833 1.729338 1.484818
v 0.539332 1.729230 1.455965
v 0.510486 1.729646 1.463466
v 0.495391 1.729864 1.437761
v 0.480297 1.730081 1.463466
v 0.451451 1.730497 1.455965
v 0.458950 1.730389 1.484818
v 0.433446 1.744391 1.499915
v 0.459146 1.744020 1.515012
v 0.451647 1.744128 1.543864
v 0.480493 1.743713 1.536364
v 0.495588 1.743495 1.562069
v 0.510682 1.743278 1.536364
v 0.539528 1.742862 1.543864
v 0.532029 1.742970 1.515012
v 0.557729 1.742599 1.499915
v 0.532029 1.742970 1.484818
v 0.539528 1.742862 1.455965
v 0.510682 1.743278 1.463466
v 0.495588 1.743495 1.437761
v 0.480493 1.743713 1.463466
v 0.451647 1.744128 1.455965
v 0.459146 1.744020 1.484818
v 0.433643 1.758022 1.499915
v 0.459343 1.757652 1.515012
v 0.451844 1.757760 1.543864
v 0.480690 1.757344 1.536364
v 0.495784 1.757127 1.562069
v 0.510879 1.756909 1.536364
v 0.539725 1.756493 1.543864
v 0.532225 1.756602 1.515012
v 0.557926 1.756231 1.499915
v 0.532225 1.756602 1.484818
v 0.539725 1.756493 1.455965
v 0.510879 1.756909 1.463466
v 0.495784 1.757127 1.437761
v 0.480690 1.757344 1.463466
v 0.451844 1.757760 1.455965
v 0.459343 1.757652 1.484818
v 0.433839 1.771654 1.499915
v 0.491031 1.814539 1.498735
v 0.452040 1.771392 1.543864
v 0.492524 1.813407 1.496588
v 0.495981 1.770758 1.562069
v 0.492208 1.814063 1.497438
v 0.539921 1.770125 1.543864
v 0.490925 1.812856 1.496454
v 0.558122 1.769863 1.499915
v 0.492628 1.812170 1.497675
v 0.539921 1.770125 1.455965
v 0.491151 1.812515 1.498487
v 0.495981 1.770758 1.437761
v 0.491321 1.813167 1.498840
v 0.452040 1.771392 1.455965
v 0.491356 1.814286 1.498349
v 0.491481 1.074913 1.496473
vn -0.6002 -0.7998 0.0015
vn -0.7710 -0.5616 0.3004
vn -0.4216 -0.7932 0.4395
vn -0.3530 -0.5432 0.7618
vn 0.0259 -0.7725 0.6345
vn 0.3027 -0.4956 0.8141
vn 0.4213 -0.7795 0.4635
vn 0.7897 -0.5162 0.3315
vn 0.6194 -0.7851 0.0041
vn 0.7792 -0.5255 -0.3416
vn 0.4331 -0.7981 -0.4189
vn 0.2891 -0.5482 -0.7848
vn 0.0059 -0.8054 -0.5927
vn -0.3402 -0.5687 -0.7489
vn -0.4189 -0.8102 -0.4099
vn -0.7624 -0.5706 -0.3051
vn -0.8991 -0.4377 0.0023
vn -0.8761 -0.3079 0.3710
vn -0.6336 -0.4333 0.6409
vn -0.3534 -0.2977 0.8868
vn 0.0067 -0.4203 0.9073
vn 0.3781 -0.2722 0.8848
vn 0.6374 -0.4300 0.6394
vn 0.8838 -0.2901 0.3670
vn 0.8999 -0.4360 0.0027
vn 0.8851 -0.2955 -0.3596
vn 0.6364 -0.4452 -0.6299
vn 0.3748 -0.3060 -0.8751
vn 0.0044 -0.4476 -0.8942
vn -0.3552 -0.3155 -0.8800
vn -0.6311 -0.4484 -0.6330
vn -0.8761 -0.3142 -0.3658
vn -0.9999 0.0144 -0.0000
vn -0.9238 0.0133 0.3827
vn -0.7070 0.0102 0.7071
vn -0.3826 0.0055 0.9239
vn -0.0000 -0.0000 1.0000
vn 0.3826 -0.0055 0.9239
vn 0.7070 -0.0102 0.7071
vn 0.9238 -0.0133 0.3827
vn 0.9999 -0.0144 -0.0000
vn 0.9238 -0.0133 -0.3827
vn 0.7070 -0.0102 -0.7071
vn 0.3826 -0.0055 -0.9239
vn -0.0000 -0.0000 -1.0000
vn -0.3826 0.0055 -0.9239
vn -0.7070 0.0102 -0.7071
vn -0.9238 0.0133 -0.3827
vn -0.3827 0.0055 0.9239
vn 0.3827 -0.0055 0.9239
vn 0.3827 -0.0055 -0.9239
vn -0.3827 0.0055 -0.9239
vn -0.9249 0.3802 -0.0019
vn -0.8975 0.2493 0.3638
vn -0.6530 0.3970 0.6450
vn -0.3772 0.2817 0.8823
vn -0.0014 0.4073 0.9133
vn 0.3622 0.2834 0.8880
vn 0.6453 0.4095 0.6449
vn 0.8846 0.2948 0.3613
vn 0.9114 0.4116 -0.0061
vn 0.8845 0.2757 -0.3763
vn 0.6461 0.3968 -0.6520
vn 0.3568 0.2697 -0.8944
vn -0.0039 0.3939 -0.9191
vn -0.3784 0.2560 -0.8895
vn -0.6528 0.3868 -0.6513
vn -0.8956 0.2458 -0.3707
vn -0.7031 0.7111 -0.0013
vn -0.8169 0.4520 0.3582
vn -0.4949 0.7368 0.4606
vn -0.3009 0.5114 0.8050
vn 0.0027 0.7566 0.6538
vn 0.3460 0.5198 0.7811
vn 0.4496 0.7641 0.4626
vn 0.7758 0.5421 0.3229
vn 0.6392 0.7690 -0.0131
vn 0.8002 0.5133 -0.3102
vn 0.4660 0.7484 -0.4720
vn 0.3619 0.5000 -0.7868
vn -0.0093 0.7390 -0.6736
vn -0.3116 0.4694 -0.8262
vn -0.4945 0.7229 -0.4826
vn -0.8253 0.4452 -0.3475
vt 0.000000 1.000000
vt 0.021277 1.000000
vt 0.021277 0.937500
vt 0.000000 0.937500
vt 0.000000 0.062500
vt 0.021277 0.062500
vt 0.021277 0.000000
vt 0.000000 0.000000
vt 0.000000 0.125000
vt 0.021277 0.125000
vt 0.000000 0.187500
vt 0.021277 0.187500
vt 0.000000 0.250000
vt 0.021277 0.250000
vt 0.000000 0.312500
vt 0.021277 0.312500
vt 0.000000 0.375000
vt 0.021277 0.375000
vt 0.000000 0.437500
vt 0.021277 0.437500
vt 0.000000 0.500000
vt 0.021277 0.500000
vt 0.000000 0.562500
vt 0.021277 0.562500
vt 0.000000 0.625000
vt 0.021277 0.625000
vt 0.000000 0.687500
vt 0.021277 0.687500
vt 0.000000 0.750000
vt 0.021277 0.750000
vt 0.000000 0.812500
vt 0.021277 0.812500
vt 0.000000 0.875000
vt 0.021277 0.875000
vt 0.042553 1.000000
vt 0.042553 0.937500
vt 0.042553 0.062500
vt 0.042553 0.000000
vt 0.042553 0.125000
vt 0.042553 0.187500
vt 0.042553 0.250000
vt 0.042553 0.312500
vt 0.042553 0.375000
vt 0.042553 0.437500
vt 0.042553 0.500000
vt 0.042553 0.562500
vt 0.042553 0.625000
vt 0.042553 0.687500
vt 0.042553 0.750000
vt 0.042553 0.812500
vt 0.042553 0.875000
vt 0.063830 1.000000
vt 0.063830 0.937500
vt 0.063830 0.062500
vt 0.063830 0.000000
vt 0.063830 0.125000
vt 0.063830 0.187500
vt 0.063830 0.250000
vt 0.063830 0.312500
vt 0.063830 0.375000
vt 0.063830 0.437500
vt 0.063830 0.500000
vt 0.063830 0.562500
vt 0.063830 0.625000
vt 0.063830 0.687500
vt 0.063830 0.750000
vt 0.063830 0.812500
vt 0.063830 0.875000
vt 0.085106 1.000000
vt 0.085106 0.937500
vt 0.085106 0.062500
vt 0.085106 0.000000
vt 0.085106 0.125000
vt 0.085106 0.187500
vt 0.085106 0.250000
vt 0.085106 0.312500
vt 0.085106 0.375000
vt 0.085106 0.437500
vt 0.085106 0.500000
vt 0.085106 0.562500
vt 0.085106 0.625000
vt 0.085106 0.687500
vt 0.085106 0.750000
vt 0.085106 0.812500
vt 0.085106 0.875000
vt 0.106383 1.000000
vt 0.106383 0.937500
vt 0.106383 0.062500
vt 0.106383 0.000000
vt 0.106383 0.125000
vt 0.106383 0.187500
vt 0.106383 0.250000
vt 0.106383 0.312500
vt 0.106383 0.375000
vt 0.106383 0.437500
vt 0.106383 0.500000
vt 0.106383 0.562500
vt 0.106383 0.625000
vt 0.106383 0.687500
vt 0.106383 0.750000
vt 0.106383 0.812500
vt 0.106383 0.875000
vt 0.127660 1.000000
vt 0.127660 0.937500
vt 0.127660 0.062500
vt 0.127660 0.000000
vt 0.127660 0.125000
vt 0.127660 0.187500
vt 0.127660 0.250000
vt 0.127660 0.312500
vt 0.127660 0.375000
vt 0.127660 0.437500
vt 0.127660 0.500000
vt 0.127660 0.562500
vt 0.127660 0.625000
vt 0.127660 0.687500
vt 0.127660 0.750000
vt 0.127660 0.812500
vt 0.127660 0.875000
vt 0.148936 1.000000
vt 0.148936 0.937500
vt 0.148936 0.062500
vt 0.148936 0.000000
vt 0.148936 0.125000
vt 0.148936 0.187500
vt 0.148936 0.250000
vt 0.148936 0.312500
vt 0.148936 0.375000
vt 0.148936 0.437500
vt 0.148936 0.500000
vt 0.148936 0.562500
vt 0.148936 0.625000
vt 0.148936 0.687500
vt 0.148936 0.750000
vt 0.148936 0.812500
vt 0.148936 0.875000
vt 0.170213 1.000000
vt 0.170213 0.937500
vt 0.170213 0.062500
vt 0.170213 0.000000
vt 0.170213 0.125000
vt 0.170213 0.187500
vt 0.170213 0.250000
vt 0.170213 0.312500
vt 0.170213 0.375000
vt 0.170213 0.437500
vt 0.170213 0.500000
vt 0.170213 0.562500
vt 0.170213 0.625000
vt 0.170213 0.687500
vt 0.170213 0.750000
vt 0.170213 0.812500
vt 0.170213 0.875000
vt 0.191489 1.000000
vt 0.191489 0.937500
vt 0.191489 0.062500
vt 0.191489 0.000000
vt 0.191489 0.125000
vt 0.191489 0.187500
vt 0.191489 0.250000
vt 0.191489 0.312500
vt 0.191489 0.375000
vt 0.191489 0.437500
vt 0.191489 0.500000
vt 0.191489 0.562500
vt 0.191489 0.625000
vt 0.191489 0.687500
vt 0.191489 0.750000
vt 0.191489 0.812500
vt 0.191489 0.875000
vt 0.212766 1.000000
vt 0.212766 0.937500
vt 0.212766 0.062500
vt 0.212766 0.000000
vt 0.212766 0.125000
vt 0.212766 0.187500
vt 0.212766 0.250000
vt 0.212766 0.312500
vt 0.212766 0.375000
vt 0.212766 0.437500
vt 0.212766 0.500000
vt 0.212766 0.562500
vt 0.212766 0.625000
vt 0.212766 0.687500
vt 0.212766 0.750000
vt 0.212766 0.812500
vt 0.212766 0.875000
vt 0.234043 1.000000
vt 0.234043 0.937500
vt 0.234043 0.062500
vt 0.234043 0.000000
vt 0.234043 0.125000
vt 0.234043 0.187500
vt 0.234043 0.250000
vt 0.234043 0.312500
vt 0.234043 0.375000
vt 0.234043 0.437500
vt 0.234043 0.500000
vt 0.234043 0.562500
vt 0.234043 0.625000
vt 0.234043 0.687500
vt 0.234043 0.750000
vt 0.234043 0.812500
vt 0.234043 0.875000
vt 0.255319 1.000000
vt 0.255319 0.937500
vt 0.255319 0.062500
vt 0.255319 0.000000
vt 0.255319 0.125000
vt 0.255319 0.187500
vt 0.255319 0.250000
vt 0.255319 0.312500
vt 0.255319 0.375000
vt 0.255319 0.437500
vt 0.255319 0.500000
vt 0.255319 0.562500
vt 0.255319 0.625000
vt 0.255319 0.687500
vt 0.255319 0.750000
vt 0.255319 0.812500
vt 0.255319 0.875000
vt 0.276596 1.000000
vt 0.276596 0.937500
vt 0.276596 0.062500
vt 0.276596 0.000000
vt 0.276596 0.125000
vt 0.276596 0.187500
vt 0.276596 0.250000
vt 0.276596 0.312500
vt 0.276596 0.375000
vt 0.276596 0.437500
vt 0.276596 0.500000
vt 0.276596 0.562500
vt 0.276596 0.625000
vt 0.276596 0.687500
vt 0.276596 0.750000
vt 0.276596 0.812500
vt 0.276596 0.875000
vt 0.297872 1.000000
vt 0.297872 0.937500
vt 0.297872 0.062500
vt 0.297872 0.000000
vt 0.297872 0.125000
vt 0.297872 0.187500
vt 0.297872 0.250000
vt 0.297872 0.312500
vt 0.297872 0.375000
vt 0.297872 0.437500
vt 0.297872 0.500000
vt 0.297872 0.562500
vt 0.297872 0.625000
vt 0.297872 0.687500
vt 0.297872 0.750000
vt 0.297872 0.812500
vt 0.297872 0.875000
vt 0.319149 1.000000
vt 0.319149 0.937500
vt 0.319149 0.062500
vt 0.319149 0.000000
vt 0.319149 0.125000
vt 0.319149 0.187500
vt 0.319149 0.250000
vt 0.319149 0.312500
vt 0.319149 0.375000
vt 0.319149 0.437500
vt 0.319149 0.500000
vt 0.319149 0.562500
vt 0.319149 0.625000
vt 0.319149 0.687500
vt 0.319149 0.750000
vt 0.319149 0.812500
vt 0.319149 0.875000
vt 0.340426 1.000000
vt 0.340426 0.937500
vt 0.340426 0.062500
vt 0.340426 0.000000
vt 0.340426 0.125000
vt 0.340426 0.187500
vt 0.340426 0.250000
vt 0.340426 0.312500
vt 0.340426 0.375000
vt 0.340426 0.437500
vt 0.340426 0.500000
vt 0.340426 0.562500
vt 0.340426 0.625000
vt 0.340426 0.687500
vt 0.340426 0.750000
vt 0.340426 0.812500
vt 0.340426 0.875000
vt 0.361702 1.000000
vt 0.361702 0.937500
vt 0.361702 0.062500
vt 0.361702 0.000000
vt 0.361702 0.125000
vt 0.361702 0.187500
vt 0.361702 0.250000
vt 0.361702 0.312500
vt 0.361702 0.375000
vt 0.361702 0.437500
vt 0.361702 0.500000
vt 0.361702 0.562500
vt 0.361702 0.625000
vt 0.361702 0.687500
vt 0.361702 0.750000
vt 0.361702 0.812500
vt 0.361702 0.875000
vt 0.382979 1.000000
vt 0.382979 0.937500
vt 0.382979 0.062500
vt 0.382979 0.000000
vt 0.382979 0.125000
vt 0.382979 0.187500
vt 0.382979 0.250000
vt 0.382979 0.312500
vt 0.382979 0.375000
vt 0.382979 0.437500
vt 0.382979 0.500000
vt 0.382979 0.562500
vt 0.382979 0.625000
vt 0.382979 0.687500
vt 0.382979 0.750000
vt 0.382979 0.812500
vt 0.382979 0.875000
vt 0.404255 1.000000
vt 0.404255 0.937500
vt 0.404255 0.062500
vt 0.404255 0.000000
vt 0.404255 0.125000
vt 0.404255 0.187500
vt 0.404255 0.250000
vt 0.404255 0.312500
vt 0.404255 0.375000
vt 0.404255 0.437500
vt 0.404255 0.500000
vt 0.404255 0.562500
vt 0.404255 0.625000
vt 0.404255 0.687500
vt 0.404255 0.750000
vt 0.404255 0.812500
vt 0.404255 0.875000
vt 0.425532 1.000000
vt 0.425532 0.937500
vt 0.425532 0.062500
vt 0.425532 0.000000
vt 0.425532 0.125000
vt 0.425532 0.187500
vt 0.425532 0.250000
vt 0.425532 0.312500
vt 0.425532 0.375000
vt 0.425532 0.437500
vt 0.425532 0.500000
vt 0.425532 0.562500
vt 0.425532 0.625000
vt 0.425532 0.687500
vt 0.425532 0.750000
vt 0.425532 0.812500
vt 0.425532 0.875000
vt 0.446809 1.000000
vt 0.446809 0.937500
vt 0.446809 0.062500
vt 0.446809 0.000000
vt 0.446809 0.125000
vt 0.446809 0.187500
vt 0.446809 0.250000
vt 0.446809 0.312500
vt 0.446809 0.375000
vt 0.446809 0.437500
vt 0.446809 0.500000
vt 0.446809 0.562500
vt 0.446809 0.625000
vt 0.446809 0.687500
vt 0.446809 0.750000
vt 0.446809 0.812500
vt 0.446809 0.875000
vt 0.468085 1.000000
vt 0.468085 0.937500
vt 0.468085 0.062500
vt 0.468085 0.000000
vt 0.468085 0.125000
vt 0.468085 0.187500
vt 0.468085 0.250000
vt 0.468085 0.312500
vt 0.468085 0.375000
vt 0.468085 0.437500
vt 0.468085 0.500000
vt 0.468085 0.562500
vt 0.468085 0.625000
vt 0.468085 0.687500
vt 0.468085 0.750000
vt 0.468085 0.812500
vt 0.468085 0.875000
vt 0.489362 1.000000
vt 0.489362 0.937500
vt 0.489362 0.062500
vt 0.489362 0.000000
vt 0.489362 0.125000
vt 0.489362 0.187500
vt 0.489362 0.250000
vt 0.489362 0.312500
vt 0.489362 0.375000
vt 0.489362 0.437500
vt 0.489362 0.500000
vt 0.489362 0.562500
vt 0.489362 0.625000
vt 0.489362 0.687500
vt 0.489362 0.750000
vt 0.489362 0.812500
vt 0.489362 0.875000
vt 0.510638 1.000000
vt 0.510638 0.937500
vt 0.510638 0.062500
vt 0.510638 0.000000
vt 0.510638 0.125000
vt 0.510638 0.187500
vt 0.510638 0.250000
vt 0.510638 0.312500
vt 0.510638 0.375000
vt 0.510638 0.437500
vt 0.510638 0.500000
vt 0.510638 0.562500
vt 0.510638 0.625000
vt 0.510638 0.687500
vt 0.510638 0.750000
vt 0.510638 0.812500
vt 0.510638 0.875000
vt 0.531915 1.000000
vt 0.531915 0.937500
vt 0.531915 0.062500
vt 0.531915 0.000000
vt 0.531915 0.125000
vt 0.531915 0.187500
vt 0.531915 0.250000
vt 0.531915 0.312500
vt 0.531915 0.375000
vt 0.531915 0.437500
vt 0.531915 0.500000
vt 0.531915 0.562500
vt 0.531915 0.625000
vt 0.531915 0.687500
vt 0.531915 0.750000
vt 0.531915 0.812500
vt 0.531915 0.875000
vt 0.553191 1.000000
vt 0.553191 0.937500
vt 0.553191 0.062500
vt 0.553191 0.000000
vt 0.553191 0.125000
vt 0.553191 0.187500
vt 0.553191 0.250000
vt 0.553191 0.312500
vt 0.553191 0.375000
vt 0.553191 0.437500
vt 0.553191 0.500000
vt 0.553191 0.562500
vt 0.553191 0.625000
vt 0.553191 0.687500
vt 0.553191 0.750000
vt 0.553191 0.812500
vt 0.553191 0.875000
vt 0.574468 1.000000
vt 0.574468 0.937500
vt 0.574468 0.062500
vt 0.574468 0.000000
vt 0.574468 0.125000
vt 0.574468 0.187500
vt 0.574468 0.250000
vt 0.574468 0.312500
vt 0.574468 0.375000
vt 0.574468 0.437500
vt 0.574468 0.500000
vt 0.574468 0.562500
vt 0.574468 0.625000
vt 0.574468 0.687500
vt 0.574468 0.750000
vt 0.574468 0.812500
vt 0.574468 0.875000
vt 0.595745 1.000000
vt 0.595745 0.937500
vt 0.595745 0.062500
vt 0.595745 0.000000
vt 0.595745 0.125000
vt 0.595745 0.187500
vt 0.595745 0.250000
vt 0.595745 0.312500
vt 0.595745 0.375000
vt 0.595745 0.437500
vt 0.595745 0.500000
vt 0.595745 0.562500
vt 0.595745 0.625000
vt 0.595745 0.687500
vt 0.595745 0.750000
vt 0.595745 0.812500
vt 0.595745 0.875000
vt 0.617021 1.000000
vt 0.617021 0.937500
vt 0.617021 0.062500
vt 0.617021 0.000000
vt 0.617021 0.125000
vt 0.617021 0.187500
vt 0.617021 0.250000
vt 0.617021 0.312500
vt 0.617021 0.375000
vt 0.617021 0.437500
vt 0.617021 0.500000
vt 0.617021 0.562500
vt 0.617021 0.625000
vt 0.617021 0.687500
vt 0.617021 0.750000
vt 0.617021 0.812500
vt 0.617021 0.875000
vt 0.638298 1.000000
vt 0.638298 0.937500
vt 0.638298 0.062500
vt 0.638298 0.000000
vt 0.638298 0.125000
vt 0.638298 0.187500
vt 0.638298 0.250000
vt 0.638298 0.312500
vt 0.638298 0.375000
vt 0.638298 0.437500
vt 0.638298 0.500000
vt 0.638298 0.562500
vt 0.638298 0.625000
vt 0.638298 0.687500
vt 0.638298 0.750000
vt 0.638298 0.812500
vt 0.638298 0.875000
vt 0.659574 1.000000
vt 0.659574 0.937500
vt 0.659574 0.062500
vt 0.659574 0.000000
vt 0.659574 0.125000
vt 0.659574 0.187500
vt 0.659574 0.250000
vt 0.659574 0.312500
vt 0.659574 0.375000
vt 0.659574 0.437500
vt 0.659574 0.500000
vt 0.659574 0.562500
vt 0.659574 0.625000
vt 0.659574 0.687500
vt 0.659574 0.750000
vt 0.659574 0.812500
vt 0.659574 0.875000
vt 0.680851 1.000000
vt 0.680851 0.937500
vt 0.680851 0.062500
vt 0.680851 0.000000
vt 0.680851 0.125000
vt 0.680851 0.187500
vt 0.680851 0.250000
vt 0.680851 0.312500
vt 0.680851 0.375000
vt 0.680851 0.437500
vt 0.680851 0.500000
vt 0.680851 0.562500
vt 0.680851 0.625000
vt 0.680851 0.687500
vt 0.680851 0.750000
vt 0.680851 0.812500
vt 0.680851 0.875000
vt 0.702128 1.000000
vt 0.702128 0.937500
vt 0.702128 0.062500
vt 0.702128 0.000000
vt 0.702128 0.125000
vt 0.702128 0.187500
vt 0.702128 0.250000
vt 0.702128 0.312500
vt 0.702128 0.375000
vt 0.702128 0.437500
vt 0.702128 0.500000
vt 0.702128 0.562500
vt 0.702128 0.625000
vt 0.702128 0.687500
vt 0.702128 0.750000
vt 0.702128 0.812500
vt 0.702128 0.875000
vt 0.723404 1.000000
vt 0.723404 0.937500
vt 0.723404 0.062500
vt 0.723404 0.000000
vt 0.723404 0.125000
vt 0.723404 0.187500
vt 0.723404 0.250000
vt 0.723404 0.312500
vt 0.723404 0.375000
vt 0.723404 0.437500
vt 0.723404 0.500000
vt 0.723404 0.562500
vt 0.723404 0.625000
vt 0.723404 0.687500
vt 0.723404 0.750000
vt 0.723404 0.812500
vt 0.723404 0.875000
vt 0.744681 1.000000
vt 0.744681 0.937500
vt 0.744681 0.062500
vt 0.744681 0.000000
vt 0.744681 0.125000
vt 0.744681 0.187500
vt 0.744681 0.250000
vt 0.744681 0.312500
vt 0.744681 0.375000
vt 0.744681 0.437500
vt 0.744681 0.500000
vt 0.744681 0.562500
vt 0.744681 0.625000
vt 0.744681 0.687500
vt 0.744681 0.750000
vt 0.744681 0.812500
vt 0.744681 0.875000
vt 0.765957 1.000000
vt 0.765957 0.937500
vt 0.765957 0.062500
vt 0.765957 0.000000
vt 0.765957 0.125000
vt 0.765957 0.187500
vt 0.765957 0.250000
vt 0.765957 0.312500
vt 0.765957 0.375000
vt 0.765957 0.437500
vt 0.765957 0.500000
vt 0.765957 0.562500
vt 0.765957 0.625000
vt 0.765957 0.687500
vt 0.765957 0.750000
vt 0.765957 0.812500
vt 0.765957 0.875000
vt 0.787234 1.000000
vt 0.787234 0.937500
vt 0.787234 0.062500
vt 0.787234 0.000000
vt 0.787234 0.125000
vt 0.787234 0.187500
vt 0.787234 0.250000
vt 0.787234 0.312500
vt 0.787234 0.375000
vt 0.787234 0.437500
vt 0.787234 0.500000
vt 0.787234 0.562500
vt 0.787234 0.625000
vt 0.787234 0.687500
vt 0.787234 0.750000
vt 0.787234 0.812500
vt 0.787234 0.875000
vt 0.808511 1.000000
vt 0.808511 0.937500
vt 0.808511 0.062500
vt 0.808511 0.000000
vt 0.808511 0.125000
vt 0.808511 0.187500
vt 0.808511 0.250000
vt 0.808511 0.312500
vt 0.808511 0.375000
vt 0.808511 0.437500
vt 0.808511 0.500000
vt 0.808511 0.562500
vt 0.808511 0.625000
vt 0.808511 0.687500
vt 0.808511 0.750000
vt 0.808511 0.812500
vt 0.808511 0.875000
vt 0.829787 1.000000
vt 0.829787 0.937500
vt 0.829787 0.062500
vt 0.829787 0.000000
vt 0.829787 0.125000
vt 0.829787 0.187500
vt 0.829787 0.250000
vt 0.829787 0.312500
vt 0.829787 0.375000
vt 0.829787 0.437500
vt 0.829787 0.500000
vt 0.829787 0.562500
vt 0.829787 0.625000
vt 0.829787 0.687500
vt 0.829787 0.750000
vt 0.829787 0.812500
vt 0.829787 0.875000
vt 0.851064 1.000000
vt 0.851064 0.937500
vt 0.851064 0.062500
vt 0.851064 0.000000
vt 0.851064 0.125000
vt 0.851064 0.187500
vt 0.851064 0.250000
vt 0.851064 0.312500
vt 0.851064 0.375000
vt 0.851064 0.437500
vt 0.851064 0.500000
vt 0.851064 0.562500
vt 0.851064 0.625000
vt 0.851064 0.687500
vt 0.851064 0.750000
vt 0.851064 0.812500
vt 0.851064 0.875000
vt 0.872340 1.000000
vt 0.872340 0.937500
vt 0.872340 0.062500
vt 0.872340 0.000000
vt 0.872340 0.125000
vt 0.872340 0.187500
vt 0.872340 0.250000
vt 0.872340 0.312500
vt 0.872340 0.375000
vt 0.872340 0.437500
vt 0.872340 0.500000
vt 0.872340 0.562500
vt 0.872340 0.625000
vt 0.872340 0.687500
vt 0.872340 0.750000
vt 0.872340 0.812500
vt 0.872340 0.875000
vt 0.893617 1.000000
vt 0.893617 0.937500
vt 0.893617 0.062500
vt 0.893617 0.000000
vt 0.893617 0.125000
vt 0.893617 0.187500
vt 0.893617 0.250000
vt 0.893617 0.312500
vt 0.893617 0.375000
vt 0.893617 0.437500
vt 0.893617 0.500000
vt 0.893617 0.562500
vt 0.893617 0.625000
vt 0.893617 0.687500
vt 0.893617 0.750000
vt 0.893617 0.812500
vt 0.893617 0.875000
vt 0.914894 1.000000
vt 0.914894 0.937500
vt 0.914894 0.062500
vt 0.914894 0.000000
vt 0.914894 0.125000
vt 0.914894 0.187500
vt 0.914894 0.250000
vt 0.914894 0.312500
vt 0.914894 0.375000
vt 0.914894 0.437500
vt 0.914894 0.500000
vt 0.914894 0.562500
vt 0.914894 0.625000
vt 0.914894 0.687500
vt 0.914894 0.750000
vt 0.914894 0.812500
vt 0.914894 0.875000
vt 0.936170 1.000000
vt 0.936170 0.937500
vt 0.936170 0.062500
vt 0.936170 0.000000
vt 0.936170 0.125000
vt 0.936170 0.187500
vt 0.936170 0.250000
vt 0.936170 0.312500
vt 0.936170 0.375000
vt 0.936170 0.437500
vt 0.936170 0.500000
vt 0.936170 0.562500
vt 0.936170 0.625000
vt 0.936170 0.687500
vt 0.936170 0.750000
vt 0.936170 0.812500
vt 0.936170 0.875000
vt 0.957447 1.000000
vt 0.957447 0.937500
vt 0.957447 0.062500
vt 0.957447 0.000000
vt 0.957447 0.125000
vt 0.957447 0.187500
vt 0.957447 0.250000
vt 0.957447 0.312500
vt 0.957447 0.375000
vt 0.957447 0.437500
vt 0.957447 0.500000
vt 0.957447 0.562500
vt 0.957447 0.625000
vt 0.957447 0.687500
vt 0.957447 0.750000
vt 0.957447 0.812500
vt 0.957447 0.875000
vt 0.978723 1.000000
vt 0.978723 0.937500
vt 0.978723 0.062500
vt 0.978723 0.000000
vt 0.978723 0.125000
vt 0.978723 0.187500
vt 0.978723 0.250000
vt 0.978723 0.312500
vt 0.978723 0.375000
vt 0.978723 0.437500
vt 0.978723 0.500000
vt 0.978723 0.562500
vt 0.978723 0.625000
vt 0.978723 0.687500
vt 0.978723 0.750000
vt 0.978723 0.812500
vt 0.978723 0.875000
vt 1.000000 1.000000
vt 1.000000 0.937500
vt 1.000000 0.062500
vt 1.000000 0.000000
vt 1.000000 0.125000
vt 1.000000 0.187500
vt 1.000000 0.250000
vt 1.000000 0.312500
vt 1.000000 0.375000
vt 1.000000 0.437500
vt 1.000000 0.500000
vt 1.000000 0.562500
vt 1.000000 0.625000
vt 1.000000 0.687500
vt 1.000000 0.750000
vt 1.000000 0.812500
vt 1.000000 0.875000
s 1
f 1/1/1 17/2/17 32/3/32 16/4/16
f 2/5/2 18/6/18 17/7/17 1/8/1
f 3/9/3 19/10/19 18/6/18 2/5/2
f 4/11/4 20/12/20 19/10/19 3/9/3
f 5/13/5 21/14/21 20/12/20 4/11/4
f 6/15/6 22/16/22 21/14/21 5/13/5
f 7/17/7 23/18/23 22/16/22 6/15/6
f 8/19/8 24/20/24 23/18/23 7/17/7
f 9/21/9 25/22/25 24/20/24 8/19/8
f 10/23/10 26/24/26 25/22/25 9/21/9
f 11/25/11 27/26/27 26/24/26 10/23/10
f 12/27/12 28/28/28 27/26/27 11/25/11
f 13/29/13 29/30/29 28/28/28 12/27/12
f 14/31/14 30/32/30 29/30/29 13/29/13
f 15/33/15 31/34/31 30/32/30 14/31/14
f 16/4/16 32/3/32 31/34/31 15/33/15
f 17/2/17 33/35/33 48/36/48 32/3/32
f 18/6/18 34/37/34 33/38/33 17/7/17
f 19/10/19 35/39/35 34/37/34 18/6/18
f 20/12/20 36/40/36 35/39/35 19/10/19
f 21/14/21 37/41/37 36/40/36 20/12/20
f 22/16/22 38/42/38 37/41/37 21/14/21
f 23/18/23 39/43/39 38/42/38 22/16/22
f 24/20/24 40/44/40 39/43/39 23/18/23
f 25/22/25 41/45/41 40/44/40 24/20/24
f 26/24/26 42/46/42 41/45/41 25/22/25
f 27/26/27 43/47/43 42/46/42 26/24/26
f 28/28/28 44/48/44 43/47/43 27/26/27
f 29/30/29 45/49/45 44/48/44 28/28/28
f 30/32/30 46/50/46 45/49/45 29/30/29
f 31/34/31 47/51/47 46/50/46 30/32/30
f 32/3/32 48/36/48 47/51/47 31/34/31
f 33/35/33 49/52/33 64/53/48 48/36/48
f 34/37/34 50/54/34 49/55/33 33/38/33
f 35/39/35 51/56/35 50/54/34 34/37/34
f 36/40/36 52/57/49 51/56/35 35/39/35
f 37/41/37 53/58/37 52/57/49 36/40/36
f 38/42/38 54/59/50 53/58/37 37/41/37
f 39/43/39 55/60/39 54/59/50 38/42/38
f 40/44/40 56/61/40 55/60/39 39/43/39
f 41/45/41 57/62/41 56/61/40 40/44/40
f 42/46/42 58/63/42 57/62/41 41/45/41
f 43/47/43 59/64/43 58/63/42 42/46/42
f 44/48/44 60/65/51 59/64/43 43/47/43
f 45/49/45 61/66/45 60/65/51 44/48/44
f 46/50/46 62/67/52 61/66/45 45/49/45
f 47/51/47 63/68/47 62/67/52 46/50/46
f 48/36/48 64/53/48 63/68/47 47/51/47
f 49/52/33 65/69/33 80/70/48 64/53/48
f 50/54/34 66/71/34 65/72/33 49/55/33
f 51/56/35 67/73/35 66/71/34 50/54/34
f 52/57/49 68/74/49 67/73/35 51/56/35
f 53/58/37 69/75/37 68/74/49 52/57/49
f 54/59/50 70/76/50 69/75/37 53/58/37
f 55/60/39 71/77/39 70/76/50 54/59/50
f 56/61/40 72/78/40 71/77/39 55/60/39
f 57/62/41 73/79/41 72/78/40 56/61/40
f 58/63/42 74/80/42 73/79/41 57/62/41
f 59/64/43 75/81/43 74/80/42 58/63/42
f 60/65/51 76/82/51 75/81/43 59/64/43
f 61/66/45 77/83/45 76/82/51 60/65/51
f 62/67/52 78/84/52 77/83/45 61/66/45
f 63/68/47 79/85/47 78/84/52 62/67/52
f 64/53/48 80/70/48 79/85/47 63/68/47
f 65/69/33 81/86/33 96/87/48 80/70/48
f 66/71/34 82/88/34 81/89/33 65/72/33
f 67/73/35 83/90/35 82/88/34 66/71/34
f 68/74/49 84/91/36 83/90/35 67/73/35
f 69/75/37 85/92/37 84/91/36 68/74/49
f 70/76/50 86/93/50 85/92/37 69/75/37
f 71/77/39 87/94/39 86/93/50 70/76/50
f 72/78/40 88/95/40 87/94/39 71/77/39
f 73/79/41 89/96/41 88/95/40 72/78/40
f 74/80/42 90/97/42 89/96/41 73/79/41
f 75/81/43 91/98/43 90/97/42 74/80/42
f 76/82/51 92/99/51 91/98/43 75/81/43
f 77/83/45 93/100/45 92/99/51 76/82/51
f 78/84/52 94/101/46 93/100/45 77/83/45
f 79/85/47 95/102/47 94/101/46 78/84/52
f 80/70/48 96/87/48 95/102/47 79/85/47
f 81/86/33 97/103/33 112/104/48 96/87/48
f 82/88/34 98/105/34 97/106/33 81/89/33
f 83/90/35 99/107/35 98/105/34 82/88/34
f 84/91/36 100/108/49 99/107/35 83/90/35
f 85/92/37 101/109/37 100/108/49 84/91/36
f 86/93/50 102/110/38 101/109/37 85/92/37
f 87/94/39 103/111/39 102/110/38 86/93/50
f 88/95/40 104/112/40 103/111/39 87/94/39
f 89/96/41 105/113/41 104/112/40 88/95/40
f 90/97/42 106/114/42 105/113/41 89/96/41
f 91/98/43 107/115/43 106/114/42 90/97/42
f 92/99/51 108/116/44 107/115/43 91/98/43
f 93/100/45 109/117/45 108/116/44 92/99/51
f 94/101/46 110/118/52 109/117/45 93/100/45
f 95/102/47 111/119/47 110/118/52 94/101/46
f 96/87/48 112/104/48 111/119/47 95/102/47
f 97/103/33 113/120/33 128/121/48 112/104/48
f 98/105/34 114/122/34 113/123/33 97/106/33
f 99/107/35 115/124/35 114/122/34 98/105/34
f 100/108/49 116/125/49 115/124/35 99/107/35
f 101/109/37 117/126/37 116/125/49 100/108/49
f 102/110/38 118/127/50 117/126/37 101/109/37
f 103/111/39 119/128/39 118/127/50 102/110/38
f 104/112/40 120/129/40 119/128/39 103/111/39
f 105/113/41 121/130/41 120/129/40 104/112/40
f 106/114/42 122/131/42 121/130/41 105/113/41
f 107/115/43 123/132/43 122/131/42 106/114/42
f 108/116/44 124/133/51 123/132/43 107/115/43
f 109/117/45 125/134/45 124/133/51 108/116/44
f 110/118/52 126/135/52 125/134/45 109/117/45
f 111/119/47 127/136/47 126/135/52 110/118/52
f 112/104/48 128/121/48 127/136/47 111/119/47
f 113/120/33 129/137/33 144/138/48 128/121/48
f 114/122/34 130/139/34 129/140/33 113/123/33
f 115/124/35 131/141/35 130/139/34 114/122/34
f 116/125/49 132/142/49 131/141/35 115/124/35
f 117/126/37 133/143/37 132/142/49 116/125/49
f 118/127/50 134/144/50 133/143/37 117/126/37
f 119/128/39 135/145/39 134/144/50 118/127/50
f 120/129/40 136/146/40 135/145/39 119/128/39
f 121/130/41 137/147/41 136/146/40 120/129/40
f 122/131/42 138/148/42 137/147/41 121/130/41
f 123/132/43 139/149/43 138/148/42 122/131/42
f 124/133/51 140/150/51 139/149/43 123/132/43
f 125/134/45 141/151/45 140/150/51 124/133/51
f 126/135/52 142/152/52 141/151/45 125/134/45
f 127/136/47 143/153/47 142/152/52 126/135/52
f 128/121/48 144/138/48 143/153/47 127/136/47
f 129/137/33 145/154/33 160/155/48 144/138/48
f 130/139/34 146/156/34 145/157/33 129/140/33
f 131/141/35 147/158/35 146/156/34 130/139/34
f 132/142/49 148/159/36 147/158/35 131/141/35
f 133/143/37 149/160/37 148/159/36 132/142/49
f 134/144/50 150/161/38 149/160/37 133/143/37
f 135/145/39 151/162/39 150/161/38 134/144/50
f 136/146/40 152/163/40 151/162/39 135/145/39
f 137/147/41 153/164/41 152/163/40 136/146/40
f 138/148/42 154/165/42 153/164/41 137/147/41
f 139/149/43 155/166/43 154/165/42 138/148/42
f 140/150/51 156/167/44 155/166/43 139/149/43
f 141/151/45 157/168/45 156/167/44 140/150/51
f 142/152/52 158/169/46 157/168/45 141/151/45
f 143/153/47 159/170/47 158/169/46 142/152/52
f 144/138/48 160/155/48 159/170/47 143/153/47
f 145/154/33 161/171/33 176/172/48 160/155/48
f 146/156/34 162/173/34 161/174/33 145/157/33
f 147/158/35 163/175/35 162/173/34 146/156/34
f 148/159/36 164/176/49 163/175/35 147/158/35
f 149/160/37 165/177/37 164/176/49 148/159/36
f 150/161/38 166/178/38 165/177/37 149/160/37
f 151/162/39 167/179/39 166/178/38 150/161/38
f 152/163/40 168/180/40 167/179/39 151/162/39
f 153/164/41 169/181/41 168/180/40 152/163/40
f 154/165/42 170/182/42 169/181/41 153/164/41
f 155/166/43 171/183/43 170/182/42 154/165/42
f 156/167/44 172/184/44 171/183/43 155/166/43
f 157/168/45 173/185/45 172/184/44 156/167/44
f 158/169/46 174/186/52 173/185/45 157/168/45
f 159/170/47 175/187/47 174/186/52 158/169/46
f 160/155/48 176/172/48 175/187/47 159/170/47
f 161/171/33 177/188/33 192/189/48 176/172/48
f 162/173/34 178/190/34 177/191/33 161/174/33
f 163/175/35 179/192/35 178/190/34 162/173/34
f 164/176/49 180/193/36 179/192/35 163/175/35
f 165/177/37 181/194/37 180/193/36 164/176/49
f 166/178/38 182/195/50 181/194/37 165/177/37
f 167/179/39 183/196/39 182/195/50 166/178/38
f 168/180/40 184/197/40 183/196/39 167/179/39
f 169/181/41 185/198/41 184/197/40 168/180/40
f 170/182/42 186/199/42 185/198/41 169/181/41
f 171/183/43 187/200/43 186/199/42 170/182/42
f 172/184/44 188/201/51 187/200/43 171/183/43
f 173/185/45 189/202/45 188/201/51 172/184/44
f 174/186/52 190/203/46 189/202/45 173/185/45
f 175/187/47 191/204/47 190/203/46 174/186/52
f 176/172/48 192/189/48 191/204/47 175/187/47
f 177/188/33 193/205/33 208/206/48 192/189/48
f 178/190/34 194/207/34 193/208/33 177/191/33
f 179/192/35 195/209/35 194/207/34 178/190/34
f 180/193/36 196/210/36 195/209/35 179/192/35
f 181/194/37 197/211/37 196/210/36 180/193/36
f 182/195/50 198/212/50 197/211/37 181/194/37
f 183/196/39 199/213/39 198/212/50 182/195/50
f 184/197/40 200/214/40 199/213/39 183/196/39
f 185/198/41 201/215/41 200/214/40 184/197/40
f 186/199/42 202/216/42 201/215/41 185/198/41
f 187/200/43 203/217/43 202/216/42 186/199/42
f 188/201/51 204/218/51 203/217/43 187/200/43
f 189/202/45 205/219/45 204/218/51 188/201/51
f 190/203/46 206/220/46 205/219/45 189/202/45
f 191/204/47 207/221/47 206/220/46 190/203/46
f 192/189/48 208/206/48 207/221/47 191/204/47
f 193/205/33 209/222/33 224/223/48 208/206/48
f 194/207/34 210/224/34 209/225/33 193/208/33
f 195/209/35 211/226/35 210/224/34 194/207/34
f 196/210/36 212/227/49 211/226/35 195/209/35
f 197/211/37 213/228/37 212/227/49 196/210/36
f 198/212/50 214/229/38 213/228/37 197/211/37
f 199/213/39 215/230/39 214/229/38 198/212/50
f 200/214/40 216/231/40 215/230/39 199/213/39
f 201/215/41 217/232/41 216/231/40 200/214/40
f 202/216/42 218/233/42 217/232/41 201/215/41
f 203/217/43 219/234/43 218/233/42 202/216/42
f 204/218/51 220/235/44 219/234/43 203/217/43
f 205/219/45 221/236/45 220/235/44 204/218/51
f 206/220/46 222/237/52 221/236/45 205/219/45
f 207/221/47 223/238/47 222/237/52 206/220/46
f 208/206/48 224/223/48 223/238/47 207/221/47
f 209/222/33 225/239/33 240/240/48 224/223/48
f 210/224/34 226/241/34 225/242/33 209/225/33
f 211/226/35 227/243/35 226/241/34 210/224/34
f 212/227/49 228/244/49 227/243/35 211/226/35
f 213/228/37 229/245/37 228/244/49 212/227/49
f 214/229/38 230/246/50 229/245/37 213/228/37
f 215/230/39 231/247/39 230/246/50 214/229/38
f 216/231/40 232/248/40 231/247/39 215/230/39
f 217/232/41 233/249/41 232/248/40 216/231/40
f 218/233/42 234/250/42 233/249/41 217/232/41
f 219/234/43 235/251/43 234/250/42 218/233/42
f 220/235/44 236/252/51 235/251/43 219/234/43
f 221/236/45 237/253/45 236/252/51 220/235/44
f 222/237/52 238/254/52 237/253/45 221/236/45
f 223/238/47 239/255/47 238/254/52 222/237/52
f 224/223/48 240/240/48 239/255/47 223/238/47
f 225/239/33 241/256/33 256/257/48 240/240/48
f 226/241/34 242/258/34 241/259/33 225/242/33
f 227/243/35 243/260/35 242/258/34 226/241/34
f 228/244/49 244/261/49 243/260/35 227/243/35
f 229/245/37 245/262/37 244/261/49 228/244/49
f 230/246/50 246/263/50 245/262/37 229/245/37
f 231/247/39 247/264/39 246/263/50 230/246/50
f 232/248/40 248/265/40 247/264/39 231/247/39
f 233/249/41 249/266/41 248/265/40 232/248/40
f 234/250/42 250/267/42 249/266/41 233/249/41
f 235/251/43 251/268/43 250/267/42 234/250/42
f 236/252/51 252/269/51 251/268/43 235/251/43
f 237/253/45 253/270/45 252/269/51 236/252/51
f 238/254/52 254/271/52 253/270/45 237/253/45
f 239/255/47 255/272/47 254/271/52 238/254/52
f 240/240/48 256/257/48 255/272/47 239/255/47
f 241/256/33 257/273/33 272/274/48 256/257/48
f 242/258/34 258/275/34 257/276/33 241/259/33
f 243/260/35 259/277/35 258/275/34 242/258/34
f 244/261/49 260/278/36 259/277/35 243/260/35
f 245/262/37 261/279/37 260/278/36 244/261/49
f 246/263/50 262/280/38 261/279/37 245/262/37
f 247/264/39 263/281/39 262/280/38 246/263/50
f 248/265/40 264/282/40 263/281/39 247/264/39
f 249/266/41 265/283/41 264/282/40 248/265/40
f 250/267/42 266/284/42 265/283/41 249/266/41
f 251/268/43 267/285/43 266/284/42 250/267/42
f 252/269/51 268/286/44 267/285/43 251/268/43
f 253/270/45 269/287/45 268/286/44 252/269/51
f 254/271/52 270/288/46 269/287/45 253/270/45
f 255/272/47 271/289/47 270/288/46 254/271/52
f 256/257/48 272/274/48 271/289/47 255/272/47
f 257/273/33 273/290/33 288/291/48 272/274/48
f 258/275/34 274/292/34 273/293/33 257/276/33
f 259/277/35 275/294/35 274/292/34 258/275/34
f 260/278/36 276/295/49 275/294/35 259/277/35
f 261/279/37 277/296/37 276/295/49 260/278/36
f 262/280/38 278/297/50 277/296/37 261/279/37
f 263/281/39 279/298/39 278/297/50 262/280/38
f 264/282/40 280/299/40 279/298/39 263/281/39
f 265/283/41 281/300/41 280/299/40 264/282/40
f 266/284/42 282/301/42 281/300/41 265/283/41
f 267/285/43 283/302/43 282/301/42 266/284/42
f 268/286/44 284/303/51 283/302/43 267/285/43
f 269/287/45 285/304/45 284/303/51 268/286/44
f 270/288/46 286/305/52 285/304/45 269/287/45
f 271/289/47 287/306/47 286/305/52 270/288/46
f 272/274/48 288/291/48 287/306/47 271/289/47
f 273/290/33 289/307/33 304/308/48 288/291/48
f 274/292/34 290/309/34 289/310/33 273/293/33
f 275/294/35 291/311/35 290/309/34 274/292/34
f 276/295/49 292/312/49 291/311/35 275/294/35
f 277/296/37 293/313/37 292/312/49 276/295/49
f 278/297/50 294/314/38 293/313/37 277/296/37
f 279/298/39 295/315/39 294/314/38 278/297/50
f 280/299/40 296/316/40 295/315/39 279/298/39
f 281/300/41 297/317/41 296/316/40 280/299/40
f 282/301/42 298/318/42 297/317/41 281/300/41
f 283/302/43 299/319/43 298/318/42 282/301/42
f 284/303/51 300/320/44 299/319/43 283/302/43
f 285/304/45 301/321/45 300/320/44 284/303/51
f 286/305/52 302/322/52 301/321/45 285/304/45
f 287/306/47 303/323/47 302/322/52 286/305/52
f 288/291/48 304/308/48 303/323/47 287/306/47
f 289/307/33 305/324/33 320/325/48 304/308/48
f 290/309/34 306/326/34 305/327/33 289/310/33
f 291/311/35 307/328/35 306/326/34 290/309/34
f 292/312/49 308/329/49 307/328/35 291/311/35
f 293/313/37 309/330/37 308/329/49 292/312/49
f 294/314/38 310/331/50 309/330/37 293/313/37
f 295/315/39 311/332/39 310/331/50 294/314/38
f 296/316/40 312/333/40 311/332/39 295/315/39
f 297/317/41 313/334/41 312/333/40 296/316/40
f 298/318/42 314/335/42 313/334/41 297/317/41
f 299/319/43 315/336/43 314/335/42 298/318/42
f 300/320/44 316/337/51 315/336/43 299/319/43
f 301/321/45 317/338/45 316/337/51 300/320/44
f 302/322/52 318/339/52 317/338/45 301/321/45
f 303/323/47 319/340/47 318/339/52 302/322/52
f 304/308/48 320/325/48 319/340/47 303/323/47
f 305/324/33 321/341/33 336/342/48 320/325/48
f 306/326/34 322/343/34 321/344/33 305/327/33
f 307/328/35 323/345/35 322/343/34 306/326/34
f 308/329/49 324/346/36 323/345/35 307/328/35
f 309/330/37 325/347/37 324/346/36 308/329/49
f 310/331/50 326/348/50 325/347/37 309/330/37
f 311/332/39 327/349/39 326/348/50 310/331/50
f 312/333/40 328/350/40 327/349/39 311/332/39
f 313/334/41 329/351/41 328/350/40 312/333/40
f 314/335/42 330/352/42 329/351/41 313/334/41
f 315/336/43 331/353/43 330/352/42 314/335/42
f 316/337/51 332/354/51 331/353/43 315/336/43
f 317/338/45 333/355/45 332/354/51 316/337/51
f 318/339/52 334/356/46 333/355/45 317/338/45
f 319/340/47 335/357/47 334/356/46 318/339/52
f 320/325/48 336/342/48 335/357/47 319/340/47
f 321/341/33 337/358/33 352/359/48 336/342/48
f 322/343/34 338/360/34 337/361/33 321/344/33
f 323/345/35 339/362/35 338/360/34 322/343/34
f 324/346/36 340/363/49 339/362/35 323/345/35
f 325/347/37 341/364/37 340/363/49 324/346/36
f 326/348/50 342/365/50 341/364/37 325/347/37
f 327/349/39 343/366/39 342/365/50 326/348/50
f 328/350/40 344/367/40 343/366/39 327/349/39
f 329/351/41 345/368/41 344/367/40 328/350/40
f 330/352/42 346/369/42 345/368/41 329/351/41
f 331/353/43 347/370/43 346/369/42 330/352/42
f 332/354/51 348/371/51 347/370/43 331/353/43
f 333/355/45 349/372/45 348/371/51 332/354/51
f 334/356/46 350/373/52 349/372/45 333/355/45
f 335/357/47 351/374/47 350/373/52 334/356/46
f 336/342/48 352/359/48 351/374/47 335/357/47
f 337/358/33 353/375/33 368/376/48 352/359/48
f 338/360/34 354/377/34 353/378/33 337/361/33
f 339/362/35 355/379/35 354/377/34 338/360/34
f 340/363/49 356/380/49 355/379/35 339/362/35
f 341/364/37 357/381/37 356/380/49 340/363/49
f 342/365/50 358/382/38 357/381/37 341/364/37
f 343/366/39 359/383/39 358/382/38 342/365/50
f 344/367/40 360/384/40 359/383/39 343/366/39
f 345/368/41 361/385/41 360/384/40 344/367/40
f 346/369/42 362/386/42 361/385/41 345/368/41
f 347/370/43 363/387/43 362/386/42 346/369/42
f 348/371/51 364/388/44 363/387/43 347/370/43
f 349/372/45 365/389/45 364/388/44 348/371/51
f 350/373/52 366/390/52 365/389/45 349/372/45
f 351/374/47 367/391/47 366/390/52 350/373/52
f 352/359/48 368/376/48 367/391/47 351/374/47
f 353/375/33 369/392/33 384/393/48 368/376/48
f 354/377/34 370/394/34 369/395/33 353/378/33
f 355/379/35 371/396/35 370/394/34 354/377/34
f 356/380/49 372/397/49 371/396/35 355/379/35
f 357/381/37 373/398/37 372/397/49 356/380/49
f 358/382/38 374/399/50 373/398/37 357/381/37
f 359/383/39 375/400/39 374/399/50 358/382/38
f 360/384/40 376/401/40 375/400/39 359/383/39
f 361/385/41 377/402/41 376/401/40 360/384/40
f 362/386/42 378/403/42 377/402/41 361/385/41
f 363/387/43 379/404/43 378/403/42 362/386/42
f 364/388/44 380/405/51 379/404/43 363/387/43
f 365/389/45 381/406/45 380/405/51 364/388/44
f 366/390/52 382/407/52 381/406/45 365/389/45
f 367/391/47 383/408/47 382/407/52 366/390/52
f 368/376/48 384/393/48 383/408/47 367/391/47
f 369/392/33 385/409/33 400/410/48 384/393/48
f 370/394/34 386/411/34 385/412/33 369/395/33
f 371/396/35 387/413/35 386/411/34 370/394/34
f 372/397/49 388/414/49 387/413/35 371/396/35
f 373/398/37 389/415/37 388/414/49 372/397/49
f 374/399/50 390/416/50 389/415/37 373/398/37
f 375/400/39 391/417/39 390/416/50 374/399/50
f 376/401/40 392/418/40 391/417/39 375/400/39
f 377/402/41 393/419/41 392/418/40 376/401/40
f 378/403/42 394/420/42 393/419/41 377/402/41
f 379/404/43 395/421/43 394/420/42 378/403/42
f 380/405/51 396/422/51 395/421/43 379/404/43
f 381/406/45 397/423/45 396/422/51 380/405/51
f 382/407/52 398/424/52 397/423/45 381/406/45
f 383/408/47 399/425/47 398/424/52 382/407/52
f 384/393/48 400/410/48 399/425/47 383/408/47
f 385/409/33 401/426/33 416/427/48 400/410/48
f 386/411/34 402/428/34 401/429/33 385/412/33
f 387/413/35 403/430/35 402/428/34 386/411/34
f 388/414/49 404/431/49 403/430/35 387/413/35
f 389/415/37 405/432/37 404/431/49 388/414/49
f 390/416/50 406/433/50 405/432/37 389/415/37
f 391/417/39 407/434/39 406/433/50 390/416/50
f 392/418/40 408/435/40 407/434/39 391/417/39
f 393/419/41 409/436/41 408/435/40 392/418/40
f 394/420/42 410/437/42 409/436/41 393/419/41
f 395/421/43 411/438/43 410/437/42 394/420/42
f 396/422/51 412/439/51 411/438/43 395/421/43
f 397/423/45 413/440/45 412/439/51 396/422/51
f 398/424/52 414/441/52 413/440/45 397/423/45
f 399/425/47 415/442/47 414/441/52 398/424/52
f 400/410/48 416/427/48 415/442/47 399/425/47
f 401/426/33 417/443/33 432/444/48 416/427/48
f 402/428/34 418/445/34 417/446/33 401/429/33
f 403/430/35 419/447/35 418/445/34 402/428/34
f 404/431/49 420/448/49 419/447/35 403/430/35
f 405/432/37 421/449/37 420/448/49 404/431/49
f 406/433/50 422/450/50 421/449/37 405/432/37
f 407/434/39 423/451/39 422/450/50 406/433/50
f 408/435/40 424/452/40 423/451/39 407/434/39
f 409/436/41 425/453/41 424/452/40 408/435/40
f 410/437/42 426/454/42 425/453/41 409/436/41
f 411/438/43 427/455/43 426/454/42 410/437/42
f 412/439/51 428/456/51 427/455/43 411/438/43
f 413/440/45 429/457/45 428/456/51 412/439/51
f 414/441/52 430/458/52 429/457/45 413/440/45
f 415/442/47 431/459/47 430/458/52 414/441/52
f 416/427/48 432/444/48 431/459/47 415/442/47
f 417/443/33 433/460/33 448/461/48 432/444/48
f 418/445/34 434/462/34 433/463/33 417/446/33
f 419/447/35 435/464/35 434/462/34 418/445/34
f 420/448/49 436/465/36 435/464/35 419/447/35
f 421/449/37 437/466/37 436/465/36 420/448/49
f 422/450/50 438/467/38 437/466/37 421/449/37
f 423/451/39 439/468/39 438/467/38 422/450/50
f 424/452/40 440/469/40 439/468/39 423/451/39
f 425/453/41 441/470/41 440/469/40 424/452/40
f 426/454/42 442/471/42 441/470/41 425/453/41
f 427/455/43 443/472/43 442/471/42 426/454/42
f 428/456/51 444/473/44 443/472/43 427/455/43
f 429/457/45 445/474/45 444/473/44 428/456/51
f 430/458/52 446/475/46 445/474/45 429/457/45
f 431/459/47 447/476/47 446/475/46 430/458/52
f 432/444/48 448/461/48 447/476/47 431/459/47
f 433/460/33 449/477/33 464/478/48 448/461/48
f 434/462/34 450/479/34 449/480/33 433/463/33
f 435/464/35 451/481/35 450/479/34 434/462/34
f 436/465/36 452/482/49 451/481/35 435/464/35
f 437/466/37 453/483/37 452/482/49 436/465/36
f 438/467/38 454/484/50 453/483/37 437/466/37
f 439/468/39 455/485/39 454/484/50 438/467/38
f 440/469/40 456/486/40 455/485/39 439/468/39
f 441/470/41 457/487/41 456/486/40 440/469/40
f 442/471/42 458/488/42 457/487/41 441/470/41
f 443/472/43 459/489/43 458/488/42 442/471/42
f 444/473/44 460/490/51 459/489/43 443/472/43
f 445/474/45 461/491/45 460/490/51 444/473/44
f 446/475/46 462/492/52 461/491/45 445/474/45
f 447/476/47 463/493/47 462/492/52 446/475/46
f 448/461/48 464/478/48 463/493/47 447/476/47
f 449/477/33 465/494/33 480/495/48 464/478/48
f 450/479/34 466/496/34 465/497/33 449/480/33
f 451/481/35 467/498/35 466/496/34 450/479/34
f 452/482/49 468/499/49 467/498/35 451/481/35
f 453/483/37 469/500/37 468/499/49 452/482/49
f 454/484/50 470/501/50 469/500/37 453/483/37
f 455/485/39 471/502/39 470/501/50 454/484/50
f 456/486/40 472/503/40 471/502/39 455/485/39
f 457/487/41 473/504/41 472/503/40 456/486/40
f 458/488/42 474/505/42 473/504/41 457/487/41
f 459/489/43 475/506/43 474/505/42 458/488/42
f 460/490/51 476/507/51 475/506/43 459/489/43
f 461/491/45 477/508/45 476/507/51 460/490/51
f 462/492/52 478/509/52 477/508/45 461/491/45
f 463/493/47 479/510/47 478/509/52 462/492/52
f 464/478/48 480/495/48 479/510/47 463/493/47
f 465/494/33 481/511/33 496/512/48 480/495/48
f 466/496/34 482/513/34 481/514/33 465/497/33
f 467/498/35 483/515/35 482/513/34 466/496/34
f 468/499/49 484/516/36 483/515/35 467/498/35
f 469/500/37 485/517/37 484/516/36 468/499/49
f 470/501/50 486/518/50 485/517/37 469/500/37
f 471/502/39 487/519/39 486/518/50 470/501/50
f 472/503/40 488/520/40 487/519/39 471/502/39
f 473/504/41 489/521/41 488/520/40 472/503/40
f 474/505/42 490/522/42 489/521/41 473/504/41
f 475/506/43 491/523/43 490/522/42 474/505/42
f 476/507/51 492/524/51 491/523/43 475/506/43
f 477/508/45 493/525/45 492/524/51 476/507/51
f 478/509/52 494/526/46 493/525/45 477/508/45
f 479/510/47 495/527/47 494/526/46 478/509/52
f 480/495/48 496/512/48 495/527/47 479/510/47
f 481/511/33 497/528/33 512/529/48 496/512/48
f 482/513/34 498/530/34 497/531/33 481/514/33
f 483/515/35 499/532/35 498/530/34 482/513/34
f 484/516/36 500/533/36 499/532/35 483/515/35
f 485/517/37 501/534/37 500/533/36 484/516/36
f 486/518/50 502/535/38 501/534/37 485/517/37
f 487/519/39 503/536/39 502/535/38 486/518/50
f 488/520/40 504/537/40 503/536/39 487/519/39
f 489/521/41 505/538/41 504/537/40 488/520/40
f 490/522/42 506/539/42 505/538/41 489/521/41
f 491/523/43 507/540/43 506/539/42 490/522/42
f 492/524/51 508/541/44 507/540/43 491/523/43
f 493/525/45 509/542/45 508/541/44 492/524/51
f 494/526/46 510/543/46 509/542/45 493/525/45
f 495/527/47 511/544/47 510/543/46 494/526/46
f 496/512/48 512/529/48 511/544/47 495/527/47
f 497/528/33 513/545/33 528/546/48 512/529/48
f 498/530/34 514/547/34 513/548/33 497/531/33
f 499/532/35 515/549/35 514/547/34 498/530/34
f 500/533/36 516/550/49 515/549/35 499/532/35
f 501/534/37 517/551/37 516/550/49 500/533/36
f 502/535/38 518/552/50 517/551/37 501/534/37
f 503/536/39 519/553/39 518/552/50 502/535/38
f 504/537/40 520/554/40 519/553/39 503/536/39
f 505/538/41 521/555/41 520/554/40 504/537/40
f 506/539/42 522/556/42 521/555/41 505/538/41
f 507/540/43 523/557/43 522/556/42 506/539/42
f 508/541/44 524/558/51 523/557/43 507/540/43
f 509/542/45 525/559/45 524/558/51 508/541/44
f 510/543/46 526/560/52 525/559/45 509/542/45
f 511/544/47 527/561/47 526/560/52 510/543/46
f 512/529/48 528/546/48 527/561/47 511/544/47
f 513/545/33 529/562/33 544/563/48 528/546/48
f 514/547/34 530/564/34 529/565/33 513/548/33
f 515/549/35 531/566/35 530/564/34 514/547/34
f 516/550/49 532/567/36 531/566/35 515/549/35
f 517/551/37 533/568/37 532/567/36 516/550/49
f 518/552/50 534/569/50 533/568/37 517/551/37
f 519/553/39 535/570/39 534/569/50 518/552/50
f 520/554/40 536/571/40 535/570/39 519/553/39
f 521/555/41 537/572/41 536/571/40 520/554/40
f 522/556/42 538/573/42 537/572/41 521/555/41
f 523/557/43 539/574/43 538/573/42 522/556/42
f 524/558/51 540/575/51 539/574/43 523/557/43
f 525/559/45 541/576/45 540/575/51 524/558/51
f 526/560/52 542/577/46 541/576/45 525/559/45
f 527/561/47 543/578/47 542/577/46 526/560/52
f 528/546/48 544/563/48 543/578/47 527/561/47
f 529/562/33 545/579/33 560/580/48 544/563/48
f 530/564/34 546/581/34 545/582/33 529/565/33
f 531/566/35 547/583/35 546/581/34 530/564/34
f 532/567/36 548/584/36 547/583/35 531/566/35
f 533/568/37 549/585/37 548/584/36 532/567/36
f 534/569/50 550/586/50 549/585/37 533/568/37
f 535/570/39 551/587/39 550/586/50 534/569/50
f 536/571/40 552/588/40 551/587/39 535/570/39
f 537/572/41 553/589/41 552/588/40 536/571/40
f 538/573/42 554/590/42 553/589/41 537/572/41
f 539/574/43 555/591/43 554/590/42 538/573/42
f 540/575/51 556/592/51 555/591/43 539/574/43
f 541/576/45 557/593/45 556/592/51 540/575/51
f 542/577/46 558/594/46 557/593/45 541/576/45
f 543/578/47 559/595/47 558/594/46 542/577/46
f 544/563/48 560/580/48 559/595/47 543/578/47
f 545/579/33 561/596/33 576/597/48 560/580/48
f 546/581/34 562/598/34 561/599/33 545/582/33
f 547/583/35 563/600/35 562/598/34 546/581/34
f 548/584/36 564/601/49 563/600/35 547/583/35
f 549/585/37 565/602/37 564/601/49 548/584/36
f 550/586/50 566/603/38 565/602/37 549/585/37
f 551/587/39 567/604/39 566/603/38 550/586/50
f 552/588/40 568/605/40 567/604/39 551/587/39
f 553/589/41 569/606/41 568/605/40 552/588/40
f 554/590/42 570/607/42 569/606/41 553/589/41
f 555/591/43 571/608/43 570/607/42 554/590/42
f 556/592/51 572/609/44 571/608/43 555/591/43
f 557/593/45 573/610/45 572/609/44 556/592/51
f 558/594/46 574/611/52 573/610/45 557/593/45
f 559/595/47 575/612/47 574/611/52 558/594/46
f 560/580/48 576/597/48 575/612/47 559/595/47
f 561/596/33 577/613/33 592/614/48 576/597/48
f 562/598/34 578/615/34 577/616/33 561/599/33
f 563/600/35 579/617/35 578/615/34 562/598/34
f 564/601/49 580/618/49 579/617/35 563/600/35
f 565/602/37 581/619/37 580/618/49 564/601/49
f 566/603/38 582/620/50 581/619/37 565/602/37
f 567/604/39 583/621/39 582/620/50 566/603/38
f 568/605/40 584/622/40 583/621/39 567/604/39
f 569/606/41 585/623/41 584/622/40 568/605/40
f 570/607/42 586/624/42 585/623/41 569/606/41
f 571/608/43 587/625/43 586/624/42 570/607/42
f 572/609/44 588/626/51 587/625/43 571/608/43
f 573/610/45 589/627/45 588/626/51 572/609/44
f 574/611/52 590/628/52 589/627/45 573/610/45
f 575/612/47 591/629/47 590/628/52 574/611/52
f 576/597/48 592/614/48 591/629/47 575/612/47
f 577/613/33 593/630/33 608/631/48 592/614/48
f 578/615/34 594/632/34 593/633/33 577/616/33
f 579/617/35 595/634/35 594/632/34 578/615/34
f 580/618/49 596/635/49 595/634/35 579/617/35
f 581/619/37 597/636/37 596/635/49 580/618/49
f 582/620/50 598/637/50 597/636/37 581/619/37
f 583/621/39 599/638/39 598/637/50 582/620/50
f 584/622/40 600/639/40 599/638/39 583/621/39
f 585/623/41 601/640/41 600/639/40 584/622/40
f 586/624/42 602/641/42 601/640/41 585/623/41
f 587/625/43 603/642/43 602/641/42 586/624/42
f 588/626/51 604/643/51 603/642/43 587/625/43
f 589/627/45 605/644/45 604/643/51 588/626/51
f 590/628/52 606/645/52 605/644/45 589/627/45
f 591/629/47 607/646/47 606/645/52 590/628/52
f 592/614/48 608/631/48 607/646/47 591/629/47
f 593/630/33 609/647/33 624/648/48 608/631/48
f 594/632/34 610/649/34 609/650/33 593/633/33
f 595/634/35 611/651/35 610/649/34 594/632/34
f 596/635/49 612/652/36 611/651/35 595/634/35
f 597/636/37 613/653/37 612/652/36 596/635/49
f 598/637/50 614/654/38 613/653/37 597/636/37
f 599/638/39 615/655/39 614/654/38 598/637/50
f 600/639/40 616/656/40 615/655/39 599/638/39
f 601/640/41 617/657/41 616/656/40 600/639/40
f 602/641/42 618/658/42 617/657/41 601/640/41
f 603/642/43 619/659/43 618/658/42 602/641/42
f 604/643/51 620/660/44 619/659/43 603/642/43
f 605/644/45 621/661/45 620/660/44 604/643/51
f 606/645/52 622/662/46 621/661/45 605/644/45
f 607/646/47 623/663/47 622/662/46 606/645/52
f 608/631/48 624/648/48 623/663/47 607/646/47
f 609/647/33 625/664/33 640/665/48 624/648/48
f 610/649/34 626/666/34 625/667/33 609/650/33
f 611/651/35 627/668/35 626/666/34 610/649/34
f 612/652/36 628/669/49 627/668/35 611/651/35
f 613/653/37 629/670/37 628/669/49 612/652/36
f 614/654/38 630/671/38 629/670/37 613/653/37
f 615/655/39 631/672/39 630/671/38 614/654/38
f 616/656/40 632/673/40 631/672/39 615/655/39
f 617/657/41 633/674/41 632/673/40 616/656/40
f 618/658/42 634/675/42 633/674/41 617/657/41
f 619/659/43 635/676/43 634/675/42 618/658/42
f 620/660/44 636/677/44 635/676/43 619/659/43
f 621/661/45 637/678/45 636/677/44 620/660/44
f 622/662/46 638/679/52 637/678/45 621/661/45
f 623/663/47 639/680/47 638/679/52 622/662/46
f 624/648/48 640/665/48 639/680/47 623/663/47
f 625/664/33 641/681/33 656/682/48 640/665/48
f 626/666/34 642/683/34 641/684/33 625/667/33
f 627/668/35 643/685/35 642/683/34 626/666/34
f 628/669/49 644/686/49 643/685/35 627/668/35
f 629/670/37 645/687/37 644/686/49 628/669/49
f 630/671/38 646/688/50 645/687/37 629/670/37
f 631/672/39 647/689/39 646/688/50 630/671/38
f 632/673/40 648/690/40 647/689/39 631/672/39
f 633/674/41 649/691/41 648/690/40 632/673/40
f 634/675/42 650/692/42 649/691/41 633/674/41
f 635/676/43 651/693/43 650/692/42 634/675/42
f 636/677/44 652/694/51 651/693/43 635/676/43
f 637/678/45 653/695/45 652/694/51 636/677/44
f 638/679/52 654/696/52 653/695/45 637/678/45
f 639/680/47 655/697/47 654/696/52 638/679/52
f 640/665/48 656/682/48 655/697/47 639/680/47
f 641/681/33 657/698/33 672/699/48 656/682/48
f 642/683/34 658/700/34 657/701/33 641/684/33
f 643/685/35 659/702/35 658/700/34 642/683/34
f 644/686/49 660/703/36 659/702/35 643/685/35
f 645/687/37 661/704/37 660/703/36 644/686/49
f 646/688/50 662/705/50 661/704/37 645/687/37
f 647/689/39 663/706/39 662/705/50 646/688/50
f 648/690/40 664/707/40 663/706/39 647/689/39
f 649/691/41 665/708/41 664/707/40 648/690/40
f 650/692/42 666/709/42 665/708/41 649/691/41
f 651/693/43 667/710/43 666/709/42 650/692/42
f 652/694/51 668/711/51 667/710/43 651/693/43
f 653/695/45 669/712/45 668/711/51 652/694/51
f 654/696/52 670/713/52 669/712/45 653/695/45
f 655/697/47 671/714/47 670/713/52 654/696/52
f 656/682/48 672/699/48 671/714/47 655/697/47
f 657/698/33 673/715/33 688/716/48 672/699/48
f 658/700/34 674/717/34 673/718/33 657/701/33
f 659/702/35 675/719/35 674/717/34 658/700/34
f 660/703/36 676/720/49 675/719/35 659/702/35
f 661/704/37 677/721/37 676/720/49 660/703/36
f 662/705/50 678/722/38 677/721/37 661/704/37
f 663/706/39 679/723/39 678/722/38 662/705/50
f 664/707/40 680/724/40 679/723/39 663/706/39
f 665/708/41 681/725/41 680/724/40 664/707/40
f 666/709/42 682/726/42 681/725/41 665/708/41
f 667/710/43 683/727/43 682/726/42 666/709/42
f 668/711/51 684/728/44 683/727/43 667/710/43
f 669/712/45 685/729/45 684/728/44 668/711/51
f 670/713/52 686/730/46 685/729/45 669/712/45
f 671/714/47 687/731/47 686/730/46 670/713/52
f 672/699/48 688/716/48 687/731/47 671/714/47
f 673/715/33 689/732/33 704/733/48 688/716/48
f 674/717/34 690/734/34 689/735/33 673/718/33
f 675/719/35 691/736/35 690/734/34 674/717/34
f 676/720/49 692/737/49 691/736/35 675/719/35
f 677/721/37 693/738/37 692/737/49 676/720/49
f 678/722/38 694/739/50 693/738/37 677/721/37
f 679/723/39 695/740/39 694/739/50 678/722/38
f 680/724/40 696/741/40 695/740/39 679/723/39
f 681/725/41 697/742/41 696/741/40 680/724/40
f 682/726/42 698/743/42 697/742/41 681/725/41
f 683/727/43 699/744/43 698/743/42 682/726/42
f 684/728/44 700/745/51 699/744/43 683/727/43
f 685/729/45 701/746/45 700/745/51 684/728/44
f 686/730/46 702/747/52 701/746/45 685/729/45
f 687/731/47 703/748/47 702/747/52 686/730/46
f 688/716/48 704/733/48 703/748/47 687/731/47
f 689/732/33 705/749/33 720/750/48 704/733/48
f 690/734/34 706/751/34 705/752/33 689/735/33
f 691/736/35 707/753/35 706/751/34 690/734/34
f 692/737/49 708/754/49 707/753/35 691/736/35
f 693/738/37 709/755/37 708/754/49 692/737/49
f 694/739/50 710/756/50 709/755/37 693/738/37
f 695/740/39 711/757/39 710/756/50 694/739/50
f 696/741/40 712/758/40 711/757/39 695/740/39
f 697/742/41 713/759/41 712/758/40 696/741/40
f 698/743/42 714/760/42 713/759/41 697/742/41
f 699/744/43 715/761/43 714/760/42 698/743/42
f 700/745/51 716/762/51 715/761/43 699/744/43
f 701/746/45 717/763/45 716/762/51 700/745/51
f 702/747/52 718/764/52 717/763/45 701/746/45
f 703/748/47 719/765/47 718/764/52 702/747/52
f 704/733/48 720/750/48 719/765/47 703/748/47
f 705/749/33 721/766/33 736/767/48 720/750/48
f 706/751/34 722/768/34 721/769/33 705/752/33
f 707/753/35 723/770/35 722/768/34 706/751/34
f 708/754/49 724/771/36 723/770/35 707/753/35
f 709/755/37 725/772/37 724/771/36 708/754/49
f 710/756/50 726/773/50 725/772/37 709/755/37
f 711/757/39 727/774/39 726/773/50 710/756/50
f 712/758/40 728/775/40 727/774/39 711/757/39
f 713/759/41 729/776/41 728/775/40 712/758/40
f 714/760/42 730/777/42 729/776/41 713/759/41
f 715/761/43 731/778/43 730/777/42 714/760/42
f 716/762/51 732/779/51 731/778/43 715/761/43
f 717/763/45 733/780/45 732/779/51 716/762/51
f 718/764/52 734/781/46 733/780/45 717/763/45
f 719/765/47 735/782/47 734/781/46 718/764/52
f 720/750/48 736/767/48 735/782/47 719/765/47
f 721/766/33 737/783/53 752/784/68 736/767/48
f 722/768/34 738/785/54 737/786/53 721/769/33
f 723/770/35 739/787/55 738/785/54 722/768/34
f 724/771/36 740/788/56 739/787/55 723/770/35
f 725/772/37 741/789/57 740/788/56 724/771/36
f 726/773/50 742/790/58 741/789/57 725/772/37
f 727/774/39 743/791/59 742/790/58 726/773/50
f 728/775/40 744/792/60 743/791/59 727/774/39
f 729/776/41 745/793/61 744/792/60 728/775/40
f 730/777/42 746/794/62 745/793/61 729/776/41
f 731/778/43 747/795/63 746/794/62 730/777/42
f 732/779/51 748/796/64 747/795/63 731/778/43
f 733/780/45 749/797/65 748/796/64 732/779/51
f 734/781/46 750/798/66 749/797/65 733/780/45
f 735/782/47 751/799/67 750/798/66 734/781/46
f 736/767/48 752/784/68 751/799/67 735/782/47
f 737/783/53 753/800/69 768/801/84 752/784/68
f 738/785/54 754/802/70 753/803/69 737/786/53
f 739/787/55 755/804/71 754/802/70 738/785/54
f 740/788/56 756/805/72 755/804/71 739/787/55
f 741/789/57 757/806/73 756/805/72 740/788/56
f 742/790/58 758/807/74 757/806/73 741/789/57
f 743/791/59 759/808/75 758/807/74 742/790/58
f 744/792/60 760/809/76 759/808/75 743/791/59
f 745/793/61 761/810/77 760/809/76 744/792/60
f 746/794/62 762/811/78 761/810/77 745/793/61
f 747/795/63 763/812/79 762/811/78 746/794/62
f 748/796/64 764/813/80 763/812/79 747/795/63
f 749/797/65 765/814/81 764/813/80 748/796/64
f 750/798/66 766/815/82 765/814/81 749/797/65
f 751/799/67 767/816/83 766/815/82 750/798/66
f 752/784/68 768/801/84 767/816/83 751/799/67
