# Blender 4.5.3 LTS
# www.blender.org
mtllib SprinklesContainer.mtl
o Sprikles_kontejner
v -1.138737 0.758087 -0.373914
v -1.138737 1.855336 -0.373914
v -1.060892 0.758087 -0.366138
v -1.060892 1.855336 -0.366138
v -0.986038 0.758087 -0.343108
v -0.986038 1.855336 -0.343108
v -0.917052 0.758087 -0.305709
v -0.917052 1.855336 -0.305709
v -0.856586 0.758087 -0.255380
v -0.856586 1.855336 -0.255380
v -0.806963 0.758087 -0.194053
v -0.806963 1.855336 -0.194053
v -0.770089 0.758087 -0.124085
v -0.770089 1.855336 -0.124085
v -0.747383 0.758087 -0.048166
v -0.747383 1.855336 -0.048166
v -0.739716 0.758087 0.030787
v -0.739716 1.855336 0.030787
v -0.747383 0.758087 0.109741
v -0.747383 1.855336 0.109741
v -0.770089 0.758087 0.185660
v -0.770089 1.855336 0.185660
v -0.806963 0.758087 0.255627
v -0.806963 1.855336 0.255627
v -0.856586 0.758087 0.316954
v -0.856586 1.855336 0.316954
v -0.917052 0.758087 0.367284
v -0.917052 1.855336 0.367284
v -0.986038 0.758087 0.404682
v -0.986038 1.855336 0.404682
v -1.060892 0.758087 0.427712
v -1.060892 1.855336 0.427712
v -1.138737 0.758087 0.435488
v -1.138737 1.855336 0.435488
v -1.216582 0.758087 0.427712
v -1.216582 1.855336 0.427712
v -1.291435 0.758087 0.404682
v -1.291435 1.855336 0.404682
v -1.360421 0.758087 0.367284
v -1.360421 1.855336 0.367284
v -1.420887 0.758087 0.316954
v -1.420887 1.855336 0.316954
v -1.470511 0.758087 0.255627
v -1.470511 1.855336 0.255627
v -1.507384 0.758087 0.185660
v -1.507384 1.855336 0.185660
v -1.530091 0.758087 0.109741
v -1.530091 1.855336 0.109741
v -1.537758 0.758087 0.030787
v -1.537758 1.855336 0.030787
v -1.530091 0.758087 -0.048166
v -1.530091 1.855336 -0.048166
v -1.507384 0.758087 -0.124085
v -1.507384 1.855336 -0.124085
v -1.470511 0.758087 -0.194053
v -1.470511 1.855336 -0.194053
v -1.420887 0.758087 -0.255380
v -1.420887 1.855336 -0.255380
v -1.360421 0.758087 -0.305709
v -1.360421 1.855336 -0.305709
v -1.291435 0.758087 -0.343108
v -1.291435 1.855336 -0.343108
v -1.216582 0.758087 -0.366138
v -1.216582 1.855336 -0.366138
vn 0.0994 -0.0000 -0.9950
vn 0.2941 -0.0000 -0.9558
vn 0.4766 -0.0000 -0.8791
vn 0.6397 -0.0000 -0.7686
vn 0.7774 -0.0000 -0.6290
vn 0.8847 -0.0000 -0.4662
vn 0.9581 -0.0000 -0.2865
vn 0.9953 -0.0000 -0.0967
vn 0.9953 -0.0000 0.0967
vn 0.9581 -0.0000 0.2865
vn 0.8847 -0.0000 0.4662
vn 0.7774 -0.0000 0.6290
vn 0.6397 -0.0000 0.7686
vn 0.4766 -0.0000 0.8791
vn 0.2941 -0.0000 0.9558
vn 0.0994 -0.0000 0.9950
vn -0.0994 -0.0000 0.9950
vn -0.2941 -0.0000 0.9558
vn -0.4766 -0.0000 0.8791
vn -0.6397 -0.0000 0.7686
vn -0.7774 -0.0000 0.6290
vn -0.8847 -0.0000 0.4662
vn -0.9581 -0.0000 0.2865
vn -0.9953 -0.0000 0.0967
vn -0.9953 -0.0000 -0.0967
vn -0.9581 -0.0000 -0.2865
vn -0.8847 -0.0000 -0.4662
vn -0.7774 -0.0000 -0.6290
vn -0.6397 -0.0000 -0.7686
vn -0.4766 -0.0000 -0.8791
vn -0.0000 1.0000 -0.0000
vn -0.2941 -0.0000 -0.9558
vn -0.0994 -0.0000 -0.9950
vn -0.0000 -1.0000 -0.0000
vt 0.507627 0.000171
vt 0.845762 0.000171
vt 0.845762 0.021304
vt 0.507627 0.021304
vt 0.845762 0.042438
vt 0.507627 0.042438
vt 0.845762 0.063571
vt 0.507627 0.063571
vt 0.845762 0.084705
vt 0.507627 0.084705
vt 0.845762 0.105838
vt 0.507627 0.105838
vt 0.845762 0.126972
vt 0.507627 0.126972
vt 0.845762 0.148105
vt 0.507627 0.148105
vt 0.845762 0.169238
vt 0.507627 0.169238
vt 0.845762 0.190372
vt 0.507627 0.190372
vt 0.845762 0.211505
vt 0.507627 0.211505
vt 0.845762 0.232639
vt 0.507627 0.232639
vt 0.845762 0.253772
vt 0.507627 0.253772
vt 0.845762 0.274906
vt 0.507627 0.274906
vt 0.845762 0.296039
vt 0.507627 0.296039
vt 0.845762 0.317172
vt 0.507627 0.317172
vt 0.845762 0.338306
vt 0.507627 0.338306
vt 0.845762 0.359439
vt 0.507627 0.359439
vt 0.845762 0.380573
vt 0.507627 0.380573
vt 0.845762 0.401706
vt 0.507627 0.401706
vt 0.845762 0.422840
vt 0.507627 0.422840
vt 0.845762 0.443973
vt 0.507627 0.443973
vt 0.845762 0.465106
vt 0.507627 0.465106
vt 0.845762 0.486240
vt 0.507627 0.486240
vt 0.845762 0.507373
vt 0.507627 0.507373
vt 0.845762 0.528507
vt 0.507627 0.528507
vt 0.845762 0.549640
vt 0.507627 0.549640
vt 0.845762 0.570774
vt 0.507627 0.570774
vt 0.845762 0.591907
vt 0.507627 0.591907
vt 0.845762 0.613040
vt 0.507627 0.613040
vt 0.845762 0.634174
vt 0.507627 0.634174
vt 0.592641 0.695166
vt 0.622036 0.682990
vt 0.653242 0.676783
vt 0.685059 0.676783
vt 0.716265 0.682990
vt 0.745660 0.695166
vt 0.772115 0.712843
vt 0.794614 0.735341
vt 0.812290 0.761796
vt 0.824466 0.791191
vt 0.830674 0.822397
vt 0.830674 0.854214
vt 0.824466 0.885420
vt 0.812290 0.914816
vt 0.794614 0.941271
vt 0.772116 0.963769
vt 0.745660 0.981446
vt 0.716265 0.993622
vt 0.685059 0.999829
vt 0.653242 0.999829
vt 0.622036 0.993622
vt 0.592641 0.981446
vt 0.566186 0.963769
vt 0.543687 0.941271
vt 0.526011 0.914816
vt 0.513835 0.885420
vt 0.507627 0.854214
vt 0.507627 0.822397
vt 0.513835 0.791191
vt 0.526011 0.761796
vt 0.543687 0.735341
vt 0.566185 0.712843
vt 0.845762 0.655307
vt 0.507627 0.655307
vt 0.845762 0.676441
vt 0.507627 0.676441
vt 0.085184 0.981329
vt 0.114579 0.993505
vt 0.145785 0.999712
vt 0.177603 0.999712
vt 0.208809 0.993505
vt 0.238204 0.981329
vt 0.264659 0.963652
vt 0.287157 0.941154
vt 0.304834 0.914699
vt 0.317010 0.885303
vt 0.323217 0.854097
vt 0.323217 0.822280
vt 0.317010 0.791074
vt 0.304834 0.761679
vt 0.287157 0.735224
vt 0.264659 0.712726
vt 0.238204 0.695049
vt 0.208809 0.682873
vt 0.177603 0.676666
vt 0.145786 0.676666
vt 0.114580 0.682873
vt 0.085184 0.695049
vt 0.058729 0.712725
vt 0.036231 0.735224
vt 0.018554 0.761679
vt 0.006378 0.791074
vt 0.000171 0.822280
vt 0.000171 0.854097
vt 0.006378 0.885303
vt 0.018554 0.914699
vt 0.036231 0.941154
vt 0.058729 0.963652
s 0
usemtl Material.003
f 1/1/1 2/2/1 4/3/1 3/4/1
f 3/4/2 4/3/2 6/5/2 5/6/2
f 5/6/3 6/5/3 8/7/3 7/8/3
f 7/8/4 8/7/4 10/9/4 9/10/4
f 9/10/5 10/9/5 12/11/5 11/12/5
f 11/12/6 12/11/6 14/13/6 13/14/6
f 13/14/7 14/13/7 16/15/7 15/16/7
f 15/16/8 16/15/8 18/17/8 17/18/8
f 17/18/9 18/17/9 20/19/9 19/20/9
f 19/20/10 20/19/10 22/21/10 21/22/10
f 21/22/11 22/21/11 24/23/11 23/24/11
f 23/24/12 24/23/12 26/25/12 25/26/12
f 25/26/13 26/25/13 28/27/13 27/28/13
f 27/28/14 28/27/14 30/29/14 29/30/14
f 29/30/15 30/29/15 32/31/15 31/32/15
f 31/32/16 32/31/16 34/33/16 33/34/16
f 33/34/17 34/33/17 36/35/17 35/36/17
f 35/36/18 36/35/18 38/37/18 37/38/18
f 37/38/19 38/37/19 40/39/19 39/40/19
f 39/40/20 40/39/20 42/41/20 41/42/20
f 41/42/21 42/41/21 44/43/21 43/44/21
f 43/44/22 44/43/22 46/45/22 45/46/22
f 45/46/23 46/45/23 48/47/23 47/48/23
f 47/48/24 48/47/24 50/49/24 49/50/24
f 49/50/25 50/49/25 52/51/25 51/52/25
f 51/52/26 52/51/26 54/53/26 53/54/26
f 53/54/27 54/53/27 56/55/27 55/56/27
f 55/56/28 56/55/28 58/57/28 57/58/28
f 57/58/29 58/57/29 60/59/29 59/60/29
f 59/60/30 60/59/30 62/61/30 61/62/30
f 4/63/31 2/64/31 64/65/31 62/66/31 60/67/31 58/68/31 56/69/31 54/70/31 52/71/31 50/72/31 48/73/31 46/74/31 44/75/31 42/76/31 40/77/31 38/78/31 36/79/31 34/80/31 32/81/31 30/82/31 28/83/31 26/84/31 24/85/31 22/86/31 20/87/31 18/88/31 16/89/31 14/90/31 12/91/31 10/92/31 8/93/31 6/94/31
f 61/62/32 62/61/32 64/95/32 63/96/32
f 63/96/33 64/95/33 2/97/33 1/98/33
f 1/99/34 3/100/34 5/101/34 7/102/34 9/103/34 11/104/34 13/105/34 15/106/34 17/107/34 19/108/34 21/109/34 23/110/34 25/111/34 27/112/34 29/113/34 31/114/34 33/115/34 35/116/34 37/117/34 39/118/34 41/119/34 43/120/34 45/121/34 47/122/34 49/123/34 51/124/34 53/125/34 55/126/34 57/127/34 59/128/34 61/129/34 63/130/34
o Tunel_za_sprinkles
v -1.360383 0.897437 0.150466
v -1.360456 0.897471 -0.079053
v -0.424312 0.429545 0.150102
v -1.378947 0.703275 0.150443
v -1.378672 0.706940 -0.079075
v -0.424305 0.430399 -0.079417
v -0.424361 0.429665 -0.033422
v -0.424370 0.429573 -0.033858
v -0.439191 0.430968 0.150107
v -0.424851 0.429617 -0.021782
v -1.212832 0.883357 -0.079102
v -0.413639 0.541966 -0.079404
v -0.413566 0.541932 0.150115
v -1.212760 0.883323 0.150417
vn -0.9955 0.0952 0.0003
vn -0.0003 0.0001 -1.0000
vn 0.9955 -0.0952 -0.0003
vn 0.0003 -0.0001 1.0000
vn -0.0952 -0.9955 -0.0001
vn 0.0952 0.9955 0.0001
vn -0.9596 0.2787 -0.0393
vn -0.2783 -0.9604 -0.0157
vn 0.3928 0.9196 -0.0000
vt 0.338247 0.000171
vt 0.338247 0.169209
vt 0.252355 0.169209
vt 0.250718 0.000171
vt 0.169579 0.338247
vt 0.338247 0.194884
vt 0.219874 0.338247
vt 0.169209 0.507285
vt 0.169209 0.371801
vt 0.169251 0.372122
vt 0.169579 0.338247
vt 0.219874 0.338247
vt 0.219874 0.507285
vt 0.338247 0.676324
vt 0.250717 0.676324
vt 0.169209 0.509873
vt 0.338247 0.650649
vt 0.166621 0.507285
vt 0.169125 0.380695
vt 0.481610 0.338247
vt 0.507285 0.338247
vt 0.507285 0.507285
vt 0.481610 0.507285
vt 0.625000 0.563205
vt 0.624928 0.562911
vt 0.625000 0.571079
vt 0.819102 0.713754
vt 0.821029 0.558766
vt 0.625386 0.532146
vt 0.626455 0.687541
vt 0.332103 0.704985
vt 0.332103 0.516507
vt 0.154911 0.516507
vt 0.154912 0.704985
s 0
usemtl Material.004
f 65/131/35 66/132/35 69/133/35 68/134/35
f 70/135/36 69/133/36 66/132/36 75/136/36 76/137/36
f 67/138/37 72/139/37 71/140/37 70/141/37 76/142/37 77/143/37
f 65/144/38 68/145/38 73/146/38 67/138/38 77/143/38 78/147/38
f 67/138/39 73/148/39 74/149/39 72/139/39
f 75/150/40 66/151/40 65/152/40 78/153/40
f 71/154/41 72/155/41 74/156/41
f 68/157/42 69/158/42 70/159/42 71/154/42 74/156/42 73/160/42
f 77/161/43 76/162/43 75/163/43 78/164/43
