# Blender 4.5.3 LTS
# www.blender.org
mtllib Sprinkle.mtl
o Sphere.334
v -0.926545 0.776508 -0.164776
v -0.885240 0.668061 -0.100491
v -0.890968 0.566248 -0.015633
v -0.911481 0.522780 0.030544
v -0.942857 0.486570 0.076879
v -1.033008 0.441156 0.162960
v -1.004548 0.883230 -0.189412
v -0.955193 0.844018 -0.167756
v -0.915021 0.799718 -0.138322
v -0.885578 0.752033 -0.102242
v -0.867994 0.702796 -0.060901
v -0.862945 0.653899 -0.015888
v -0.870625 0.607221 0.031066
v -0.890739 0.564555 0.078158
v -0.922514 0.527543 0.123578
v -0.964729 0.497604 0.165580
v -1.015761 0.475892 0.202550
v -1.073650 0.463238 0.233068
v -1.136171 0.460131 0.255960
v -1.200921 0.466689 0.270347
v -1.265412 0.482661 0.275676
v -1.002776 0.892483 -0.180449
v -0.951717 0.862167 -0.150175
v -0.909976 0.826067 -0.112798
v -0.879157 0.785570 -0.069756
v -0.860443 0.742231 -0.022701
v -0.854555 0.697717 0.026557
v -0.861718 0.653737 0.076126
v -0.881658 0.611984 0.124101
v -0.913608 0.574059 0.168637
v -0.956339 0.541422 0.208025
v -1.008211 0.515327 0.240750
v -1.067229 0.496775 0.265554
v -1.131126 0.486481 0.281484
v -1.197446 0.484839 0.287928
v -1.263641 0.491914 0.284639
v -1.003348 0.902483 -0.172157
v -0.952838 0.881783 -0.133909
v -0.911604 0.854545 -0.089184
v -0.881228 0.821814 -0.039701
v -0.862879 0.784850 0.012640
v -0.857261 0.745073 0.065826
v -0.864591 0.704010 0.117813
v -0.884587 0.663241 0.166605
v -0.916480 0.624332 0.210325
v -0.959046 0.588778 0.247294
v -1.010647 0.557946 0.276091
v -1.069301 0.533020 0.295609
v -1.132754 0.514958 0.305098
v -1.198567 0.504455 0.304194
v -1.264212 0.501914 0.292931
v -1.006240 0.912846 -0.164854
v -0.958512 0.902110 -0.119584
v -0.919841 0.884055 -0.068388
v -0.891712 0.859374 -0.013232
v -0.875207 0.829016 0.043764
v -0.870959 0.794147 0.100409
v -0.879133 0.756108 0.154527
v -0.899414 0.716359 0.204038
v -0.931022 0.676429 0.247039
v -0.972744 0.637853 0.281877
v -1.022974 0.602112 0.307215
v -1.079785 0.570580 0.322078
v -1.140991 0.544469 0.325895
v -1.204241 0.524782 0.318519
v -1.267105 0.512276 0.300234
v -1.011343 0.923173 -0.158821
v -0.968521 0.922368 -0.107750
v -0.934371 0.913465 -0.051208
v -0.910206 0.896806 0.008634
v -0.896953 0.873031 0.069476
v -0.895123 0.843054 0.128979
v -0.904785 0.808027 0.184856
v -0.925568 0.769296 0.234961
v -0.956674 0.728349 0.277368
v -0.996907 0.686760 0.310447
v -1.044721 0.646127 0.332927
v -1.098278 0.608012 0.343944
v -1.155521 0.573879 0.343075
v -1.214250 0.545040 0.330353
v -1.272207 0.522604 0.306267
v -1.061191 0.915849 -0.202457
v -1.018459 0.933068 -0.154290
v -0.982480 0.941778 -0.098862
v -0.954637 0.941644 -0.038304
v -0.935999 0.932671 0.025057
v -0.927282 0.915204 0.088787
v -0.928823 0.889914 0.150436
v -0.940561 0.857773 0.207635
v -0.962045 0.820016 0.258186
v -0.992450 0.778095 0.300147
v -1.030607 0.733620 0.331904
v -1.075050 0.688300 0.352238
v -1.124071 0.643877 0.360367
v -1.175787 0.602058 0.355978
v -1.228209 0.564450 0.339241
v -1.279323 0.532499 0.310798
v -1.027316 0.942151 -0.151435
v -0.999853 0.959594 -0.093262
v -0.979858 0.967509 -0.030174
v -0.968099 0.965591 0.035405
v -0.965029 0.953914 0.100955
v -0.970764 0.932926 0.163956
v -0.985086 0.903435 0.221988
v -1.007442 0.866572 0.272821
v -1.036975 0.823756 0.314500
v -1.072549 0.776632 0.345425
v -1.112797 0.727010 0.364406
v -1.156172 0.676797 0.370715
v -1.201008 0.627923 0.364108
v -1.245582 0.582266 0.344841
v -1.288180 0.541582 0.313653
v -1.037572 0.950072 -0.150366
v -1.019972 0.975132 -0.091164
v -1.009066 0.990067 -0.027129
v -1.005275 0.994301 0.039281
v -1.008742 0.987673 0.105513
v -1.019336 0.970438 0.169021
v -1.036649 0.943256 0.227364
v -1.060016 0.907174 0.278302
v -1.088538 0.863578 0.319876
v -1.121120 0.814143 0.350489
v -1.156510 0.760769 0.368964
v -1.193347 0.705507 0.374591
v -1.230217 0.650480 0.367154
v -1.265701 0.597804 0.346939
v -1.298437 0.549503 0.314722
v -1.048835 0.956527 -0.151123
v -1.042064 0.987794 -0.092650
v -1.041139 1.008449 -0.029286
v -1.046095 1.017698 0.036536
v -1.056743 1.015185 0.102285
v -1.072671 1.001007 0.165434
v -1.093269 0.975708 0.223557
v -1.117745 0.940262 0.274420
v -1.145158 0.896030 0.316068
v -1.174455 0.844712 0.346902
v -1.204510 0.788280 0.365736
v -1.234168 0.728903 0.371846
v -1.262289 0.668863 0.364997
v -1.287793 0.610466 0.345453
v -1.309699 0.555958 0.313965
v -1.060670 0.961268 -0.153678
v -1.065280 0.997094 -0.097662
v -1.074844 1.021950 -0.036562
v -1.088993 1.034882 0.027275
v -1.107185 1.035391 0.091395
v -1.128720 1.023459 0.153334
v -1.152770 0.999543 0.210712
v -1.178412 0.964564 0.261323
v -1.204659 0.919865 0.303223
v -1.230504 0.867164 0.334802
v -1.254953 0.808487 0.354846
v -1.277066 0.746087 0.362585
v -1.295994 0.682364 0.357721
v -1.311009 0.619766 0.340441
v -1.321534 0.560699 0.311410
v -1.072624 0.964113 -0.157933
v -1.088728 1.002675 -0.106008
v -1.108885 1.030052 -0.048678
v -1.132320 1.045193 0.011855
v -1.158131 1.047516 0.073262
v -1.185328 1.036931 0.133186
v -1.212865 1.013845 0.189323
v -1.239685 0.979146 0.239515
v -1.264755 0.934167 0.281834
v -1.287113 0.880637 0.314654
v -1.305899 0.820611 0.336713
v -1.320392 0.756399 0.347164
v -1.330035 0.690466 0.345605
v -1.334457 0.625347 0.332095
v -1.333488 0.563544 0.307155
v -1.084236 0.964952 -0.163723
v -1.111507 1.004321 -0.117366
v -1.141955 1.032442 -0.065168
v -1.174409 1.048235 -0.009133
v -1.207624 1.051093 0.048583
v -1.240321 1.040906 0.105764
v -1.271246 1.018065 0.160212
v -1.299208 0.983449 0.209834
v -1.323135 0.938387 0.252724
v -1.342105 0.884611 0.287232
v -1.355391 0.824189 0.312034
v -1.362482 0.759441 0.326176
v -1.363105 0.692856 0.329115
v -1.357236 0.626993 0.320737
v -1.345101 0.564383 0.301365
v -1.095061 0.963754 -0.170827
v -1.132741 1.001970 -0.131301
v -1.172782 1.029029 -0.085398
v -1.213645 1.043891 -0.034882
v -1.253760 1.045985 0.018307
v -1.291585 1.035230 0.072122
v -1.325667 1.012040 0.124498
v -1.354696 0.977305 0.173420
v -1.377556 0.932362 0.217010
v -1.393369 0.878936 0.253591
v -1.401528 0.819081 0.281758
v -1.401718 0.755097 0.300428
v -1.393932 0.689443 0.308885
v -1.378470 0.624642 0.306802
v -1.355926 0.563184 0.294261
v -1.104683 0.960564 -0.178971
v -1.151615 0.995712 -0.147277
v -1.200182 1.019944 -0.108591
v -1.248519 1.032328 -0.064401
v -1.294767 1.032388 -0.016405
v -1.337150 1.020122 0.033553
v -1.374038 0.996001 0.083553
v -1.404015 0.960953 0.131673
v -1.425927 0.916323 0.176065
v -1.438934 0.863828 0.215022
v -1.442535 0.805484 0.247046
v -1.436591 0.743534 0.270909
v -1.421332 0.680358 0.285691
v -1.397344 0.618384 0.290826
v -1.365547 0.559994 0.286116
v -1.112731 0.955504 -0.187843
v -1.167402 0.985788 -0.164680
v -1.223102 1.005536 -0.133856
v -1.277690 1.013990 -0.096557
v -1.329069 1.010825 -0.054216
v -1.375264 0.996163 -0.008461
v -1.414500 0.970566 0.038951
v -1.445270 0.935019 0.086198
v -1.466390 0.890888 0.131463
v -1.477049 0.839868 0.173008
v -1.476837 0.783921 0.209235
v -1.465763 0.725196 0.238753
v -1.444252 0.665950 0.260426
v -1.413131 0.608460 0.273424
v -1.373596 0.554935 0.277244
v -1.118897 0.948770 -0.197102
v -1.179497 0.972578 -0.182841
v -1.240661 0.986359 -0.160222
v -1.300039 0.989582 -0.130114
v -1.355348 0.982125 -0.093675
v -1.404464 0.964272 -0.052305
v -1.445499 0.936711 -0.007594
v -1.476875 0.900501 0.038741
v -1.497388 0.857033 0.084918
v -1.506248 0.807978 0.129163
v -1.503116 0.755220 0.169776
v -1.488112 0.700788 0.205196
v -1.461811 0.646773 0.234061
v -1.425226 0.595250 0.255263
v -1.379762 0.548201 0.267986
v -1.122944 0.940620 -0.206391
v -1.187435 0.956592 -0.201062
v -1.252185 0.963150 -0.186675
v -1.314706 0.960043 -0.163783
v -1.372595 0.947389 -0.133265
v -1.423627 0.925677 -0.096295
v -1.465842 0.895738 -0.054293
v -1.497617 0.858725 -0.008873
v -1.517731 0.816060 0.038219
v -1.525411 0.769382 0.085173
v -1.520362 0.720485 0.130186
v -1.502778 0.671248 0.171527
v -1.473335 0.623563 0.207608
v -1.433164 0.579264 0.237041
v -1.383808 0.540051 0.258697
v -1.124716 0.931367 -0.215354
v -1.190910 0.938442 -0.218643
v -1.257230 0.936800 -0.212199
v -1.321127 0.926506 -0.196268
v -1.380145 0.907954 -0.171464
v -1.432017 0.881859 -0.138740
v -1.474748 0.849222 -0.099352
v -1.506698 0.811297 -0.054815
v -1.526638 0.769544 -0.006841
v -1.533801 0.725564 0.042728
v -1.527913 0.681050 0.091987
v -1.509200 0.637711 0.139041
v -1.478380 0.597214 0.182084
v -1.436639 0.561114 0.219460
v -1.385580 0.530798 0.249734
v -1.124144 0.921367 -0.223646
v -1.189789 0.918826 -0.234909
v -1.255602 0.908323 -0.235813
v -1.319056 0.890261 -0.226324
v -1.377710 0.865335 -0.206805
v -1.429311 0.834503 -0.178009
v -1.471876 0.798949 -0.141040
v -1.503769 0.760040 -0.097320
v -1.523765 0.719271 -0.048528
v -1.531095 0.678208 0.003460
v -1.525477 0.638431 0.056646
v -1.507128 0.601467 0.108986
v -1.476753 0.568736 0.158470
v -1.435518 0.541498 0.203194
v -1.385008 0.520798 0.241442
v -1.121252 0.911005 -0.230949
v -1.184115 0.898499 -0.249234
v -1.247365 0.878812 -0.256609
v -1.308572 0.852701 -0.252793
v -1.365382 0.821169 -0.237930
v -1.415613 0.785428 -0.212592
v -1.457334 0.746852 -0.177754
v -1.488942 0.706922 -0.134753
v -1.509223 0.667173 -0.085242
v -1.517397 0.629134 -0.031124
v -1.513149 0.594265 0.025521
v -1.496644 0.563907 0.082517
v -1.468515 0.539226 0.137673
v -1.429844 0.521171 0.188869
v -1.382116 0.510435 0.234139
v -1.327166 0.507432 0.271742
v -1.116149 0.900677 -0.236981
v -1.174106 0.878241 -0.261067
v -1.232835 0.849402 -0.273789
v -1.290078 0.815269 -0.274659
v -1.343635 0.777154 -0.263642
v -1.391449 0.736521 -0.241162
v -1.431682 0.694932 -0.208083
v -1.462788 0.653985 -0.165676
v -1.483571 0.615254 -0.115571
v -1.493234 0.580227 -0.059693
v -1.491403 0.550250 -0.000191
v -1.478150 0.526475 0.060651
v -1.453985 0.509816 0.120493
v -1.419835 0.500913 0.177036
v -1.377013 0.500108 0.228106
v -1.109033 0.890782 -0.241512
v -1.160147 0.858831 -0.269955
v -1.212569 0.821223 -0.286693
v -1.264285 0.779404 -0.291081
v -1.313306 0.734981 -0.282953
v -1.357749 0.689662 -0.262619
v -1.395906 0.645186 -0.230861
v -1.426311 0.603265 -0.188901
v -1.447796 0.565508 -0.138350
v -1.459533 0.533367 -0.081151
v -1.461074 0.508077 -0.019501
v -1.452358 0.490610 0.044228
v -1.433720 0.481637 0.107590
v -1.405876 0.481503 0.168148
v -1.369897 0.490213 0.223575
v -1.100176 0.881700 -0.244367
v -1.142774 0.841015 -0.275556
v -1.187348 0.795358 -0.294823
v -1.232184 0.746484 -0.301429
v -1.275559 0.696272 -0.295121
v -1.315807 0.646649 -0.276139
v -1.351381 0.599525 -0.245215
v -1.380914 0.556709 -0.203535
v -1.403270 0.519847 -0.152703
v -1.417592 0.490355 -0.094671
v -1.423327 0.469367 -0.031670
v -1.420257 0.457690 0.033880
v -1.408498 0.455772 0.099459
v -1.388503 0.463687 0.162547
v -1.361041 0.481130 0.220720
v -1.089920 0.873778 -0.245437
v -1.122655 0.825477 -0.277653
v -1.158140 0.772801 -0.297868
v -1.195009 0.717774 -0.305305
v -1.231846 0.662512 -0.299678
v -1.267236 0.609138 -0.281203
v -1.299818 0.559703 -0.250591
v -1.328340 0.516107 -0.209017
v -1.351707 0.480025 -0.158079
v -1.369020 0.452844 -0.099735
v -1.379614 0.435608 -0.036227
v -1.383082 0.428980 0.030004
v -1.379290 0.433215 0.096414
v -1.368384 0.448149 0.160450
v -1.350784 0.473209 0.219651
v -1.078657 0.867323 -0.244679
v -1.100563 0.812815 -0.276168
v -1.126067 0.754418 -0.295712
v -1.154188 0.694378 -0.302560
v -1.183846 0.635001 -0.296450
v -1.213901 0.578569 -0.277617
v -1.243198 0.527251 -0.246783
v -1.270611 0.483019 -0.205134
v -1.295087 0.447573 -0.154271
v -1.315685 0.422274 -0.096148
v -1.331614 0.408096 -0.032999
v -1.342261 0.405583 0.032749
v -1.347217 0.414832 0.098571
v -1.346292 0.435487 0.161935
v -1.339522 0.466754 0.220408
v -1.066822 0.862582 -0.242124
v -1.077347 0.803515 -0.271156
v -1.092362 0.740917 -0.288435
v -1.111290 0.677194 -0.293299
v -1.133403 0.614794 -0.285561
v -1.157852 0.556117 -0.265517
v -1.183697 0.503416 -0.233938
v -1.209944 0.458717 -0.192038
v -1.235586 0.423738 -0.141426
v -1.259636 0.399822 -0.084049
v -1.281171 0.387890 -0.022110
v -1.299363 0.388399 0.042010
v -1.313512 0.401331 0.105847
v -1.323076 0.426187 0.166947
v -1.327686 0.462013 0.222963
v -1.054868 0.859737 -0.237870
v -1.053899 0.797935 -0.262810
v -1.058321 0.732815 -0.276320
v -1.067964 0.666883 -0.277879
v -1.082457 0.602670 -0.267428
v -1.101244 0.542645 -0.245369
v -1.123601 0.489114 -0.212549
v -1.148672 0.444135 -0.170230
v -1.175491 0.409436 -0.120037
v -1.203028 0.386350 -0.063901
v -1.230225 0.375765 -0.003977
v -1.256037 0.378088 0.057431
v -1.279471 0.393229 0.117963
v -1.299628 0.420606 0.175293
v -1.315732 0.459168 0.227218
v -1.043256 0.858898 -0.232079
v -1.031120 0.796288 -0.251452
v -1.025251 0.730425 -0.259830
v -1.025874 0.663840 -0.256891
v -1.032965 0.599093 -0.242749
v -1.046251 0.538670 -0.217947
v -1.065221 0.484894 -0.183438
v -1.089148 0.439833 -0.140549
v -1.117111 0.405216 -0.090927
v -1.148035 0.382376 -0.036479
v -1.180733 0.372188 0.020702
v -1.213947 0.375046 0.078418
v -1.246402 0.390839 0.134453
v -1.276849 0.418960 0.186651
v -1.304120 0.458329 0.233008
v -1.032431 0.860097 -0.224975
v -1.009886 0.798639 -0.237517
v -0.994424 0.733838 -0.239599
v -0.986639 0.668184 -0.231143
v -0.986829 0.604201 -0.212472
v -0.994987 0.544346 -0.184305
v -1.010800 0.490920 -0.147724
v -1.033660 0.445976 -0.104135
v -1.062689 0.411241 -0.055213
v -1.096771 0.388051 -0.002837
v -1.134596 0.377296 0.050979
v -1.174711 0.379390 0.104167
v -1.215574 0.394252 0.154683
v -1.255615 0.421311 0.200586
v -1.293295 0.459527 0.240112
v -1.022809 0.863287 -0.216831
v -0.991013 0.804897 -0.221541
v -0.967024 0.742923 -0.216406
v -0.951765 0.679747 -0.201623
v -0.945822 0.617797 -0.177761
v -0.949422 0.559453 -0.145736
v -0.962429 0.506958 -0.106780
v -0.984342 0.462329 -0.062388
v -1.014318 0.427280 -0.014268
v -1.051207 0.403159 0.035732
v -1.093589 0.390893 0.085690
v -1.139838 0.390953 0.133686
v -1.188174 0.403337 0.177876
v -1.236742 0.427569 0.216562
v -1.283673 0.462718 0.248257
v -1.014760 0.868346 -0.207959
v -0.975225 0.814821 -0.204138
v -0.944104 0.757331 -0.191141
v -0.922593 0.698085 -0.169467
v -0.911519 0.639360 -0.139950
v -0.911308 0.583413 -0.103722
v -0.921967 0.532393 -0.062178
v -0.943087 0.488262 -0.016913
v -0.973856 0.452715 0.030334
v -1.013092 0.427118 0.077746
v -1.059287 0.412456 0.123501
v -1.110666 0.409291 0.165842
v -1.165254 0.417745 0.203141
v -1.220954 0.437493 0.233965
v -1.275625 0.467777 0.257129
v -1.008595 0.875080 -0.198701
v -0.963130 0.828031 -0.185977
v -0.900245 0.722493 -0.135910
v -0.882108 0.615303 -0.059878
v -0.983892 0.459009 0.121590
v -1.088317 0.433699 0.199399
v -1.147695 0.436922 0.229507
v -1.208859 0.450703 0.252126
v -1.269459 0.474511 0.266387
vn -0.1216 -0.7193 0.6840
vn 0.9001 -0.4355 -0.0101
vn 0.4745 0.5488 -0.6882
vn -0.3039 -0.6466 0.6997
vn 0.8238 -0.5526 0.1260
vn 0.6267 0.4298 -0.6501
vn 0.7161 -0.6488 0.2573
vn 0.7544 0.2942 -0.5868
vn 0.5810 -0.7203 0.3789
vn 0.8528 0.1475 -0.5009
vn 0.4234 -0.7644 0.4862
vn 0.9182 -0.0046 -0.3960
vn 0.2493 -0.7792 0.5751
vn 0.9484 -0.1562 -0.2761
vn 0.0652 -0.7640 0.6419
vn 0.9422 -0.3017 -0.1458
vn 0.9873 -0.0398 -0.1540
vn 0.0861 -0.7016 0.7073
vn 0.9844 -0.1755 -0.0134
vn -0.1088 -0.6808 0.7243
vn 0.9440 -0.3043 0.1275
vn 0.4789 0.5618 -0.6746
vn -0.2996 -0.6336 0.7133
vn 0.8677 -0.4215 0.2636
vn 0.6395 0.4682 -0.6098
vn 0.7583 -0.5226 0.3896
vn 0.7753 0.3566 -0.5214
vn 0.6199 -0.6040 0.5010
vn 0.8808 0.2314 -0.4130
vn 0.4575 -0.6623 0.5933
vn 0.9524 0.0975 -0.2889
vn 0.2773 -0.6953 0.6630
vn 0.7670 -0.3830 0.5148
vn 0.7796 0.4256 -0.4595
vn 0.6279 -0.4752 0.6164
vn 0.8866 0.3242 -0.3298
vn 0.4646 -0.5494 0.6945
vn 0.9594 0.2105 -0.1877
vn 0.2831 -0.6026 0.7462
vn 0.9953 0.0889 -0.0386
vn 0.0904 -0.6326 0.7692
vn 0.9931 -0.0359 0.1117
vn -0.1061 -0.6383 0.7624
vn 0.9531 -0.1591 0.2576
vn 0.4798 0.5761 -0.6617
vn -0.2987 -0.6192 0.7262
vn 0.8767 -0.2763 0.3937
vn 0.6422 0.5107 -0.5716
vn 0.0780 -0.5597 0.8250
vn 0.9680 0.1118 0.2248
vn -0.1138 -0.5933 0.7969
vn 0.9269 -0.0056 0.3752
vn 0.4772 0.5913 -0.6501
vn -0.3013 -0.6040 0.7378
vn 0.8506 -0.1228 0.5112
vn 0.6345 0.5557 -0.5372
vn 0.7419 -0.2354 0.6278
vn 0.7671 0.4986 -0.4036
vn 0.6048 -0.3390 0.7206
vn 0.8699 0.4223 -0.2547
vn 0.4443 -0.4299 0.7860
vn 0.9391 0.3299 -0.0962
vn 0.2664 -0.5044 0.8213
vn 0.9721 0.2251 0.0657
vn 0.5513 -0.2007 0.8098
vn 0.8314 0.5220 -0.1904
vn 0.3974 -0.3085 0.8642
vn 0.8922 0.4513 -0.0180
vn 0.2279 -0.4047 0.8856
vn 0.9187 0.3634 0.1548
vn 0.0493 -0.4855 0.8728
vn 0.9100 0.2618 0.3215
vn -0.1314 -0.5476 0.8263
vn 0.8667 0.1503 0.4757
vn 0.4712 0.6068 -0.6401
vn -0.3072 -0.5886 0.7478
vn 0.7904 0.0331 0.6117
vn 0.6169 0.6014 -0.5078
vn 0.6839 -0.0853 0.7245
vn 0.7385 0.5727 -0.3558
vn -0.1584 -0.5030 0.8497
vn 0.7746 0.3028 0.5553
vn 0.4621 0.6218 -0.6323
vn -0.3164 -0.5735 0.7556
vn 0.6983 0.1856 0.6914
vn 0.5899 0.6460 -0.4844
vn 0.5953 0.0613 0.8011
vn 0.6947 0.6452 -0.3180
vn 0.4696 -0.0655 0.8805
vn 0.7725 0.6195 -0.1395
vn 0.3257 -0.1899 0.9262
vn 0.8205 0.5699 0.0440
vn 0.1690 -0.3073 0.9365
vn 0.8370 0.4987 0.2255
vn 0.0055 -0.4130 0.9107
vn 0.8214 0.4084 0.3981
vn 0.6956 0.7109 -0.1039
vn 0.2320 -0.0786 0.9695
vn 0.7268 0.6813 0.0873
vn 0.0920 -0.2158 0.9721
vn 0.7301 0.6256 0.2749
vn -0.0517 -0.3450 0.9372
vn 0.7056 0.5461 0.4516
vn -0.1937 -0.4611 0.8660
vn 0.6542 0.4458 0.6110
vn 0.4502 0.6360 -0.6268
vn -0.3283 -0.5594 0.7611
vn 0.5779 0.3286 0.7471
vn 0.5546 0.6880 -0.4681
vn 0.4795 0.1989 0.8547
vn 0.6374 0.7132 -0.2915
vn 0.3628 0.0614 0.9299
vn 0.5101 0.5740 0.6406
vn 0.4359 0.6487 -0.6238
vn -0.3425 -0.5467 0.7641
vn 0.4338 0.4568 0.7766
vn 0.5124 0.7255 -0.4594
vn 0.3409 0.3222 0.8832
vn 0.5689 0.7742 -0.2774
vn 0.2350 0.1752 0.9561
vn 0.6035 0.7929 -0.0850
vn 0.1198 0.0212 0.9926
vn 0.6147 0.7810 0.1103
vn -0.0001 -0.1339 0.9910
vn 0.6023 0.7393 0.3011
vn -0.1202 -0.2841 0.9512
vn 0.5670 0.6694 0.4801
vn -0.2359 -0.4235 0.8746
vn -0.0064 0.1055 0.9944
vn 0.4884 0.8654 0.1122
vn -0.1038 -0.0646 0.9925
vn 0.4584 0.8354 0.3032
vn -0.1973 -0.2326 0.9524
vn 0.4110 0.7736 0.4823
vn -0.2834 -0.3918 0.8753
vn 0.3479 0.6824 0.6429
vn 0.4199 0.6594 -0.6236
vn -0.3586 -0.5360 0.7643
vn 0.2716 0.5652 0.7790
vn 0.4649 0.7573 -0.4588
vn 0.1849 0.4264 0.8854
vn 0.4918 0.8257 -0.2763
vn 0.0911 0.2713 0.9582
vn 0.4998 0.8621 -0.0835
vn 0.4027 0.6678 -0.6261
vn -0.3758 -0.5276 0.7618
vn 0.0974 0.6496 0.7540
vn 0.4139 0.7820 -0.4661
vn 0.0174 0.5076 0.8614
vn 0.4090 0.8658 -0.2882
vn -0.0634 0.3462 0.9360
vn 0.3884 0.9161 -0.0995
vn -0.1419 0.1712 0.9750
vn 0.3529 0.9310 0.0927
vn -0.2151 -0.0107 0.9765
vn 0.3040 0.9103 0.2810
vn -0.2801 -0.1924 0.9405
vn 0.2435 0.8548 0.4583
vn -0.3344 -0.3670 0.8680
vn 0.1737 0.7668 0.6180
vn 0.2134 0.9755 0.0528
vn -0.3297 0.0259 0.9437
vn 0.1449 0.9610 0.2355
vn -0.3654 -0.1652 0.9161
vn 0.0710 0.9098 0.4090
vn -0.3870 -0.3503 0.8530
vn -0.0056 0.8240 0.5666
vn 0.3849 0.6734 -0.6311
vn -0.3936 -0.5219 0.7568
vn -0.0819 0.7068 0.7027
vn 0.3613 0.7987 -0.4811
vn -0.1551 0.5626 0.8120
vn 0.3238 0.8930 -0.3126
vn -0.2225 0.3969 0.8905
vn 0.2738 0.9526 -0.1323
vn -0.2815 0.2157 0.9350
vn -0.2595 0.7345 0.6270
vn 0.3093 0.8069 -0.5033
vn -0.3260 0.5894 0.7392
vn 0.2393 0.9062 -0.3486
vn -0.3801 0.4215 0.8233
vn 0.1602 0.9704 -0.1807
vn -0.4197 0.2373 0.8761
vn 0.0751 0.9972 -0.0061
vn -0.4433 0.0437 0.8953
vn -0.0127 0.9856 0.1683
vn -0.4498 -0.1520 0.8801
vn -0.0999 0.9365 0.3361
vn -0.4390 -0.3421 0.8308
vn -0.1832 0.8517 0.4909
vn 0.3673 0.6762 -0.6386
vn -0.4111 -0.5192 0.7493
vn -0.5514 0.0419 0.8332
vn -0.1627 0.9832 0.0821
vn -0.5302 -0.1533 0.8339
vn -0.2626 0.9339 0.2426
vn -0.4885 -0.3429 0.8023
vn -0.3524 0.8490 0.3937
vn 0.3506 0.6759 -0.6483
vn -0.4279 -0.5195 0.7396
vn -0.4287 0.7318 0.5298
vn 0.2597 0.8061 -0.5318
vn -0.4887 0.5867 0.6457
vn 0.1589 0.9049 -0.3948
vn -0.5301 0.4191 0.7371
vn 0.0521 0.9687 -0.2428
vn -0.5513 0.2352 0.8004
vn -0.0565 0.9950 -0.0818
vn -0.6370 0.5549 0.5351
vn 0.0856 0.8892 -0.4495
vn -0.6669 0.3898 0.6351
vn -0.0464 0.9475 -0.3163
vn -0.6713 0.2095 0.7110
vn -0.1764 0.9693 -0.1712
vn -0.6499 0.0208 0.7597
vn -0.2995 0.9539 -0.0199
vn -0.6035 -0.1690 0.7792
vn -0.4109 0.9021 0.1320
vn -0.5337 -0.3526 0.7686
vn -0.5065 0.8159 0.2788
vn 0.3353 0.6726 -0.6596
vn -0.4431 -0.5227 0.7283
vn -0.5828 0.6988 0.4148
vn 0.2146 0.7964 -0.5654
vn -0.6669 -0.1986 0.7182
vn -0.5390 0.8423 0.0087
vn -0.5727 -0.3709 0.7311
vn -0.6397 0.7537 0.1505
vn 0.3222 0.6665 -0.6723
vn -0.4563 -0.5289 0.7156
vn -0.7160 0.6366 0.2865
vn 0.1755 0.7782 -0.6030
vn -0.7651 0.4951 0.4117
vn 0.0223 0.8596 -0.5104
vn -0.7850 0.3346 0.5213
vn -0.1316 0.9078 -0.3983
vn -0.7749 0.1611 0.6112
vn -0.2801 0.9209 -0.2711
vn -0.7351 -0.0190 0.6777
vn -0.4176 0.8987 -0.1336
vn -0.0286 0.8174 -0.5754
vn -0.8801 0.2557 0.4001
vn -0.2001 0.8509 -0.4857
vn -0.8583 0.0919 0.5048
vn -0.3635 0.8517 -0.3774
vn -0.8036 -0.0758 0.5903
vn -0.5127 0.8199 -0.2549
vn -0.7178 -0.2409 0.6533
vn -0.6421 0.7567 -0.1228
vn -0.6041 -0.3969 0.6910
vn -0.7469 0.6648 0.0138
vn 0.3116 0.6577 -0.6858
vn -0.4669 -0.5377 0.7021
vn -0.8232 0.5477 0.1499
vn 0.1442 0.7521 -0.6431
vn -0.8682 0.4096 0.2803
vn -0.7161 0.6488 -0.2573
vn -0.6267 -0.4298 0.6501
vn -0.8238 0.5526 -0.1260
vn 0.3039 0.6466 -0.6997
vn -0.4745 -0.5488 0.6882
vn -0.9001 0.4355 0.0101
vn 0.1216 0.7192 -0.6840
vn -0.9422 0.3017 0.1458
vn -0.0652 0.7640 -0.6419
vn -0.9484 0.1562 0.2761
vn -0.2493 0.7792 -0.5751
vn -0.9182 0.0046 0.3960
vn -0.4234 0.7644 -0.4862
vn -0.8528 -0.1475 0.5009
vn -0.5810 0.7203 -0.3789
vn -0.7544 -0.2942 0.5868
vn -0.9873 0.0398 0.1540
vn -0.2773 0.6953 -0.6630
vn -0.9524 -0.0975 0.2889
vn -0.4575 0.6623 -0.5933
vn -0.8808 -0.2314 0.4130
vn -0.6199 0.6040 -0.5010
vn -0.7753 -0.3566 0.5214
vn -0.7583 0.5226 -0.3896
vn -0.6395 -0.4682 0.6098
vn -0.8677 0.4215 -0.2636
vn 0.2996 0.6336 -0.7133
vn -0.4789 -0.5618 0.6746
vn -0.9440 0.3043 -0.1275
vn 0.1088 0.6808 -0.7243
vn -0.9844 0.1755 0.0134
vn -0.0861 0.7016 -0.7073
vn -0.6422 -0.5107 0.5716
vn -0.8767 0.2763 -0.3937
vn 0.2987 0.6192 -0.7262
vn -0.4798 -0.5761 0.6617
vn -0.9531 0.1591 -0.2576
vn 0.1061 0.6383 -0.7624
vn -0.9931 0.0359 -0.1117
vn -0.0904 0.6326 -0.7692
vn -0.9953 -0.0889 0.0386
vn -0.2831 0.6026 -0.7462
vn -0.9594 -0.2105 0.1877
vn -0.4646 0.5494 -0.6945
vn -0.8866 -0.3242 0.3298
vn -0.6279 0.4752 -0.6164
vn -0.7796 -0.4256 0.4595
vn -0.7670 0.3830 -0.5148
vn -0.2664 0.5044 -0.8213
vn -0.9391 -0.3299 0.0962
vn -0.4443 0.4299 -0.7860
vn -0.8699 -0.4223 0.2547
vn -0.6048 0.3390 -0.7206
vn -0.7671 -0.4986 0.4036
vn -0.7419 0.2354 -0.6278
vn -0.6345 -0.5557 0.5372
vn -0.8506 0.1228 -0.5112
vn 0.3013 0.6040 -0.7378
vn -0.4772 -0.5913 0.6501
vn -0.9269 0.0057 -0.3752
vn 0.1138 0.5933 -0.7969
vn -0.9680 -0.1118 -0.2248
vn -0.0780 0.5597 -0.8250
vn -0.9721 -0.2251 -0.0657
vn -0.7904 -0.0331 -0.6117
vn 0.3072 0.5886 -0.7478
vn -0.4712 -0.6068 0.6401
vn -0.8667 -0.1503 -0.4757
vn 0.1314 0.5476 -0.8263
vn -0.9100 -0.2618 -0.3215
vn -0.0493 0.4855 -0.8728
vn -0.9187 -0.3634 -0.1548
vn -0.2279 0.4047 -0.8856
vn -0.8922 -0.4513 0.0180
vn -0.3974 0.3085 -0.8642
vn -0.8314 -0.5220 0.1904
vn -0.5513 0.2007 -0.8098
vn -0.7385 -0.5727 0.3558
vn -0.6839 0.0853 -0.7245
vn -0.6169 -0.6014 0.5078
vn -0.8205 -0.5699 -0.0440
vn -0.3257 0.1899 -0.9262
vn -0.7725 -0.6195 0.1395
vn -0.4696 0.0655 -0.8805
vn -0.6947 -0.6452 0.3180
vn -0.5953 -0.0613 -0.8011
vn -0.5899 -0.6460 0.4844
vn -0.6983 -0.1856 -0.6914
vn 0.3164 0.5735 -0.7556
vn -0.4621 -0.6218 0.6323
vn -0.7746 -0.3028 -0.5553
vn 0.1584 0.5030 -0.8497
vn -0.8214 -0.4084 -0.3981
vn -0.0055 0.4130 -0.9107
vn -0.8370 -0.4987 -0.2255
vn -0.1690 0.3073 -0.9365
vn -0.4502 -0.6360 0.6268
vn -0.6542 -0.4458 -0.6110
vn 0.1937 0.4611 -0.8660
vn -0.7056 -0.5461 -0.4516
vn 0.0517 0.3450 -0.9372
vn -0.7301 -0.6256 -0.2749
vn -0.0920 0.2158 -0.9721
vn -0.7268 -0.6813 -0.0873
vn -0.2320 0.0786 -0.9695
vn -0.6956 -0.7109 0.1039
vn -0.3628 -0.0614 -0.9299
vn -0.6374 -0.7132 0.2915
vn -0.4795 -0.1989 -0.8547
vn -0.5546 -0.6880 0.4681
vn -0.5779 -0.3286 -0.7470
vn 0.3283 0.5594 -0.7611
vn -0.6035 -0.7929 0.0850
vn -0.2350 -0.1752 -0.9561
vn -0.5689 -0.7742 0.2774
vn -0.3409 -0.3222 -0.8832
vn -0.5124 -0.7255 0.4594
vn -0.4338 -0.4568 -0.7766
vn 0.3425 0.5467 -0.7641
vn -0.4359 -0.6487 0.6238
vn -0.5101 -0.5740 -0.6406
vn 0.2359 0.4235 -0.8746
vn -0.5670 -0.6694 -0.4801
vn 0.1202 0.2841 -0.9512
vn -0.6023 -0.7393 -0.3011
vn 0.0001 0.1339 -0.9910
vn -0.6147 -0.7810 -0.1103
vn -0.1198 -0.0212 -0.9926
vn 0.2834 0.3918 -0.8753
vn -0.4110 -0.7736 -0.4823
vn 0.1973 0.2325 -0.9524
vn -0.4584 -0.8354 -0.3032
vn 0.1038 0.0646 -0.9925
vn -0.4884 -0.8654 -0.1122
vn 0.0064 -0.1055 -0.9944
vn -0.4998 -0.8621 0.0835
vn -0.0911 -0.2713 -0.9582
vn -0.4918 -0.8257 0.2763
vn -0.1849 -0.4264 -0.8854
vn -0.4649 -0.7573 0.4588
vn -0.2716 -0.5652 -0.7790
vn 0.3586 0.5360 -0.7643
vn -0.4199 -0.6594 0.6236
vn -0.3479 -0.6824 -0.6429
vn 0.0634 -0.3462 -0.9360
vn -0.4090 -0.8658 0.2882
vn -0.0174 -0.5076 -0.8614
vn -0.4139 -0.7820 0.4661
vn -0.0974 -0.6496 -0.7540
vn 0.3758 0.5276 -0.7618
vn -0.4027 -0.6678 0.6261
vn -0.1737 -0.7668 -0.6180
vn 0.3344 0.3670 -0.8680
vn -0.2435 -0.8548 -0.4583
vn 0.2801 0.1924 -0.9405
vn -0.3040 -0.9103 -0.2810
vn 0.2151 0.0107 -0.9765
vn -0.3529 -0.9310 -0.0927
vn 0.1419 -0.1712 -0.9750
vn -0.3884 -0.9161 0.0995
vn -0.0710 -0.9098 -0.4090
vn 0.3654 0.1652 -0.9161
vn -0.1449 -0.9610 -0.2355
vn 0.3297 -0.0259 -0.9437
vn -0.2134 -0.9755 -0.0528
vn 0.2815 -0.2157 -0.9350
vn -0.2738 -0.9526 0.1323
vn 0.2225 -0.3969 -0.8905
vn -0.3238 -0.8930 0.3126
vn 0.1551 -0.5626 -0.8120
vn -0.3613 -0.7987 0.4811
vn 0.0819 -0.7068 -0.7027
vn 0.3936 0.5219 -0.7568
vn -0.3849 -0.6734 0.6311
vn 0.0056 -0.8240 -0.5666
vn 0.3870 0.3503 -0.8530
vn -0.2393 -0.9062 0.3486
vn 0.3260 -0.5894 -0.7392
vn -0.3093 -0.8069 0.5033
vn 0.2595 -0.7345 -0.6270
vn 0.4111 0.5192 -0.7493
vn -0.3673 -0.6762 0.6386
vn 0.1832 -0.8517 -0.4909
vn 0.4390 0.3421 -0.8308
vn 0.0999 -0.9365 -0.3361
vn 0.4498 0.1520 -0.8801
vn 0.0127 -0.9856 -0.1683
vn 0.4433 -0.0437 -0.8953
vn -0.0751 -0.9972 0.0061
vn 0.4197 -0.2373 -0.8761
vn -0.1602 -0.9704 0.1807
vn 0.3801 -0.4215 -0.8233
vn 0.5302 0.1533 -0.8339
vn 0.1627 -0.9832 -0.0821
vn 0.5514 -0.0419 -0.8332
vn 0.0565 -0.9950 0.0818
vn 0.5513 -0.2352 -0.8004
vn -0.0521 -0.9687 0.2428
vn 0.5301 -0.4191 -0.7371
vn -0.1589 -0.9049 0.3948
vn 0.4887 -0.5867 -0.6457
vn -0.2597 -0.8061 0.5318
vn 0.4287 -0.7318 -0.5298
vn 0.4279 0.5195 -0.7396
vn -0.3506 -0.6759 0.6483
vn 0.3524 -0.8490 -0.3937
vn 0.4885 0.3429 -0.8023
vn 0.2626 -0.9339 -0.2426
vn 0.6370 -0.5549 -0.5351
vn -0.2146 -0.7964 0.5654
vn 0.5828 -0.6988 -0.4148
vn 0.4431 0.5227 -0.7283
vn -0.3353 -0.6726 0.6596
vn 0.5065 -0.8159 -0.2788
vn 0.5337 0.3526 -0.7686
vn 0.4109 -0.9021 -0.1320
vn 0.6035 0.1690 -0.7792
vn 0.2995 -0.9539 0.0199
vn 0.6499 -0.0208 -0.7597
vn 0.1764 -0.9693 0.1712
vn 0.6713 -0.2095 -0.7110
vn 0.0464 -0.9475 0.3163
vn 0.6669 -0.3898 -0.6351
vn -0.0856 -0.8892 0.4495
vn 0.4176 -0.8987 0.1336
vn 0.7351 0.0190 -0.6777
vn 0.2801 -0.9209 0.2711
vn 0.7749 -0.1611 -0.6112
vn 0.1316 -0.9078 0.3983
vn 0.7850 -0.3346 -0.5213
vn -0.0223 -0.8596 0.5104
vn 0.7651 -0.4951 -0.4117
vn -0.1755 -0.7782 0.6030
vn 0.7160 -0.6366 -0.2865
vn 0.4563 0.5289 -0.7156
vn -0.3222 -0.6665 0.6723
vn 0.6397 -0.7537 -0.1505
vn 0.5727 0.3709 -0.7311
vn 0.5390 -0.8423 -0.0087
vn 0.6669 0.1986 -0.7182
vn -0.1442 -0.7521 0.6431
vn 0.8232 -0.5477 -0.1499
vn 0.4669 0.5377 -0.7021
vn -0.3116 -0.6577 0.6859
vn 0.7469 -0.6648 -0.0138
vn 0.6041 0.3969 -0.6910
vn 0.6421 -0.7567 0.1228
vn 0.7178 0.2409 -0.6533
vn 0.5127 -0.8199 0.2549
vn 0.8036 0.0758 -0.5903
vn 0.3635 -0.8517 0.3774
vn 0.8583 -0.0919 -0.5048
vn 0.2001 -0.8509 0.4857
vn 0.8801 -0.2557 -0.4001
vn 0.0286 -0.8174 0.5754
vn 0.8682 -0.4096 -0.2803
vt 0.750000 0.062500
vt 0.750000 0.125000
vt 0.718750 0.125000
vt 0.718750 0.062500
vt 0.750000 0.500000
vt 0.750000 0.562500
vt 0.718750 0.562500
vt 0.718750 0.500000
vt 0.750000 0.937500
vt 0.734375 1.000000
vt 0.718750 0.937500
vt 0.734375 0.000000
vt 0.750000 0.437500
vt 0.718750 0.437500
vt 0.750000 0.875000
vt 0.718750 0.875000
vt 0.750000 0.375000
vt 0.718750 0.375000
vt 0.750000 0.812500
vt 0.718750 0.812500
vt 0.750000 0.312500
vt 0.718750 0.312500
vt 0.750000 0.750000
vt 0.718750 0.750000
vt 0.750000 0.250000
vt 0.718750 0.250000
vt 0.750000 0.687500
vt 0.718750 0.687500
vt 0.750000 0.187500
vt 0.718750 0.187500
vt 0.750000 0.625000
vt 0.718750 0.625000
vt 0.687500 0.687500
vt 0.687500 0.625000
vt 0.687500 0.187500
vt 0.687500 0.125000
vt 0.687500 0.562500
vt 0.687500 0.062500
vt 0.687500 0.500000
vt 0.703125 1.000000
vt 0.687500 0.937500
vt 0.703125 0.000000
vt 0.687500 0.437500
vt 0.687500 0.875000
vt 0.687500 0.375000
vt 0.687500 0.812500
vt 0.687500 0.312500
vt 0.687500 0.750000
vt 0.687500 0.250000
vt 0.656250 0.437500
vt 0.656250 0.375000
vt 0.656250 0.875000
vt 0.656250 0.812500
vt 0.656250 0.312500
vt 0.656250 0.750000
vt 0.656250 0.250000
vt 0.656250 0.687500
vt 0.656250 0.187500
vt 0.656250 0.625000
vt 0.656250 0.125000
vt 0.656250 0.562500
vt 0.656250 0.062500
vt 0.656250 0.500000
vt 0.671875 1.000000
vt 0.656250 0.937500
vt 0.671875 0.000000
vt 0.625000 0.187500
vt 0.625000 0.125000
vt 0.625000 0.625000
vt 0.625000 0.562500
vt 0.625000 0.062500
vt 0.625000 0.500000
vt 0.640625 1.000000
vt 0.625000 0.937500
vt 0.640625 0.000000
vt 0.625000 0.437500
vt 0.625000 0.875000
vt 0.625000 0.375000
vt 0.625000 0.812500
vt 0.625000 0.312500
vt 0.625000 0.750000
vt 0.625000 0.250000
vt 0.625000 0.687500
vt 0.593750 0.375000
vt 0.593750 0.312500
vt 0.593750 0.812500
vt 0.593750 0.750000
vt 0.593750 0.250000
vt 0.593750 0.687500
vt 0.593750 0.187500
vt 0.593750 0.625000
vt 0.593750 0.125000
vt 0.593750 0.562500
vt 0.593750 0.062500
vt 0.593750 0.500000
vt 0.609375 1.000000
vt 0.593750 0.937500
vt 0.609375 0.000000
vt 0.593750 0.437500
vt 0.593750 0.875000
vt 0.562500 0.125000
vt 0.562500 0.062500
vt 0.562500 0.562500
vt 0.562500 0.500000
vt 0.578125 1.000000
vt 0.562500 0.937500
vt 0.578125 0.000000
vt 0.562500 0.437500
vt 0.562500 0.875000
vt 0.562500 0.375000
vt 0.562500 0.812500
vt 0.562500 0.312500
vt 0.562500 0.750000
vt 0.562500 0.250000
vt 0.562500 0.687500
vt 0.562500 0.187500
vt 0.562500 0.625000
vt 0.531250 0.812500
vt 0.531250 0.750000
vt 0.531250 0.312500
vt 0.531250 0.250000
vt 0.531250 0.687500
vt 0.531250 0.187500
vt 0.531250 0.625000
vt 0.531250 0.125000
vt 0.531250 0.562500
vt 0.531250 0.062500
vt 0.531250 0.500000
vt 0.546875 1.000000
vt 0.531250 0.937500
vt 0.546875 0.000000
vt 0.531250 0.437500
vt 0.531250 0.875000
vt 0.531250 0.375000
vt 0.500000 0.562500
vt 0.500000 0.500000
vt 0.515625 1.000000
vt 0.500000 0.937500
vt 0.515625 0.000000
vt 0.500000 0.062500
vt 0.500000 0.437500
vt 0.500000 0.875000
vt 0.500000 0.375000
vt 0.500000 0.812500
vt 0.500000 0.312500
vt 0.500000 0.750000
vt 0.500000 0.250000
vt 0.500000 0.687500
vt 0.500000 0.187500
vt 0.500000 0.625000
vt 0.500000 0.125000
vt 0.468750 0.312500
vt 0.468750 0.250000
vt 0.468750 0.750000
vt 0.468750 0.687500
vt 0.468750 0.187500
vt 0.468750 0.625000
vt 0.468750 0.125000
vt 0.468750 0.562500
vt 0.468750 0.062500
vt 0.468750 0.500000
vt 0.484375 1.000000
vt 0.468750 0.937500
vt 0.484375 0.000000
vt 0.468750 0.437500
vt 0.468750 0.875000
vt 0.468750 0.375000
vt 0.468750 0.812500
vt 0.453125 1.000000
vt 0.437500 0.937500
vt 0.453125 0.000000
vt 0.437500 0.062500
vt 0.437500 0.500000
vt 0.437500 0.437500
vt 0.437500 0.875000
vt 0.437500 0.375000
vt 0.437500 0.812500
vt 0.437500 0.312500
vt 0.437500 0.750000
vt 0.437500 0.250000
vt 0.437500 0.687500
vt 0.437500 0.187500
vt 0.437500 0.625000
vt 0.437500 0.125000
vt 0.437500 0.562500
vt 0.406250 0.750000
vt 0.406250 0.687500
vt 0.406250 0.250000
vt 0.406250 0.187500
vt 0.406250 0.625000
vt 0.406250 0.125000
vt 0.406250 0.562500
vt 0.406250 0.062500
vt 0.406250 0.500000
vt 0.421875 1.000000
vt 0.406250 0.937500
vt 0.421875 0.000000
vt 0.406250 0.437500
vt 0.406250 0.875000
vt 0.406250 0.375000
vt 0.406250 0.812500
vt 0.406250 0.312500
vt 0.375000 0.500000
vt 0.375000 0.437500
vt 0.375000 0.937500
vt 0.375000 0.875000
vt 0.375000 0.375000
vt 0.375000 0.812500
vt 0.375000 0.312500
vt 0.375000 0.750000
vt 0.375000 0.250000
vt 0.375000 0.687500
vt 0.375000 0.187500
vt 0.375000 0.625000
vt 0.375000 0.125000
vt 0.375000 0.562500
vt 0.375000 0.062500
vt 0.390625 1.000000
vt 0.390625 0.000000
vt 0.343750 0.250000
vt 0.343750 0.187500
vt 0.343750 0.687500
vt 0.343750 0.625000
vt 0.343750 0.125000
vt 0.343750 0.562500
vt 0.343750 0.062500
vt 0.343750 0.500000
vt 0.359375 1.000000
vt 0.343750 0.937500
vt 0.359375 0.000000
vt 0.343750 0.437500
vt 0.343750 0.875000
vt 0.343750 0.375000
vt 0.343750 0.812500
vt 0.343750 0.312500
vt 0.343750 0.750000
vt 0.312500 0.437500
vt 0.312500 0.375000
vt 0.312500 0.875000
vt 0.312500 0.812500
vt 0.312500 0.312500
vt 0.312500 0.750000
vt 0.312500 0.250000
vt 0.312500 0.687500
vt 0.312500 0.187500
vt 0.312500 0.625000
vt 0.312500 0.125000
vt 0.312500 0.562500
vt 0.312500 0.062500
vt 0.312500 0.500000
vt 0.328125 1.000000
vt 0.312500 0.937500
vt 0.328125 0.000000
vt 0.281250 0.187500
vt 0.281250 0.125000
vt 0.281250 0.625000
vt 0.281250 0.562500
vt 0.281250 0.062500
vt 0.281250 0.500000
vt 0.296875 1.000000
vt 0.281250 0.937500
vt 0.296875 0.000000
vt 0.281250 0.437500
vt 0.281250 0.875000
vt 0.281250 0.375000
vt 0.281250 0.812500
vt 0.281250 0.312500
vt 0.281250 0.750000
vt 0.281250 0.250000
vt 0.281250 0.687500
vt 0.250000 0.875000
vt 0.250000 0.812500
vt 0.250000 0.375000
vt 0.250000 0.312500
vt 0.250000 0.750000
vt 0.250000 0.250000
vt 0.250000 0.687500
vt 0.250000 0.187500
vt 0.250000 0.625000
vt 0.250000 0.125000
vt 0.250000 0.562500
vt 0.250000 0.062500
vt 0.250000 0.500000
vt 0.265625 1.000000
vt 0.250000 0.937500
vt 0.265625 0.000000
vt 0.250000 0.437500
vt 0.218750 0.625000
vt 0.218750 0.562500
vt 0.218750 0.125000
vt 0.218750 0.062500
vt 0.218750 0.500000
vt 0.234375 1.000000
vt 0.218750 0.937500
vt 0.234375 0.000000
vt 0.218750 0.437500
vt 0.218750 0.875000
vt 0.218750 0.375000
vt 0.218750 0.812500
vt 0.218750 0.312500
vt 0.218750 0.750000
vt 0.218750 0.250000
vt 0.218750 0.687500
vt 0.218750 0.187500
vt 0.187500 0.375000
vt 0.187500 0.312500
vt 0.187500 0.812500
vt 0.187500 0.750000
vt 0.187500 0.250000
vt 0.187500 0.687500
vt 0.187500 0.187500
vt 0.187500 0.625000
vt 0.187500 0.125000
vt 0.187500 0.562500
vt 0.187500 0.062500
vt 0.187500 0.500000
vt 0.203125 1.000000
vt 0.187500 0.937500
vt 0.203125 0.000000
vt 0.187500 0.437500
vt 0.187500 0.875000
vt 0.156250 0.125000
vt 0.156250 0.062500
vt 0.156250 0.562500
vt 0.156250 0.500000
vt 0.171875 1.000000
vt 0.156250 0.937500
vt 0.171875 0.000000
vt 0.156250 0.437500
vt 0.156250 0.875000
vt 0.156250 0.375000
vt 0.156250 0.812500
vt 0.156250 0.312500
vt 0.156250 0.750000
vt 0.156250 0.250000
vt 0.156250 0.687500
vt 0.156250 0.187500
vt 0.156250 0.625000
vt 0.125000 0.812500
vt 0.125000 0.750000
vt 0.125000 0.312500
vt 0.125000 0.250000
vt 0.125000 0.687500
vt 0.125000 0.187500
vt 0.125000 0.625000
vt 0.125000 0.125000
vt 0.125000 0.562500
vt 0.125000 0.062500
vt 0.125000 0.500000
vt 0.140625 1.000000
vt 0.125000 0.937500
vt 0.140625 0.000000
vt 0.125000 0.437500
vt 0.125000 0.875000
vt 0.125000 0.375000
vt 0.093750 0.562500
vt 0.093750 0.500000
vt 0.109375 1.000000
vt 0.093750 0.937500
vt 0.109375 0.000000
vt 0.093750 0.062500
vt 0.093750 0.437500
vt 0.093750 0.875000
vt 0.093750 0.375000
vt 0.093750 0.812500
vt 0.093750 0.312500
vt 0.093750 0.750000
vt 0.093750 0.250000
vt 0.093750 0.687500
vt 0.093750 0.187500
vt 0.093750 0.625000
vt 0.093750 0.125000
vt 0.062500 0.312500
vt 0.062500 0.250000
vt 0.062500 0.750000
vt 0.062500 0.687500
vt 0.062500 0.187500
vt 0.062500 0.625000
vt 0.062500 0.125000
vt 0.062500 0.562500
vt 0.062500 0.062500
vt 0.062500 0.500000
vt 0.078125 1.000000
vt 0.062500 0.937500
vt 0.078125 0.000000
vt 0.062500 0.437500
vt 0.062500 0.875000
vt 0.062500 0.375000
vt 0.062500 0.812500
vt 0.046875 0.000000
vt 0.031250 0.062500
vt 0.031250 0.500000
vt 0.031250 0.437500
vt 0.031250 0.937500
vt 0.031250 0.875000
vt 0.031250 0.375000
vt 0.031250 0.812500
vt 0.031250 0.312500
vt 0.031250 0.750000
vt 0.031250 0.250000
vt 0.031250 0.687500
vt 0.031250 0.187500
vt 0.031250 0.625000
vt 0.031250 0.125000
vt 0.031250 0.562500
vt 0.046875 1.000000
vt 0.000000 0.250000
vt 0.000000 0.187500
vt 0.000000 0.687500
vt 0.000000 0.625000
vt 0.000000 0.125000
vt 0.000000 0.562500
vt 0.000000 0.062500
vt 0.000000 0.500000
vt 0.015625 1.000000
vt 0.000000 0.937500
vt 0.015625 0.000000
vt 0.000000 0.437500
vt 0.000000 0.875000
vt 0.000000 0.375000
vt 0.000000 0.812500
vt 0.000000 0.312500
vt 0.000000 0.750000
vt 1.000000 0.875000
vt 1.000000 0.937500
vt 0.968750 0.937500
vt 0.968750 0.875000
vt 1.000000 0.375000
vt 1.000000 0.437500
vt 0.968750 0.437500
vt 0.968750 0.375000
vt 1.000000 0.812500
vt 0.968750 0.812500
vt 1.000000 0.312500
vt 0.968750 0.312500
vt 1.000000 0.750000
vt 0.968750 0.750000
vt 1.000000 0.250000
vt 0.968750 0.250000
vt 1.000000 0.687500
vt 0.968750 0.687500
vt 1.000000 0.187500
vt 0.968750 0.187500
vt 1.000000 0.625000
vt 0.968750 0.625000
vt 1.000000 0.125000
vt 0.968750 0.125000
vt 1.000000 0.562500
vt 0.968750 0.562500
vt 1.000000 0.062500
vt 0.968750 0.062500
vt 1.000000 0.500000
vt 0.968750 0.500000
vt 0.984375 1.000000
vt 0.984375 0.000000
vt 0.937500 0.687500
vt 0.937500 0.625000
vt 0.937500 0.187500
vt 0.937500 0.125000
vt 0.937500 0.562500
vt 0.937500 0.062500
vt 0.937500 0.500000
vt 0.953125 1.000000
vt 0.937500 0.937500
vt 0.953125 0.000000
vt 0.937500 0.437500
vt 0.937500 0.875000
vt 0.937500 0.375000
vt 0.937500 0.812500
vt 0.937500 0.312500
vt 0.937500 0.750000
vt 0.937500 0.250000
vt 0.906250 0.437500
vt 0.906250 0.375000
vt 0.906250 0.875000
vt 0.906250 0.812500
vt 0.906250 0.312500
vt 0.906250 0.750000
vt 0.906250 0.250000
vt 0.906250 0.687500
vt 0.906250 0.187500
vt 0.906250 0.625000
vt 0.906250 0.125000
vt 0.906250 0.562500
vt 0.906250 0.062500
vt 0.906250 0.500000
vt 0.921875 1.000000
vt 0.906250 0.937500
vt 0.921875 0.000000
vt 0.875000 0.187500
vt 0.875000 0.125000
vt 0.875000 0.625000
vt 0.875000 0.562500
vt 0.875000 0.062500
vt 0.875000 0.500000
vt 0.890625 1.000000
vt 0.875000 0.937500
vt 0.890625 0.000000
vt 0.875000 0.437500
vt 0.875000 0.875000
vt 0.875000 0.375000
vt 0.875000 0.812500
vt 0.875000 0.312500
vt 0.875000 0.750000
vt 0.875000 0.250000
vt 0.875000 0.687500
vt 0.843750 0.875000
vt 0.843750 0.812500
vt 0.843750 0.375000
vt 0.843750 0.312500
vt 0.843750 0.750000
vt 0.843750 0.250000
vt 0.843750 0.687500
vt 0.843750 0.187500
vt 0.843750 0.625000
vt 0.843750 0.125000
vt 0.843750 0.562500
vt 0.843750 0.062500
vt 0.843750 0.500000
vt 0.859375 1.000000
vt 0.843750 0.937500
vt 0.859375 0.000000
vt 0.843750 0.437500
vt 0.812500 0.625000
vt 0.812500 0.562500
vt 0.812500 0.125000
vt 0.812500 0.062500
vt 0.812500 0.500000
vt 0.828125 1.000000
vt 0.812500 0.937500
vt 0.828125 0.000000
vt 0.812500 0.437500
vt 0.812500 0.875000
vt 0.812500 0.375000
vt 0.812500 0.812500
vt 0.812500 0.312500
vt 0.812500 0.750000
vt 0.812500 0.250000
vt 0.812500 0.687500
vt 0.812500 0.187500
vt 0.781250 0.375000
vt 0.781250 0.312500
vt 0.781250 0.812500
vt 0.781250 0.750000
vt 0.781250 0.250000
vt 0.781250 0.687500
vt 0.781250 0.187500
vt 0.781250 0.625000
vt 0.781250 0.125000
vt 0.781250 0.562500
vt 0.781250 0.062500
vt 0.781250 0.500000
vt 0.796875 1.000000
vt 0.781250 0.937500
vt 0.796875 0.000000
vt 0.781250 0.437500
vt 0.781250 0.875000
vt 0.765625 1.000000
vt 0.765625 0.000000
s 0
f 482/1/1 481/2/1 20/3/1 21/4/1
f 4/5/2 3/6/2 13/7/2 14/8/2
f 474/9/3 82/10/3 7/11/3
f 308/12/4 482/1/4 21/4/4
f 5/13/5 4/5/5 14/8/5 15/14/5
f 475/15/6 474/9/6 7/11/6 8/16/6
f 478/17/7 5/13/7 15/14/7 16/18/7
f 1/19/8 475/15/8 8/16/8 9/20/8
f 6/21/9 478/17/9 16/18/9 17/22/9
f 476/23/10 1/19/10 9/20/10 10/24/10
f 479/25/11 6/21/11 17/22/11 18/26/11
f 2/27/12 476/23/12 10/24/12 11/28/12
f 480/29/13 479/25/13 18/26/13 19/30/13
f 477/31/14 2/27/14 11/28/14 12/32/14
f 481/2/15 480/29/15 19/30/15 20/3/15
f 3/6/16 477/31/16 12/32/16 13/7/16
f 12/32/17 11/28/17 26/33/17 27/34/17
f 20/3/18 19/30/18 34/35/18 35/36/18
f 13/7/19 12/32/19 27/34/19 28/37/19
f 21/4/20 20/3/20 35/36/20 36/38/20
f 14/8/21 13/7/21 28/37/21 29/39/21
f 7/11/22 82/40/22 22/41/22
f 308/42/23 21/4/23 36/38/23
f 15/14/24 14/8/24 29/39/24 30/43/24
f 8/16/25 7/11/25 22/41/25 23/44/25
f 16/18/26 15/14/26 30/43/26 31/45/26
f 9/20/27 8/16/27 23/44/27 24/46/27
f 17/22/28 16/18/28 31/45/28 32/47/28
f 10/24/29 9/20/29 24/46/29 25/48/29
f 18/26/30 17/22/30 32/47/30 33/49/30
f 11/28/31 10/24/31 25/48/31 26/33/31
f 19/30/32 18/26/32 33/49/32 34/35/32
f 31/45/33 30/43/33 45/50/33 46/51/33
f 24/46/34 23/44/34 38/52/34 39/53/34
f 32/47/35 31/45/35 46/51/35 47/54/35
f 25/48/36 24/46/36 39/53/36 40/55/36
f 33/49/37 32/47/37 47/54/37 48/56/37
f 26/33/38 25/48/38 40/55/38 41/57/38
f 34/35/39 33/49/39 48/56/39 49/58/39
f 27/34/40 26/33/40 41/57/40 42/59/40
f 35/36/41 34/35/41 49/58/41 50/60/41
f 28/37/42 27/34/42 42/59/42 43/61/42
f 36/38/43 35/36/43 50/60/43 51/62/43
f 29/39/44 28/37/44 43/61/44 44/63/44
f 22/41/45 82/64/45 37/65/45
f 308/66/46 36/38/46 51/62/46
f 30/43/47 29/39/47 44/63/47 45/50/47
f 23/44/48 22/41/48 37/65/48 38/52/48
f 50/60/49 49/58/49 64/67/49 65/68/49
f 43/61/50 42/59/50 57/69/50 58/70/50
f 51/62/51 50/60/51 65/68/51 66/71/51
f 44/63/52 43/61/52 58/70/52 59/72/52
f 37/65/53 82/73/53 52/74/53
f 308/75/54 51/62/54 66/71/54
f 45/50/55 44/63/55 59/72/55 60/76/55
f 38/52/56 37/65/56 52/74/56 53/77/56
f 46/51/57 45/50/57 60/76/57 61/78/57
f 39/53/58 38/52/58 53/77/58 54/79/58
f 47/54/59 46/51/59 61/78/59 62/80/59
f 40/55/60 39/53/60 54/79/60 55/81/60
f 48/56/61 47/54/61 62/80/61 63/82/61
f 41/57/62 40/55/62 55/81/62 56/83/62
f 49/58/63 48/56/63 63/82/63 64/67/63
f 42/59/64 41/57/64 56/83/64 57/69/64
f 62/80/65 61/78/65 76/84/65 77/85/65
f 55/81/66 54/79/66 69/86/66 70/87/66
f 63/82/67 62/80/67 77/85/67 78/88/67
f 56/83/68 55/81/68 70/87/68 71/89/68
f 64/67/69 63/82/69 78/88/69 79/90/69
f 57/69/70 56/83/70 71/89/70 72/91/70
f 65/68/71 64/67/71 79/90/71 80/92/71
f 58/70/72 57/69/72 72/91/72 73/93/72
f 66/71/73 65/68/73 80/92/73 81/94/73
f 59/72/74 58/70/74 73/93/74 74/95/74
f 52/74/75 82/96/75 67/97/75
f 308/98/76 66/71/76 81/94/76
f 60/76/77 59/72/77 74/95/77 75/99/77
f 53/77/78 52/74/78 67/97/78 68/100/78
f 61/78/79 60/76/79 75/99/79 76/84/79
f 54/79/80 53/77/80 68/100/80 69/86/80
f 81/94/81 80/92/81 96/101/81 97/102/81
f 74/95/82 73/93/82 89/103/82 90/104/82
f 67/97/83 82/105/83 83/106/83
f 308/107/84 81/94/84 97/102/84
f 75/99/85 74/95/85 90/104/85 91/108/85
f 68/100/86 67/97/86 83/106/86 84/109/86
f 76/84/87 75/99/87 91/108/87 92/110/87
f 69/86/88 68/100/88 84/109/88 85/111/88
f 77/85/89 76/84/89 92/110/89 93/112/89
f 70/87/90 69/86/90 85/111/90 86/113/90
f 78/88/91 77/85/91 93/112/91 94/114/91
f 71/89/92 70/87/92 86/113/92 87/115/92
f 79/90/93 78/88/93 94/114/93 95/116/93
f 72/91/94 71/89/94 87/115/94 88/117/94
f 80/92/95 79/90/95 95/116/95 96/101/95
f 73/93/96 72/91/96 88/117/96 89/103/96
f 86/113/97 85/111/97 100/118/97 101/119/97
f 94/114/98 93/112/98 108/120/98 109/121/98
f 87/115/99 86/113/99 101/119/99 102/122/99
f 95/116/100 94/114/100 109/121/100 110/123/100
f 88/117/101 87/115/101 102/122/101 103/124/101
f 96/101/102 95/116/102 110/123/102 111/125/102
f 89/103/103 88/117/103 103/124/103 104/126/103
f 97/102/104 96/101/104 111/125/104 112/127/104
f 90/104/105 89/103/105 104/126/105 105/128/105
f 83/106/106 82/129/106 98/130/106
f 308/131/107 97/102/107 112/127/107
f 91/108/108 90/104/108 105/128/108 106/132/108
f 84/109/109 83/106/109 98/130/109 99/133/109
f 92/110/110 91/108/110 106/132/110 107/134/110
f 85/111/111 84/109/111 99/133/111 100/118/111
f 93/112/112 92/110/112 107/134/112 108/120/112
f 105/128/113 104/126/113 119/135/113 120/136/113
f 98/130/114 82/137/114 113/138/114
f 308/139/115 112/127/115 127/140/115
f 106/132/116 105/128/116 120/136/116 121/141/116
f 99/133/117 98/130/117 113/138/117 114/142/117
f 107/134/118 106/132/118 121/141/118 122/143/118
f 100/118/119 99/133/119 114/142/119 115/144/119
f 108/120/120 107/134/120 122/143/120 123/145/120
f 101/119/121 100/118/121 115/144/121 116/146/121
f 109/121/122 108/120/122 123/145/122 124/147/122
f 102/122/123 101/119/123 116/146/123 117/148/123
f 110/123/124 109/121/124 124/147/124 125/149/124
f 103/124/125 102/122/125 117/148/125 118/150/125
f 111/125/126 110/123/126 125/149/126 126/151/126
f 104/126/127 103/124/127 118/150/127 119/135/127
f 112/127/128 111/125/128 126/151/128 127/140/128
f 124/147/129 123/145/129 138/152/129 139/153/129
f 117/148/130 116/146/130 131/154/130 132/155/130
f 125/149/131 124/147/131 139/153/131 140/156/131
f 118/150/132 117/148/132 132/155/132 133/157/132
f 126/151/133 125/149/133 140/156/133 141/158/133
f 119/135/134 118/150/134 133/157/134 134/159/134
f 127/140/135 126/151/135 141/158/135 142/160/135
f 120/136/136 119/135/136 134/159/136 135/161/136
f 113/138/137 82/162/137 128/163/137
f 308/164/138 127/140/138 142/160/138
f 121/141/139 120/136/139 135/161/139 136/165/139
f 114/142/140 113/138/140 128/163/140 129/166/140
f 122/143/141 121/141/141 136/165/141 137/167/141
f 115/144/142 114/142/142 129/166/142 130/168/142
f 123/145/143 122/143/143 137/167/143 138/152/143
f 116/146/144 115/144/144 130/168/144 131/154/144
f 128/163/145 82/169/145 143/170/145
f 308/171/146 142/160/146 157/172/146
f 136/165/147 135/161/147 150/173/147 151/174/147
f 129/166/148 128/163/148 143/170/148 144/175/148
f 137/167/149 136/165/149 151/174/149 152/176/149
f 130/168/150 129/166/150 144/175/150 145/177/150
f 138/152/151 137/167/151 152/176/151 153/178/151
f 131/154/152 130/168/152 145/177/152 146/179/152
f 139/153/153 138/152/153 153/178/153 154/180/153
f 132/155/154 131/154/154 146/179/154 147/181/154
f 140/156/155 139/153/155 154/180/155 155/182/155
f 133/157/156 132/155/156 147/181/156 148/183/156
f 141/158/157 140/156/157 155/182/157 156/184/157
f 134/159/158 133/157/158 148/183/158 149/185/158
f 142/160/159 141/158/159 156/184/159 157/172/159
f 135/161/160 134/159/160 149/185/160 150/173/160
f 147/181/161 146/179/161 161/186/161 162/187/161
f 155/182/162 154/180/162 169/188/162 170/189/162
f 148/183/163 147/181/163 162/187/163 163/190/163
f 156/184/164 155/182/164 170/189/164 171/191/164
f 149/185/165 148/183/165 163/190/165 164/192/165
f 157/172/166 156/184/166 171/191/166 172/193/166
f 150/173/167 149/185/167 164/192/167 165/194/167
f 143/170/168 82/195/168 158/196/168
f 308/197/169 157/172/169 172/193/169
f 151/174/170 150/173/170 165/194/170 166/198/170
f 144/175/171 143/170/171 158/196/171 159/199/171
f 152/176/172 151/174/172 166/198/172 167/200/172
f 145/177/173 144/175/173 159/199/173 160/201/173
f 153/178/174 152/176/174 167/200/174 168/202/174
f 146/179/175 145/177/175 160/201/175 161/186/175
f 154/180/176 153/178/176 168/202/176 169/188/176
f 166/198/177 165/194/177 180/203/177 181/204/177
f 159/199/178 158/196/178 173/205/178 174/206/178
f 167/200/179 166/198/179 181/204/179 182/207/179
f 160/201/180 159/199/180 174/206/180 175/208/180
f 168/202/181 167/200/181 182/207/181 183/209/181
f 161/186/182 160/201/182 175/208/182 176/210/182
f 169/188/183 168/202/183 183/209/183 184/211/183
f 162/187/184 161/186/184 176/210/184 177/212/184
f 170/189/185 169/188/185 184/211/185 185/213/185
f 163/190/186 162/187/186 177/212/186 178/214/186
f 171/191/187 170/189/187 185/213/187 186/215/187
f 164/192/188 163/190/188 178/214/188 179/216/188
f 172/193/189 171/191/189 186/215/189 187/217/189
f 165/194/190 164/192/190 179/216/190 180/203/190
f 158/196/191 82/218/191 173/205/191
f 308/219/192 172/193/192 187/217/192
f 185/213/193 184/211/193 199/220/193 200/221/193
f 178/214/194 177/212/194 192/222/194 193/223/194
f 186/215/195 185/213/195 200/221/195 201/224/195
f 179/216/196 178/214/196 193/223/196 194/225/196
f 187/217/197 186/215/197 201/224/197 202/226/197
f 180/203/198 179/216/198 194/225/198 195/227/198
f 173/205/199 82/228/199 188/229/199
f 308/230/200 187/217/200 202/226/200
f 181/204/201 180/203/201 195/227/201 196/231/201
f 174/206/202 173/205/202 188/229/202 189/232/202
f 182/207/203 181/204/203 196/231/203 197/233/203
f 175/208/204 174/206/204 189/232/204 190/234/204
f 183/209/205 182/207/205 197/233/205 198/235/205
f 176/210/206 175/208/206 190/234/206 191/236/206
f 184/211/207 183/209/207 198/235/207 199/220/207
f 177/212/208 176/210/208 191/236/208 192/222/208
f 197/233/209 196/231/209 211/237/209 212/238/209
f 190/234/210 189/232/210 204/239/210 205/240/210
f 198/235/211 197/233/211 212/238/211 213/241/211
f 191/236/212 190/234/212 205/240/212 206/242/212
f 199/220/213 198/235/213 213/241/213 214/243/213
f 192/222/214 191/236/214 206/242/214 207/244/214
f 200/221/215 199/220/215 214/243/215 215/245/215
f 193/223/216 192/222/216 207/244/216 208/246/216
f 201/224/217 200/221/217 215/245/217 216/247/217
f 194/225/218 193/223/218 208/246/218 209/248/218
f 202/226/219 201/224/219 216/247/219 217/249/219
f 195/227/220 194/225/220 209/248/220 210/250/220
f 188/229/221 82/251/221 203/252/221
f 308/253/222 202/226/222 217/249/222
f 196/231/223 195/227/223 210/250/223 211/237/223
f 189/232/224 188/229/224 203/252/224 204/239/224
f 216/247/225 215/245/225 230/254/225 231/255/225
f 209/248/226 208/246/226 223/256/226 224/257/226
f 217/249/227 216/247/227 231/255/227 232/258/227
f 210/250/228 209/248/228 224/257/228 225/259/228
f 203/252/229 82/260/229 218/261/229
f 308/262/230 217/249/230 232/258/230
f 211/237/231 210/250/231 225/259/231 226/263/231
f 204/239/232 203/252/232 218/261/232 219/264/232
f 212/238/233 211/237/233 226/263/233 227/265/233
f 205/240/234 204/239/234 219/264/234 220/266/234
f 213/241/235 212/238/235 227/265/235 228/267/235
f 206/242/236 205/240/236 220/266/236 221/268/236
f 214/243/237 213/241/237 228/267/237 229/269/237
f 207/244/238 206/242/238 221/268/238 222/270/238
f 215/245/239 214/243/239 229/269/239 230/254/239
f 208/246/240 207/244/240 222/270/240 223/256/240
f 220/266/241 219/264/241 234/271/241 235/272/241
f 228/267/242 227/265/242 242/273/242 243/274/242
f 221/268/243 220/266/243 235/272/243 236/275/243
f 229/269/244 228/267/244 243/274/244 244/276/244
f 222/270/245 221/268/245 236/275/245 237/277/245
f 230/254/246 229/269/246 244/276/246 245/278/246
f 223/256/247 222/270/247 237/277/247 238/279/247
f 231/255/248 230/254/248 245/278/248 246/280/248
f 224/257/249 223/256/249 238/279/249 239/281/249
f 232/258/250 231/255/250 246/280/250 247/282/250
f 225/259/251 224/257/251 239/281/251 240/283/251
f 218/261/252 82/284/252 233/285/252
f 308/286/253 232/258/253 247/282/253
f 226/263/254 225/259/254 240/283/254 241/287/254
f 219/264/255 218/261/255 233/285/255 234/271/255
f 227/265/256 226/263/256 241/287/256 242/273/256
f 239/281/257 238/279/257 253/288/257 254/289/257
f 247/282/258 246/280/258 261/290/258 262/291/258
f 240/283/259 239/281/259 254/289/259 255/292/259
f 233/285/260 82/293/260 248/294/260
f 308/295/261 247/282/261 262/291/261
f 241/287/262 240/283/262 255/292/262 256/296/262
f 234/271/263 233/285/263 248/294/263 249/297/263
f 242/273/264 241/287/264 256/296/264 257/298/264
f 235/272/265 234/271/265 249/297/265 250/299/265
f 243/274/266 242/273/266 257/298/266 258/300/266
f 236/275/267 235/272/267 250/299/267 251/301/267
f 244/276/268 243/274/268 258/300/268 259/302/268
f 237/277/269 236/275/269 251/301/269 252/303/269
f 245/278/270 244/276/270 259/302/270 260/304/270
f 238/279/271 237/277/271 252/303/271 253/288/271
f 246/280/272 245/278/272 260/304/272 261/290/272
f 258/300/273 257/298/273 272/305/273 273/306/273
f 251/301/274 250/299/274 265/307/274 266/308/274
f 259/302/275 258/300/275 273/306/275 274/309/275
f 252/303/276 251/301/276 266/308/276 267/310/276
f 260/304/277 259/302/277 274/309/277 275/311/277
f 253/288/278 252/303/278 267/310/278 268/312/278
f 261/290/279 260/304/279 275/311/279 276/313/279
f 254/289/280 253/288/280 268/312/280 269/314/280
f 262/291/281 261/290/281 276/313/281 277/315/281
f 255/292/282 254/289/282 269/314/282 270/316/282
f 248/294/283 82/317/283 263/318/283
f 308/319/284 262/291/284 277/315/284
f 256/296/285 255/292/285 270/316/285 271/320/285
f 249/297/286 248/294/286 263/318/286 264/321/286
f 257/298/287 256/296/287 271/320/287 272/305/287
f 250/299/288 249/297/288 264/321/288 265/307/288
f 277/315/289 276/313/289 291/322/289 292/323/289
f 270/316/290 269/314/290 284/324/290 285/325/290
f 263/318/291 82/326/291 278/327/291
f 308/328/292 277/315/292 292/323/292
f 271/320/293 270/316/293 285/325/293 286/329/293
f 264/321/294 263/318/294 278/327/294 279/330/294
f 272/305/295 271/320/295 286/329/295 287/331/295
f 265/307/296 264/321/296 279/330/296 280/332/296
f 273/306/297 272/305/297 287/331/297 288/333/297
f 266/308/298 265/307/298 280/332/298 281/334/298
f 274/309/299 273/306/299 288/333/299 289/335/299
f 267/310/300 266/308/300 281/334/300 282/336/300
f 275/311/301 274/309/301 289/335/301 290/337/301
f 268/312/302 267/310/302 282/336/302 283/338/302
f 276/313/303 275/311/303 290/337/303 291/322/303
f 269/314/304 268/312/304 283/338/304 284/324/304
f 281/334/305 280/332/305 295/339/305 296/340/305
f 289/335/306 288/333/306 303/341/306 304/342/306
f 282/336/307 281/334/307 296/340/307 297/343/307
f 290/337/308 289/335/308 304/342/308 305/344/308
f 283/338/309 282/336/309 297/343/309 298/345/309
f 291/322/310 290/337/310 305/344/310 306/346/310
f 284/324/311 283/338/311 298/345/311 299/347/311
f 292/323/312 291/322/312 306/346/312 307/348/312
f 285/325/313 284/324/313 299/347/313 300/349/313
f 278/327/314 82/350/314 293/351/314
f 308/352/315 292/323/315 307/348/315
f 286/329/316 285/325/316 300/349/316 301/353/316
f 279/330/317 278/327/317 293/351/317 294/354/317
f 287/331/318 286/329/318 301/353/318 302/355/318
f 280/332/319 279/330/319 294/354/319 295/339/319
f 288/333/320 287/331/320 302/355/320 303/341/320
f 300/349/321 299/347/321 315/356/321 316/357/321
f 293/351/322 82/358/322 309/359/322
f 308/360/323 307/348/323 323/361/323
f 301/353/324 300/349/324 316/357/324 317/362/324
f 294/354/325 293/351/325 309/359/325 310/363/325
f 302/355/326 301/353/326 317/362/326 318/364/326
f 295/339/327 294/354/327 310/363/327 311/365/327
f 303/341/328 302/355/328 318/364/328 319/366/328
f 296/340/329 295/339/329 311/365/329 312/367/329
f 304/342/330 303/341/330 319/366/330 320/368/330
f 297/343/331 296/340/331 312/367/331 313/369/331
f 305/344/332 304/342/332 320/368/332 321/370/332
f 298/345/333 297/343/333 313/369/333 314/371/333
f 306/346/334 305/344/334 321/370/334 322/372/334
f 299/347/335 298/345/335 314/371/335 315/356/335
f 307/348/336 306/346/336 322/372/336 323/361/336
f 320/368/337 319/366/337 334/373/337 335/374/337
f 313/369/338 312/367/338 327/375/338 328/376/338
f 321/370/339 320/368/339 335/374/339 336/377/339
f 314/371/340 313/369/340 328/376/340 329/378/340
f 322/372/341 321/370/341 336/377/341 337/379/341
f 315/356/342 314/371/342 329/378/342 330/380/342
f 323/361/343 322/372/343 337/379/343 338/381/343
f 316/357/344 315/356/344 330/380/344 331/382/344
f 309/359/345 82/383/345 324/384/345
f 308/385/346 323/361/346 338/381/346
f 317/362/347 316/357/347 331/382/347 332/386/347
f 310/363/348 309/359/348 324/384/348 325/387/348
f 318/364/349 317/362/349 332/386/349 333/388/349
f 311/365/350 310/363/350 325/387/350 326/389/350
f 319/366/351 318/364/351 333/388/351 334/373/351
f 312/367/352 311/365/352 326/389/352 327/375/352
f 308/390/353 338/381/353 353/391/353
f 332/386/354 331/382/354 346/392/354 347/393/354
f 325/387/355 324/384/355 339/394/355 340/395/355
f 333/388/356 332/386/356 347/393/356 348/396/356
f 326/389/357 325/387/357 340/395/357 341/397/357
f 334/373/358 333/388/358 348/396/358 349/398/358
f 327/375/359 326/389/359 341/397/359 342/399/359
f 335/374/360 334/373/360 349/398/360 350/400/360
f 328/376/361 327/375/361 342/399/361 343/401/361
f 336/377/362 335/374/362 350/400/362 351/402/362
f 329/378/363 328/376/363 343/401/363 344/403/363
f 337/379/364 336/377/364 351/402/364 352/404/364
f 330/380/365 329/378/365 344/403/365 345/405/365
f 338/381/366 337/379/366 352/404/366 353/391/366
f 331/382/367 330/380/367 345/405/367 346/392/367
f 324/384/368 82/406/368 339/394/368
f 351/402/369 350/400/369 365/407/369 366/408/369
f 344/403/370 343/401/370 358/409/370 359/410/370
f 352/404/371 351/402/371 366/408/371 367/411/371
f 345/405/372 344/403/372 359/410/372 360/412/372
f 353/391/373 352/404/373 367/411/373 368/413/373
f 346/392/374 345/405/374 360/412/374 361/414/374
f 339/394/375 82/415/375 354/416/375
f 308/417/376 353/391/376 368/413/376
f 347/393/377 346/392/377 361/414/377 362/418/377
f 340/395/378 339/394/378 354/416/378 355/419/378
f 348/396/379 347/393/379 362/418/379 363/420/379
f 341/397/380 340/395/380 355/419/380 356/421/380
f 349/398/381 348/396/381 363/420/381 364/422/381
f 342/399/382 341/397/382 356/421/382 357/423/382
f 350/400/383 349/398/383 364/422/383 365/407/383
f 343/401/384 342/399/384 357/423/384 358/409/384
f 355/424/385 354/425/385 369/426/385 370/427/385
f 363/428/386 362/429/386 377/430/386 378/431/386
f 356/432/387 355/424/387 370/427/387 371/433/387
f 364/434/388 363/428/388 378/431/388 379/435/388
f 357/436/389 356/432/389 371/433/389 372/437/389
f 365/438/390 364/434/390 379/435/390 380/439/390
f 358/440/391 357/436/391 372/437/391 373/441/391
f 366/442/392 365/438/392 380/439/392 381/443/392
f 359/444/393 358/440/393 373/441/393 374/445/393
f 367/446/394 366/442/394 381/443/394 382/447/394
f 360/448/395 359/444/395 374/445/395 375/449/395
f 368/450/396 367/446/396 382/447/396 383/451/396
f 361/452/397 360/448/397 375/449/397 376/453/397
f 354/425/398 82/454/398 369/426/398
f 308/455/399 368/450/399 383/451/399
f 362/429/400 361/452/400 376/453/400 377/430/400
f 374/445/401 373/441/401 388/456/401 389/457/401
f 382/447/402 381/443/402 396/458/402 397/459/402
f 375/449/403 374/445/403 389/457/403 390/460/403
f 383/451/404 382/447/404 397/459/404 398/461/404
f 376/453/405 375/449/405 390/460/405 391/462/405
f 369/426/406 82/463/406 384/464/406
f 308/465/407 383/451/407 398/461/407
f 377/430/408 376/453/408 391/462/408 392/466/408
f 370/427/409 369/426/409 384/464/409 385/467/409
f 378/431/410 377/430/410 392/466/410 393/468/410
f 371/433/411 370/427/411 385/467/411 386/469/411
f 379/435/412 378/431/412 393/468/412 394/470/412
f 372/437/413 371/433/413 386/469/413 387/471/413
f 380/439/414 379/435/414 394/470/414 395/472/414
f 373/441/415 372/437/415 387/471/415 388/456/415
f 381/443/416 380/439/416 395/472/416 396/458/416
f 393/468/417 392/466/417 407/473/417 408/474/417
f 386/469/418 385/467/418 400/475/418 401/476/418
f 394/470/419 393/468/419 408/474/419 409/477/419
f 387/471/420 386/469/420 401/476/420 402/478/420
f 395/472/421 394/470/421 409/477/421 410/479/421
f 388/456/422 387/471/422 402/478/422 403/480/422
f 396/458/423 395/472/423 410/479/423 411/481/423
f 389/457/424 388/456/424 403/480/424 404/482/424
f 397/459/425 396/458/425 411/481/425 412/483/425
f 390/460/426 389/457/426 404/482/426 405/484/426
f 398/461/427 397/459/427 412/483/427 413/485/427
f 391/462/428 390/460/428 405/484/428 406/486/428
f 384/464/429 82/487/429 399/488/429
f 308/489/430 398/461/430 413/485/430
f 392/466/431 391/462/431 406/486/431 407/473/431
f 385/467/432 384/464/432 399/488/432 400/475/432
f 412/483/433 411/481/433 426/490/433 427/491/433
f 405/484/434 404/482/434 419/492/434 420/493/434
f 413/485/435 412/483/435 427/491/435 428/494/435
f 406/486/436 405/484/436 420/493/436 421/495/436
f 399/488/437 82/496/437 414/497/437
f 308/498/438 413/485/438 428/494/438
f 407/473/439 406/486/439 421/495/439 422/499/439
f 400/475/440 399/488/440 414/497/440 415/500/440
f 408/474/441 407/473/441 422/499/441 423/501/441
f 401/476/442 400/475/442 415/500/442 416/502/442
f 409/477/443 408/474/443 423/501/443 424/503/443
f 402/478/444 401/476/444 416/502/444 417/504/444
f 410/479/445 409/477/445 424/503/445 425/505/445
f 403/480/446 402/478/446 417/504/446 418/506/446
f 411/481/447 410/479/447 425/505/447 426/490/447
f 404/482/448 403/480/448 418/506/448 419/492/448
f 416/502/449 415/500/449 430/507/449 431/508/449
f 424/503/450 423/501/450 438/509/450 439/510/450
f 417/504/451 416/502/451 431/508/451 432/511/451
f 425/505/452 424/503/452 439/510/452 440/512/452
f 418/506/453 417/504/453 432/511/453 433/513/453
f 426/490/454 425/505/454 440/512/454 441/514/454
f 419/492/455 418/506/455 433/513/455 434/515/455
f 427/491/456 426/490/456 441/514/456 442/516/456
f 420/493/457 419/492/457 434/515/457 435/517/457
f 428/494/458 427/491/458 442/516/458 443/518/458
f 421/495/459 420/493/459 435/517/459 436/519/459
f 414/497/460 82/520/460 429/521/460
f 308/522/461 428/494/461 443/518/461
f 422/499/462 421/495/462 436/519/462 437/523/462
f 415/500/463 414/497/463 429/521/463 430/507/463
f 423/501/464 422/499/464 437/523/464 438/509/464
f 435/517/465 434/515/465 449/524/465 450/525/465
f 443/518/466 442/516/466 457/526/466 458/527/466
f 436/519/467 435/517/467 450/525/467 451/528/467
f 429/521/468 82/529/468 444/530/468
f 308/531/469 443/518/469 458/527/469
f 437/523/470 436/519/470 451/528/470 452/532/470
f 430/507/471 429/521/471 444/530/471 445/533/471
f 438/509/472 437/523/472 452/532/472 453/534/472
f 431/508/473 430/507/473 445/533/473 446/535/473
f 439/510/474 438/509/474 453/534/474 454/536/474
f 432/511/475 431/508/475 446/535/475 447/537/475
f 440/512/476 439/510/476 454/536/476 455/538/476
f 433/513/477 432/511/477 447/537/477 448/539/477
f 441/514/478 440/512/478 455/538/478 456/540/478
f 434/515/479 433/513/479 448/539/479 449/524/479
f 442/516/480 441/514/480 456/540/480 457/526/480
f 454/536/481 453/534/481 468/541/481 469/542/481
f 447/537/482 446/535/482 461/543/482 462/544/482
f 455/538/483 454/536/483 469/542/483 470/545/483
f 448/539/484 447/537/484 462/544/484 463/546/484
f 456/540/485 455/538/485 470/545/485 471/547/485
f 449/524/486 448/539/486 463/546/486 464/548/486
f 457/526/487 456/540/487 471/547/487 472/549/487
f 450/525/488 449/524/488 464/548/488 465/550/488
f 458/527/489 457/526/489 472/549/489 473/551/489
f 451/528/490 450/525/490 465/550/490 466/552/490
f 444/530/491 82/553/491 459/554/491
f 308/555/492 458/527/492 473/551/492
f 452/532/493 451/528/493 466/552/493 467/556/493
f 445/533/494 444/530/494 459/554/494 460/557/494
f 453/534/495 452/532/495 467/556/495 468/541/495
f 446/535/496 445/533/496 460/557/496 461/543/496
f 473/551/497 472/549/497 481/2/497 482/1/497
f 466/552/498 465/550/498 3/6/498 4/5/498
f 459/554/499 82/558/499 474/9/499
f 308/559/500 473/551/500 482/1/500
f 467/556/501 466/552/501 4/5/501 5/13/501
f 460/557/502 459/554/502 474/9/502 475/15/502
f 468/541/503 467/556/503 5/13/503 478/17/503
f 461/543/504 460/557/504 475/15/504 1/19/504
f 469/542/505 468/541/505 478/17/505 6/21/505
f 462/544/506 461/543/506 1/19/506 476/23/506
f 470/545/507 469/542/507 6/21/507 479/25/507
f 463/546/508 462/544/508 476/23/508 2/27/508
f 471/547/509 470/545/509 479/25/509 480/29/509
f 464/548/510 463/546/510 2/27/510 477/31/510
f 472/549/511 471/547/511 480/29/511 481/2/511
f 465/550/512 464/548/512 477/31/512 3/6/512
