# Blender 4.5.3 LTS
# www.blender.org
mtllib Switch.mtl
o Cube.004
v -0.561961 -0.195152 -1.481628
v -0.561961 0.113390 -1.396930
v -0.561961 -0.110454 -1.790170
v -0.561961 0.198088 -1.705472
v -0.398475 -0.195152 -1.481628
v -0.398475 0.113390 -1.396930
v -0.397256 -0.111306 -1.791668
v -0.398475 0.198088 -1.705472
vn -1.0000 -0.0000 -0.0000
vn -0.0037 0.2665 -0.9638
vn 1.0000 0.0013 0.0023
vn -0.0000 -0.2647 0.9643
vn -0.0037 -0.9648 -0.2629
vn -0.0000 0.9643 0.2647
vt 0.375000 0.000000
vt 0.625000 0.000000
vt 0.625000 0.250000
vt 0.375000 0.250000
vt 0.625000 0.500000
vt 0.375000 0.500000
vt 0.625000 0.750000
vt 0.375000 0.750000
vt 0.625000 1.000000
vt 0.375000 1.000000
vt 0.125000 0.500000
vt 0.125000 0.750000
vt 0.875000 0.500000
vt 0.875000 0.750000
s 0
f 1/1/1 2/2/1 4/3/1 3/4/1
f 3/4/2 4/3/2 8/5/2 7/6/2
f 7/6/3 8/5/3 6/7/3 5/8/3
f 5/8/4 6/7/4 2/9/4 1/10/4
f 3/11/5 7/6/5 5/8/5 1/12/5
f 8/5/6 4/13/6 2/14/6 6/7/6
